{"glyphs":{" ":{"ha":361,"x_min":0,"x_max":0,"o":""},"ء":{"ha":882,"x_min":111,"x_max":840,"o":"m 111 0 q 253 61 176 31 q 184 216 184 130 q 230 387 184 297 q 346 530 276 477 q 486 583 415 583 q 617 535 566 583 q 669 408 669 486 q 659 347 669 378 q 631 297 648 315 q 557 328 579 317 l 566 374 q 488 389 524 389 q 383 359 439 389 q 275 261 328 329 q 342 177 298 206 q 473 138 386 149 q 803 207 646 186 q 840 114 840 167 q 811 40 840 71 q 726 4 783 9 l 620 -5 q 368 -33 449 -19 q 139 -81 287 -46 l 111 0 z "},"ا":{"ha":464,"x_min":125,"x_max":367,"o":"m 311 839 l 311 664 l 310 530 l 302 0 l 197 -14 q 168 386 188 147 l 125 942 q 148 1015 125 983 q 212 1065 170 1046 q 301 1083 254 1083 q 367 882 330 980 l 311 839 z "},"ﺎ":{"ha":471,"x_min":125,"x_max":498,"o":"m 319 1083 q 306 227 306 486 q 383 191 342 202 q 485 180 425 180 q 498 167 498 180 l 498 0 q 485 -14 498 -14 q 311 25 374 -14 q 236 134 248 63 q 125 975 170 537 l 319 1083 z "},"ح":{"ha":1071,"x_min":111,"x_max":1029,"o":"m 335 496 q 277 491 302 496 q 230 477 252 486 q 149 432 208 468 q 122 475 134 447 q 111 530 111 504 q 171 648 111 606 q 329 690 230 690 q 440 677 382 690 q 591 630 498 664 q 741 584 675 599 q 875 570 808 570 l 907 570 q 1023 572 988 570 l 957 389 q 836 383 913 383 q 762 386 798 383 q 515 296 637 361 q 325 145 394 231 q 256 -28 256 60 q 357 -216 256 -146 q 614 -285 458 -285 q 788 -274 700 -285 q 1007 -233 877 -263 l 1029 -302 q 785 -423 903 -374 q 610 -472 667 -472 q 283 -365 395 -472 q 172 -46 172 -257 q 266 239 172 105 q 513 449 359 372 q 418 481 461 467 q 335 496 374 496 z "},"ﺣ":{"ha":1060,"x_min":-14,"x_max":1004,"o":"m 0 -14 q -14 0 -14 -14 l -14 167 q 0 180 -14 180 q 194 183 145 180 q 285 193 243 186 q 364 211 327 199 q 564 265 494 251 q 492 307 524 286 q 432 346 460 328 q 376 374 404 363 q 315 385 348 385 q 227 372 267 385 q 122 321 186 360 q 96 365 108 335 q 85 419 85 394 q 114 503 85 467 q 196 559 144 538 q 310 579 249 579 q 410 561 361 579 q 519 503 459 543 q 617 441 572 467 q 696 403 663 416 q 784 374 730 389 q 886 354 837 359 q 1004 349 935 349 l 921 175 q 754 197 813 183 q 635 160 694 186 q 509 92 576 134 q 413 41 457 60 q 323 9 370 21 q 221 -8 277 -3 q 0 -14 165 -14 z "},"ﺤ":{"ha":1074,"x_min":-14,"x_max":1101,"o":"m 0 -14 q -14 0 -14 -14 l -14 167 q 0 180 -14 180 q 194 183 145 180 q 285 193 243 186 q 364 211 327 199 q 564 265 494 251 q 492 307 524 286 q 432 346 460 328 q 376 374 404 363 q 315 385 348 385 q 227 372 267 385 q 122 321 186 360 q 96 365 108 335 q 85 419 85 394 q 114 503 85 467 q 196 559 144 538 q 310 579 249 579 q 410 561 361 579 q 519 503 459 543 q 617 441 572 467 q 696 403 663 416 q 784 374 730 389 q 886 354 837 359 q 1004 349 935 349 l 925 186 q 1088 180 966 180 q 1101 167 1101 180 l 1101 0 q 1088 -14 1101 -14 q 854 11 949 -14 q 758 66 758 35 q 781 192 758 102 l 754 197 q 635 160 694 186 q 509 92 576 134 q 413 41 457 60 q 323 9 370 21 q 221 -8 277 -3 q 0 -14 165 -14 z "},"ﺢ":{"ha":1183,"x_min":111,"x_max":1211,"o":"m 335 385 q 277 380 302 385 q 230 366 252 375 q 149 321 208 357 q 123 365 134 335 q 111 419 111 394 q 171 537 111 495 q 329 579 230 579 q 440 566 382 579 q 591 519 498 553 q 741 473 675 488 q 875 458 808 458 l 907 458 q 1023 461 988 458 l 957 278 q 836 272 924 272 l 798 272 q 852 212 821 229 q 942 187 883 194 q 1197 180 1002 180 q 1211 167 1211 180 l 1211 0 q 1197 -14 1211 -14 q 984 -1 1054 -14 q 868 40 914 12 q 786 120 822 68 q 715 265 750 172 q 479 164 589 232 q 312 19 369 97 q 256 -139 256 -59 q 357 -327 256 -258 q 614 -396 458 -396 q 926 -351 732 -396 l 949 -421 q 703 -556 764 -530 q 604 -583 641 -583 q 172 -157 172 -583 q 265 127 172 -7 q 513 338 358 260 q 418 371 461 357 q 335 385 374 385 z "},"د":{"ha":710,"x_min":56,"x_max":640,"o":"m 275 -28 q 56 100 56 -28 q 68 170 56 134 q 104 232 81 205 q 197 182 144 198 q 326 167 250 167 q 541 200 433 167 q 453 345 499 277 q 367 483 385 446 q 349 543 349 520 q 367 612 349 579 q 418 671 386 645 q 485 708 451 697 q 534 561 507 631 q 585 429 561 491 q 624 314 608 367 q 640 216 640 260 q 622 135 640 193 q 583 36 604 77 q 442 -11 525 5 q 275 -28 359 -28 z "},"ر":{"ha":616,"x_min":-56,"x_max":547,"o":"m 167 -347 q 72 -308 136 -347 q -56 -214 7 -268 l -29 -146 q 136 -168 58 -168 q 340 -107 256 -168 q 461 66 425 -47 q 434 118 447 96 q 372 216 421 140 q 304 337 326 286 q 282 427 282 387 q 321 521 282 474 q 419 597 359 568 q 456 472 434 535 q 498 348 477 409 q 533 228 518 286 q 547 118 547 170 q 498 -118 547 -10 q 362 -287 449 -226 q 167 -347 275 -347 z "},"ﺮ":{"ha":646,"x_min":-56,"x_max":673,"o":"m 660 -14 q 539 18 595 -14 q 408 -248 509 -149 q 167 -347 306 -347 q 72 -308 136 -347 q -56 -214 7 -268 l -29 -146 q 136 -168 58 -168 q 340 -107 256 -168 q 461 66 425 -47 q 434 118 447 96 q 372 216 421 140 q 304 337 326 286 q 282 427 282 387 q 321 521 282 474 q 419 597 359 568 q 480 400 435 532 q 536 210 522 278 q 660 180 590 180 q 673 167 673 180 l 673 0 q 660 -14 673 -14 z "},"س":{"ha":1733,"x_min":111,"x_max":1650,"o":"m 1582 -28 q 1376 -4 1480 -28 q 1192 56 1272 19 l 1173 17 q 1098 -16 1160 -3 q 957 -28 1036 -28 q 900 -24 929 -28 l 903 -72 q 838 -273 903 -180 q 660 -419 772 -366 q 411 -472 547 -472 q 188 -386 264 -472 q 111 -136 111 -300 q 151 100 111 -52 l 224 82 q 201 -47 201 7 q 254 -221 201 -165 q 415 -278 306 -278 q 640 -243 549 -278 q 811 -134 730 -209 q 765 -41 789 -86 q 720 42 741 3 q 687 112 700 81 q 673 165 673 144 q 839 380 673 302 q 872 176 848 306 q 975 167 916 167 q 1036 170 1015 167 q 1092 184 1057 173 q 1160 350 1113 220 q 1193 424 1182 410 q 1219 444 1204 437 q 1257 452 1235 452 q 1320 435 1289 452 q 1251 225 1301 389 q 1390 177 1314 193 q 1556 151 1466 161 q 1512 241 1534 199 q 1473 318 1490 283 q 1444 381 1455 353 q 1434 432 1434 410 q 1478 520 1434 472 q 1582 597 1523 569 l 1603 489 q 1640 293 1630 353 q 1650 204 1650 233 q 1628 93 1650 165 q 1582 -28 1606 20 z "},"ﺳ":{"ha":1143,"x_min":-14,"x_max":1060,"o":"m 991 -28 q 784 -4 888 -28 q 602 56 680 20 l 582 17 q 507 -15 571 -1 q 376 -28 443 -28 q 187 24 295 -28 q 109 -2 158 9 q 0 -14 60 -14 q -14 0 -14 -14 l -14 167 q 0 180 -14 180 q 111 190 73 180 q 174 222 150 199 q 230 301 198 245 l 256 346 q 284 375 267 363 q 323 387 302 387 q 374 370 349 387 q 335 272 355 323 q 294 172 316 220 q 385 167 331 167 q 447 170 427 167 q 501 184 468 174 q 570 350 519 215 l 591 406 q 621 440 600 426 q 671 454 642 454 q 729 436 703 454 q 678 285 709 388 l 660 225 q 799 177 723 193 q 965 151 875 161 q 921 241 943 199 q 882 318 899 283 q 854 381 865 353 q 843 432 843 410 q 888 520 843 472 q 991 597 932 569 l 1013 489 q 1060 204 1060 255 q 1039 97 1060 167 q 991 -28 1019 26 z "},"ﺴ":{"ha":1139,"x_min":-14,"x_max":1166,"o":"m 323 387 q 374 370 349 387 q 335 272 355 323 q 294 172 316 220 q 385 167 331 167 q 447 170 427 167 q 501 184 468 174 q 570 350 519 215 l 591 406 q 621 440 600 426 q 671 454 642 454 q 729 436 703 454 q 663 235 703 373 l 640 161 l 665 160 l 685 160 q 802 178 745 160 q 873 361 821 209 l 896 419 q 926 454 905 439 q 977 468 947 468 q 1034 452 1007 468 q 979 288 1013 399 l 960 224 q 1043 190 998 200 q 1153 180 1088 180 q 1166 167 1166 180 l 1166 0 q 1153 -14 1166 -14 q 1019 15 1086 -14 q 913 85 951 43 q 882 17 890 29 q 819 -16 869 -4 q 704 -28 769 -28 q 643 -17 681 -28 q 572 7 604 -7 q 492 -18 549 -8 q 376 -28 435 -28 q 187 24 295 -28 q 109 -2 158 9 q 0 -14 60 -14 q -14 0 -14 -14 l -14 167 q 0 180 -14 180 q 111 190 73 180 q 174 222 150 199 q 230 301 198 245 l 256 346 q 284 375 267 363 q 323 387 302 387 z "},"ﺲ":{"ha":1697,"x_min":111,"x_max":1725,"o":"m 1711 -14 q 1577 15 1644 -14 q 1471 85 1510 43 q 1440 17 1447 26 q 1380 -15 1428 -3 q 1263 -28 1333 -28 q 1200 -17 1239 -28 q 1131 7 1160 -5 q 1050 -18 1107 -8 q 935 -28 993 -28 l 900 -25 l 903 -72 q 838 -273 903 -180 q 660 -419 772 -366 q 411 -472 547 -472 q 188 -386 264 -472 q 111 -136 111 -300 q 151 100 111 -52 l 224 82 q 201 -47 201 7 q 254 -221 201 -165 q 415 -278 306 -278 q 640 -243 549 -278 q 811 -134 730 -209 q 765 -41 789 -86 q 720 42 741 3 q 687 112 700 81 q 673 165 673 144 q 839 380 673 302 q 873 170 846 326 l 943 167 q 1007 171 985 167 q 1060 184 1028 174 q 1128 350 1079 218 l 1150 406 q 1180 440 1158 426 q 1230 454 1202 454 q 1287 436 1261 454 q 1221 235 1268 389 l 1198 161 l 1223 160 l 1243 160 q 1360 178 1303 160 q 1432 361 1379 209 l 1454 419 q 1484 454 1463 439 q 1535 468 1506 468 q 1592 452 1565 468 q 1537 288 1571 399 l 1518 224 q 1601 190 1556 200 q 1711 180 1647 180 q 1725 167 1725 180 l 1725 0 q 1711 -14 1725 -14 z "},"ص":{"ha":1849,"x_min":111,"x_max":1765,"o":"m 411 -472 q 188 -386 264 -472 q 111 -136 111 -300 q 151 100 111 -52 l 224 82 q 201 -47 201 7 q 254 -221 201 -165 q 415 -278 306 -278 q 640 -243 549 -278 q 811 -134 730 -209 q 765 -41 789 -86 q 720 42 741 3 q 687 112 700 81 q 673 165 673 144 q 839 380 673 302 q 865 208 848 313 l 916 193 q 1214 521 1086 417 q 1435 625 1342 625 q 1568 578 1492 625 q 1705 460 1645 531 q 1765 340 1765 389 q 1698 153 1765 235 q 1494 22 1631 71 q 1211 -28 1356 -28 q 1053 -18 1137 -28 q 897 11 968 -8 q 903 -72 903 -47 q 838 -273 903 -180 q 660 -419 772 -366 q 411 -472 547 -472 m 1394 433 q 1025 168 1253 433 q 1227 153 1125 153 q 1435 176 1337 153 q 1671 265 1534 200 q 1394 433 1525 433 z "},"ﺻ":{"ha":1299,"x_min":-14,"x_max":1215,"o":"m 313 390 q 364 374 339 390 l 334 296 l 300 214 q 366 193 330 202 q 664 521 536 417 q 885 625 792 625 q 1018 578 942 625 q 1155 460 1095 531 q 1215 340 1215 389 q 1148 153 1215 235 q 944 22 1081 71 q 661 -28 806 -28 q 414 -4 534 -28 q 218 60 294 20 l 207 46 q 123 3 181 20 q 0 -14 65 -14 q -14 0 -14 -14 l -14 167 q 0 180 -14 180 q 101 189 69 180 q 157 219 133 197 q 214 301 181 242 l 239 346 q 269 378 250 366 q 313 390 288 390 m 844 433 q 475 168 703 433 q 677 153 575 153 q 885 176 787 153 q 1121 265 984 200 q 844 433 975 433 z "},"ﺼ":{"ha":1382,"x_min":-14,"x_max":1410,"o":"m 1396 -14 q 1241 21 1316 -14 q 1112 115 1167 56 q 916 12 1040 51 q 661 -28 791 -28 q 414 -4 534 -28 q 218 60 294 20 l 207 46 q 123 3 181 20 q 0 -14 65 -14 q -14 0 -14 -14 l -14 167 q 0 180 -14 180 q 101 189 69 180 q 157 219 133 197 q 214 301 181 242 l 239 346 q 269 378 250 366 q 313 390 288 390 q 364 374 339 390 l 334 296 l 300 214 q 366 193 330 202 q 664 521 536 417 q 885 625 792 625 q 1018 578 942 625 q 1155 460 1095 531 q 1215 340 1215 389 q 1198 239 1215 291 q 1283 197 1237 213 q 1396 180 1330 180 q 1410 167 1410 180 l 1410 0 q 1396 -14 1410 -14 m 844 433 q 475 168 703 433 q 677 153 575 153 q 885 176 787 153 q 1121 265 984 200 q 844 433 975 433 z "},"ﺺ":{"ha":1939,"x_min":111,"x_max":1967,"o":"m 1952 -14 q 1799 22 1874 -14 q 1667 119 1723 57 q 1541 40 1615 73 q 1380 -10 1468 7 q 1211 -28 1293 -28 q 1053 -18 1137 -28 q 897 11 968 -8 q 903 -72 903 -47 q 838 -273 903 -180 q 660 -419 772 -366 q 411 -472 547 -472 q 188 -386 264 -472 q 111 -136 111 -300 q 151 100 111 -52 l 224 82 q 201 -47 201 7 q 254 -221 201 -165 q 415 -278 306 -278 q 640 -243 549 -278 q 811 -134 730 -209 q 765 -41 789 -86 q 720 42 741 3 q 687 112 700 81 q 673 165 673 144 q 839 380 673 302 q 865 208 848 313 l 916 193 q 1214 521 1086 417 q 1435 625 1342 625 q 1568 578 1492 625 q 1705 460 1645 531 q 1765 340 1765 389 q 1750 243 1765 288 q 1836 198 1789 215 q 1952 180 1884 180 q 1967 167 1967 180 l 1967 0 q 1952 -14 1967 -14 m 1394 433 q 1025 168 1253 433 q 1227 153 1125 153 q 1435 176 1337 153 q 1671 265 1534 200 q 1394 433 1525 433 z "},"ط":{"ha":1295,"x_min":56,"x_max":1211,"o":"m 657 -28 q 445 -21 564 -28 q 286 -1 326 -14 q 178 59 251 9 q 56 157 105 110 l 81 227 q 347 174 256 185 q 412 257 378 217 q 285 885 359 486 q 281 922 281 904 q 329 1037 281 991 q 447 1083 377 1083 q 513 882 475 980 l 461 842 l 497 359 q 712 561 619 497 q 880 625 806 625 q 1013 578 937 625 q 1151 460 1090 532 q 1211 340 1211 389 q 1144 153 1211 235 q 940 22 1077 71 q 657 -28 802 -28 m 840 433 q 464 160 700 433 q 673 153 537 153 q 881 176 783 153 q 1117 265 980 200 q 840 433 971 433 z "},"ﻃ":{"ha":1132,"x_min":-14,"x_max":1048,"o":"m 0 -14 q -14 0 -14 -14 l -14 167 q 0 180 -14 180 l 73 180 l 167 182 l 235 273 q 202 418 217 349 q 111 885 188 488 q 108 922 108 904 q 156 1037 108 991 q 273 1083 203 1083 q 339 882 302 980 l 288 842 l 322 383 q 717 653 553 653 q 823 630 768 653 q 929 562 878 606 q 1015 467 981 517 q 1048 387 1048 417 q 937 170 1048 258 q 600 34 825 81 q 0 -14 374 -14 m 676 454 q 296 184 528 454 l 469 193 q 817 258 615 201 l 942 293 q 846 389 888 355 q 765 439 804 424 q 676 454 727 454 z "},"ﻄ":{"ha":1153,"x_min":-14,"x_max":1181,"o":"m 0 -14 q -14 0 -14 -14 l -14 167 q 0 180 -14 180 l 73 180 l 167 182 l 235 273 q 202 418 217 349 q 111 885 188 488 q 108 922 108 904 q 156 1037 108 991 q 273 1083 203 1083 q 339 882 302 980 l 288 842 l 322 383 q 717 653 553 653 q 823 630 768 653 q 929 562 878 606 q 1015 467 981 517 q 1048 387 1048 417 q 993 225 1048 295 q 1166 180 1067 180 q 1181 167 1181 180 l 1181 0 q 1166 -14 1181 -14 q 1005 25 1083 -14 q 873 126 926 63 q 540 22 750 58 q 0 -14 330 -14 m 676 454 q 296 184 528 454 l 469 193 q 817 258 615 201 l 942 293 q 846 389 888 355 q 765 439 804 424 q 676 454 727 454 z "},"ﻂ":{"ha":1429,"x_min":111,"x_max":1457,"o":"m 713 -28 q 500 -21 620 -28 q 342 -1 381 -14 q 234 59 307 9 q 111 157 161 110 l 136 227 q 403 174 312 185 q 468 257 434 217 q 340 885 415 486 q 337 922 337 904 q 385 1037 337 991 q 503 1083 433 1083 q 568 882 531 980 l 517 842 l 553 359 q 768 561 675 497 q 936 625 861 625 q 1069 578 992 625 q 1206 460 1145 532 q 1267 340 1267 389 q 1249 237 1267 286 q 1333 196 1287 212 q 1443 180 1379 180 q 1457 167 1457 180 l 1457 0 q 1443 -14 1457 -14 q 1293 19 1367 -14 q 1161 114 1219 52 q 960 9 1084 47 q 713 -28 837 -28 m 896 433 q 519 160 755 433 q 729 153 593 153 q 937 176 838 153 q 1173 265 1036 200 q 896 433 1027 433 z "},"ع":{"ha":987,"x_min":111,"x_max":1043,"o":"m 624 -472 q 297 -365 409 -472 q 186 -46 186 -257 q 334 301 186 144 q 217 356 268 319 q 139 444 167 393 q 111 542 111 494 q 155 706 111 618 q 259 843 198 793 q 385 892 320 892 q 633 741 499 892 l 599 675 q 427 713 500 713 q 327 701 370 713 q 228 660 283 689 q 300 505 233 564 q 492 433 368 447 q 783 568 623 517 q 803 486 803 545 q 777 407 803 439 q 695 350 751 374 q 439 218 526 278 q 311 95 352 157 q 269 -28 269 33 q 371 -216 269 -146 q 628 -285 472 -285 q 804 -274 715 -285 q 1021 -233 892 -262 l 1043 -302 q 809 -419 935 -366 q 624 -472 684 -472 z "},"ﻋ":{"ha":844,"x_min":-14,"x_max":802,"o":"m 0 -14 q -14 0 -14 -14 l -14 167 q 0 180 -14 180 l 87 180 l 127 180 q 93 281 93 227 q 136 445 93 357 q 241 582 180 532 q 367 631 302 631 q 615 479 481 631 l 581 414 q 408 452 482 452 q 308 440 352 452 q 210 399 264 428 q 244 275 213 331 q 342 186 276 218 q 777 277 580 197 q 795 244 787 267 q 802 197 802 222 q 786 129 802 159 q 741 82 770 100 q 586 37 712 64 q 323 -2 460 10 q 0 -14 186 -14 z "},"ﻌ":{"ha":732,"x_min":-14,"x_max":760,"o":"m 743 -14 q 390 86 517 -14 q 198 9 294 33 q 1 -14 103 -14 q -14 1 -14 -14 l -14 165 q 1 180 -14 180 q 150 182 75 180 q 288 195 224 184 l 254 237 q 123 371 194 315 l 94 351 q 51 456 51 399 q 98 550 51 509 q 230 622 145 591 q 396 653 315 653 q 530 622 467 653 q 631 536 594 590 q 668 421 668 483 q 541 191 668 304 q 743 180 602 180 q 760 165 760 180 l 760 1 q 743 -14 760 -14 m 401 472 q 229 432 315 472 q 330 334 283 387 q 416 243 389 268 q 504 385 504 306 q 475 448 504 423 q 401 472 446 472 z "},"ﻊ":{"ha":779,"x_min":112,"x_max":962,"o":"m 790 -14 q 590 12 674 -14 q 441 92 505 37 q 308 -21 355 40 q 261 -139 261 -82 q 308 -276 261 -218 q 436 -365 354 -334 q 619 -396 519 -396 q 940 -351 745 -396 l 962 -421 l 901 -456 q 615 -583 690 -583 q 289 -478 400 -583 q 178 -163 178 -374 q 366 172 178 22 l 328 220 q 184 371 262 309 l 155 351 q 112 456 112 399 q 159 550 112 509 q 291 622 206 591 q 457 653 376 653 q 591 622 528 653 q 692 536 655 590 q 729 421 729 483 q 593 191 729 304 q 790 180 650 180 q 807 165 807 180 l 807 1 q 790 -14 807 -14 m 463 472 q 290 432 376 472 q 429 294 345 388 l 471 250 q 544 318 523 287 q 566 385 566 349 q 536 448 566 424 q 463 472 507 472 z "},"ﻛ":{"ha":724,"x_min":-14,"x_max":694,"o":"m 0 -14 q -14 0 -14 -14 l -14 167 q 0 180 -14 180 q 315 193 199 180 q 498 235 431 205 q 385 368 469 296 q 183 507 301 441 q 142 501 161 501 q 63 532 98 501 q 29 607 29 564 q 46 724 29 640 q 72 812 63 807 q 373 959 304 928 q 527 1027 441 990 q 663 1083 613 1063 q 694 1002 694 1053 q 672 924 694 961 q 609 866 649 887 q 486 808 569 845 q 320 743 402 772 q 123 682 238 714 q 351 581 245 650 q 519 422 456 511 q 582 254 582 333 q 518 111 582 171 q 322 18 455 50 q 0 -14 189 -14 z "},"ﻜ":{"ha":764,"x_min":-14,"x_max":791,"o":"m 243 212 q 199 318 220 277 q 59 513 103 425 q 16 681 16 602 q 37 758 16 719 q 94 815 58 798 q 371 944 240 886 q 701 1083 503 1002 q 736 1002 736 1050 q 711 923 736 959 q 647 869 686 888 q 402 763 520 808 q 94 654 285 718 q 336 395 263 464 q 480 275 408 327 q 623 202 551 224 q 778 180 694 180 q 791 167 791 180 l 791 0 q 778 -14 791 -14 q 638 -3 699 -14 q 526 31 576 8 q 434 89 475 54 q 332 182 392 123 q 294 77 324 124 q 150 10 221 33 q 0 -14 78 -14 q -14 0 -14 -14 l -14 167 q 0 180 -14 180 q 243 212 121 180 z "},"ك":{"ha":1010,"x_min":56,"x_max":913,"o":"m 432 -28 q 184 -18 313 -28 q 56 4 56 -7 q 68 107 56 48 q 97 200 80 166 q 273 176 165 184 q 463 167 380 167 q 829 199 648 167 l 767 451 q 693 772 715 653 q 671 916 671 890 q 722 1034 671 985 q 847 1083 774 1083 q 913 882 876 980 l 861 843 l 876 680 q 913 184 913 312 q 894 87 913 140 q 850 0 876 34 q 650 -20 770 -12 q 432 -28 530 -28 m 470 575 l 471 582 q 465 598 471 591 q 448 606 459 606 q 368 541 402 606 q 465 508 405 508 q 560 521 505 508 l 552 418 q 394 368 448 389 q 288 318 340 347 l 283 411 q 355 454 323 439 q 305 491 319 471 q 291 538 291 511 q 314 619 291 581 q 375 681 337 657 q 448 705 412 705 q 505 682 484 705 q 526 625 526 659 q 520 592 526 609 q 509 566 514 575 l 470 575 z "},"ﻚ":{"ha":1217,"x_min":111,"x_max":1244,"o":"m 551 167 q 766 177 669 167 q 968 211 863 188 q 871 1003 919 529 l 1065 1111 q 1051 227 1051 484 q 1128 192 1086 203 q 1231 180 1169 180 q 1244 167 1244 180 l 1244 0 q 1231 -14 1244 -14 q 1004 74 1061 -14 q 727 -6 839 16 q 517 -28 614 -28 q 276 -2 358 -28 q 152 82 193 24 q 111 235 111 139 q 119 324 111 268 q 134 407 127 380 l 207 404 q 201 343 201 368 q 234 237 201 274 q 339 183 267 199 q 551 167 411 167 m 646 587 l 647 593 q 641 610 647 603 q 624 617 635 617 q 545 553 578 617 q 641 519 581 519 q 736 532 681 519 l 728 429 q 570 379 624 401 q 464 330 517 358 l 460 422 q 531 465 500 450 q 481 503 496 483 q 467 550 467 523 q 490 630 467 592 q 551 693 513 669 q 624 717 589 717 q 681 694 661 717 q 702 636 702 671 q 696 604 702 621 q 685 578 690 587 l 646 587 z "},"ل":{"ha":1000,"x_min":111,"x_max":903,"o":"m 811 -134 l 773 73 l 729 314 l 696 505 l 633 885 l 631 917 q 683 1035 631 986 q 807 1083 734 1083 q 838 976 827 1008 q 872 882 848 945 l 821 842 q 869 334 840 581 q 892 112 882 214 q 903 -72 903 9 q 838 -273 903 -180 q 660 -419 772 -366 q 411 -472 547 -472 q 188 -386 264 -472 q 111 -136 111 -300 q 151 100 111 -52 l 224 82 q 201 -47 201 7 q 254 -221 201 -165 q 415 -278 306 -278 q 640 -243 549 -278 q 811 -134 730 -209 z "},"ﻟ":{"ha":355,"x_min":-14,"x_max":258,"o":"m 172 216 q 112 603 146 414 q 45 975 78 791 l 239 1083 q 251 604 244 813 q 258 245 258 395 q 243 141 258 191 q 195 37 229 90 q 127 0 179 14 q 0 -14 76 -14 q -14 0 -14 -14 l -14 167 q 0 180 -14 180 q 80 190 33 180 q 172 216 127 200 z "},"ﻠ":{"ha":400,"x_min":-14,"x_max":428,"o":"m 0 -14 q -14 0 -14 -14 l -14 167 q 0 180 -14 180 q 153 211 81 180 q 54 975 95 573 l 249 1083 l 242 774 q 235 227 235 490 q 315 191 273 201 q 414 180 357 180 q 428 167 428 180 l 428 0 q 414 -14 428 -14 q 214 43 276 -14 q 107 -1 156 12 q 0 -14 58 -14 z "},"ﻞ":{"ha":1008,"x_min":111,"x_max":1036,"o":"m 1022 -14 q 900 18 956 -14 l 903 -72 q 838 -273 903 -180 q 660 -419 772 -366 q 411 -472 547 -472 q 188 -386 264 -472 q 111 -136 111 -300 q 151 100 111 -52 l 224 82 q 201 -47 201 7 q 254 -221 201 -165 q 415 -278 306 -278 q 640 -243 549 -278 q 811 -134 730 -209 l 773 73 l 729 314 l 696 505 l 633 885 l 631 917 q 683 1035 631 986 q 807 1083 734 1083 q 838 976 827 1008 q 872 882 848 945 l 821 842 q 869 334 840 581 l 882 221 q 953 188 919 195 q 1022 180 987 180 q 1036 167 1036 180 l 1036 0 q 1022 -14 1036 -14 z "},"م":{"ha":821,"x_min":83,"x_max":765,"o":"m 121 -564 q 115 -394 121 -471 q 102 -253 109 -317 q 89 -133 95 -188 q 83 -28 83 -77 q 102 48 83 -4 q 153 165 121 100 q 236 193 158 176 q 406 220 314 210 q 561 232 498 231 q 509 292 532 261 q 465 349 486 323 q 422 391 444 374 q 378 407 401 407 q 304 379 340 407 q 228 296 268 351 l 161 330 q 276 526 210 454 q 408 597 342 597 q 484 567 447 597 q 568 469 522 537 q 670 336 623 389 q 765 250 716 283 l 690 56 q 418 38 566 56 q 189 -3 270 21 q 263 -360 212 -127 l 286 -472 q 121 -564 204 -532 z "},"ﻣ":{"ha":772,"x_min":-14,"x_max":696,"o":"m 599 -28 q 386 -4 496 -28 q 193 64 276 20 q 106 4 153 21 q 0 -14 60 -14 q -14 0 -14 -14 l -14 167 q 0 180 -14 180 q 197 301 135 180 q 293 469 257 419 q 368 544 330 518 q 453 570 407 570 q 565 511 509 570 q 658 351 621 453 q 696 157 696 249 q 666 58 696 113 q 599 -28 635 2 m 428 378 q 361 345 390 378 q 288 218 332 313 q 546 153 392 168 q 520 264 538 213 q 476 346 502 315 q 428 378 450 378 z "},"ﻤ":{"ha":675,"x_min":-14,"x_max":703,"o":"m 685 -14 q 538 49 602 -14 l 515 -28 q 324 -9 416 -28 q 175 41 232 9 q 0 -14 97 -14 q -14 0 -14 -14 l -14 167 q 0 180 -14 180 q 85 191 43 180 q 139 370 92 279 q 258 515 187 460 q 400 570 330 570 q 441 552 422 570 q 475 505 459 535 q 530 375 492 475 q 608 220 573 260 q 685 180 643 180 q 703 164 703 180 l 703 4 q 685 -14 703 -14 m 178 249 q 464 154 267 176 q 419 271 438 205 q 395 397 401 336 q 275 336 335 376 q 178 249 216 296 z "},"ﻢ":{"ha":907,"x_min":111,"x_max":935,"o":"m 747 -28 q 525 -2 628 -28 q 370 67 422 23 q 317 170 317 111 q 335 282 317 224 q 210 193 286 252 q 252 -59 225 79 q 306 -380 278 -194 q 140 -472 221 -442 q 126 -124 140 -323 q 111 138 111 75 q 135 225 111 165 q 180 330 158 286 q 256 394 186 342 q 394 485 325 446 q 525 547 463 524 q 632 570 586 570 q 673 552 654 570 q 707 505 691 535 q 762 375 724 475 q 840 220 805 260 q 917 180 875 180 q 935 164 935 180 l 935 4 q 917 -14 935 -14 q 770 49 833 -14 l 747 -28 m 410 249 q 696 154 499 176 q 651 271 670 205 q 627 397 633 336 q 507 336 567 376 q 410 249 448 296 z "},"ه":{"ha":694,"x_min":111,"x_max":611,"o":"m 111 192 q 258 478 111 331 l 252 484 q 216 568 216 507 q 230 632 216 602 q 267 675 243 662 q 437 580 358 646 q 564 431 517 514 q 611 273 611 347 q 592 186 611 243 q 545 81 572 129 q 496 18 518 34 q 419 -15 465 -3 q 325 -28 374 -28 q 172 34 233 -28 q 111 192 111 96 m 504 189 q 438 319 479 263 q 328 429 397 375 q 233 248 233 332 q 264 172 233 200 q 343 144 296 144 q 504 189 433 144 z "},"ﻫ":{"ha":843,"x_min":-14,"x_max":760,"o":"m 0 -14 q -14 0 -14 -14 l -14 170 q 0 180 -14 180 l 62 180 l 123 182 q 72 325 72 252 q 111 468 72 389 q 205 586 150 546 l 253 754 q 503 633 386 722 q 689 421 619 545 q 760 176 760 298 q 676 -43 760 100 q 464 -14 564 -39 q 286 52 364 11 q 0 -14 168 -14 m 155 326 q 300 222 214 262 l 301 224 q 354 278 332 240 q 375 364 375 317 q 349 433 375 401 q 293 464 323 464 q 155 326 210 464 m 481 359 q 429 178 481 257 q 668 135 508 157 q 579 322 629 245 q 463 456 530 399 q 481 359 481 407 z "},"ﻬ":{"ha":650,"x_min":-14,"x_max":677,"o":"m 546 -22 q 605 -74 581 -41 q 629 -140 629 -107 q 607 -224 629 -165 q 574 -296 585 -283 q 520 -331 557 -315 q 431 -347 484 -347 q 218 -272 303 -347 q 110 -60 133 -196 l 60 -83 l 43 -8 l 0 -14 q -14 0 -14 -14 l -14 167 q 0 180 -14 180 q 118 184 56 180 q 224 455 146 322 q 427 705 302 588 l 498 689 q 528 483 504 622 q 549 313 549 364 q 472 160 549 229 q 660 180 578 180 q 677 164 677 180 l 677 4 q 660 -14 677 -14 q 546 -22 602 -14 m 378 482 q 281 320 314 392 q 237 165 249 248 q 449 248 369 182 l 429 310 q 378 482 391 410 m 279 -14 l 241 -18 q 308 -148 258 -104 q 444 -191 357 -191 q 495 -183 475 -191 q 539 -161 515 -176 q 422 -52 491 -91 q 279 -14 353 -14 z "},"ﻪ":{"ha":761,"x_min":111,"x_max":789,"o":"m 464 35 q 360 46 394 40 q 289 65 327 53 q 167 131 222 91 q 111 199 111 170 q 138 297 111 220 q 185 400 165 374 q 246 463 205 427 q 338 531 288 498 q 440 589 388 564 l 435 621 l 432 653 q 521 722 490 701 q 602 772 552 743 l 600 458 l 602 224 q 775 180 681 180 q 789 167 789 180 l 789 0 q 775 -14 789 -14 q 616 18 677 -14 q 543 107 555 50 l 529 168 l 464 35 m 514 228 q 467 441 486 345 q 323 379 378 411 q 228 307 269 348 q 311 263 269 278 q 405 239 353 248 q 514 228 458 230 z "},"و":{"ha":811,"x_min":83,"x_max":728,"o":"m 728 118 q 673 -113 728 -5 q 524 -284 619 -222 q 319 -347 429 -347 q 214 -305 287 -347 q 83 -214 141 -263 l 110 -146 q 289 -168 197 -168 q 511 -105 416 -168 q 642 66 606 -41 l 640 73 l 640 79 q 531 -3 583 22 q 425 -28 479 -28 q 269 31 326 -28 q 212 197 212 90 q 246 376 212 290 q 335 516 279 463 q 452 570 391 570 q 583 507 522 570 q 686 332 645 444 q 728 118 728 221 m 457 151 q 612 180 529 151 q 528 323 578 273 q 422 374 479 374 q 334 337 369 374 q 300 252 300 300 q 340 177 300 203 q 457 151 381 151 z "},"ﻮ":{"ha":798,"x_min":83,"x_max":825,"o":"m 711 -14 q 563 -255 671 -162 q 319 -347 455 -347 q 214 -305 287 -347 q 83 -214 141 -263 l 110 -146 q 289 -168 197 -168 q 474 -126 390 -168 q 606 -11 559 -84 q 359 21 433 -3 q 249 99 285 46 q 214 232 214 151 q 249 413 214 326 q 340 552 285 500 q 452 604 395 604 q 573 550 515 604 q 671 396 630 496 q 724 180 713 296 l 811 180 q 825 167 825 180 l 825 0 q 811 -14 825 -14 l 711 -14 m 616 182 q 531 350 584 291 q 415 410 478 410 q 334 377 368 410 q 300 302 300 345 q 461 191 300 212 q 616 182 488 185 z "},"ى":{"ha":1039,"x_min":111,"x_max":983,"o":"m 975 -90 q 926 -213 975 -145 q 790 -342 876 -281 q 604 -438 704 -404 q 411 -472 505 -472 q 188 -386 264 -472 q 111 -136 111 -300 q 151 100 111 -52 l 224 82 q 201 -47 201 7 q 258 -219 201 -161 q 429 -278 315 -278 q 661 -232 536 -278 q 892 -106 787 -186 q 585 -46 675 -106 q 494 135 494 13 q 548 328 494 224 q 684 500 601 431 q 840 570 767 570 q 933 514 897 570 q 983 359 970 458 l 911 343 q 860 375 887 375 q 760 342 816 375 q 654 255 703 310 q 578 134 606 200 q 677 105 628 113 q 771 92 726 98 q 851 77 813 85 q 916 47 888 68 q 960 -12 944 26 q 975 -90 975 -50 z "},"ﻰ":{"ha":1128,"x_min":111,"x_max":1156,"o":"m 996 -163 q 803 -62 909 -128 q 696 28 696 3 q 710 81 696 45 q 750 162 724 117 q 782 207 775 207 q 1137 180 926 180 q 1156 163 1156 180 l 1156 3 q 1137 -14 1156 -14 q 1019 -7 1091 -14 q 889 14 946 0 l 939 -11 q 1033 -56 1007 -41 q 1068 -93 1058 -71 q 1079 -160 1079 -116 q 986 -302 1079 -229 q 746 -424 893 -375 q 467 -472 600 -472 q 202 -386 292 -472 q 111 -136 111 -300 q 151 100 111 -52 l 224 82 q 201 -47 201 7 q 271 -220 201 -163 q 485 -278 340 -278 q 770 -247 628 -278 q 996 -163 911 -216 z "},"ﻻ":{"ha":893,"x_min":56,"x_max":810,"o":"m 229 -28 q 225 -3 225 -28 q 234 94 225 35 q 250 153 243 153 l 294 152 l 317 153 q 532 375 469 273 q 212 621 404 503 l 153 616 q 56 764 56 666 q 80 843 56 808 q 146 901 105 878 q 365 719 237 836 q 586 493 492 601 q 602 604 602 546 q 568 843 602 650 q 550 968 550 942 q 597 1070 550 1030 q 722 1111 644 1109 q 748 1019 737 1053 q 787 909 759 984 l 734 869 l 741 685 q 664 397 741 538 q 759 264 737 298 q 795 204 781 231 q 810 167 810 178 q 782 68 810 135 q 745 0 754 1 q 556 -20 685 -12 q 229 -28 428 -28 m 703 184 l 602 302 q 456 158 541 229 q 703 184 590 165 z "},"ﻼ":{"ha":1031,"x_min":56,"x_max":1059,"o":"m 541 286 q 618 439 585 347 q 667 659 651 532 q 684 974 682 787 q 768 1027 721 996 q 857 1083 814 1058 q 864 227 857 650 q 945 191 903 201 q 1044 180 987 180 q 1059 167 1059 180 l 1059 0 q 1044 -14 1059 -14 q 872 24 937 -14 q 796 134 808 61 q 764 486 779 232 l 754 604 l 746 518 q 710 285 731 357 q 614 77 667 141 q 479 3 560 13 q 104 -22 298 -18 l 96 50 q 339 128 253 91 q 479 215 425 165 q 189 608 370 435 l 129 608 q 71 686 85 654 q 56 757 56 718 q 79 833 56 805 q 161 880 102 861 q 297 750 228 838 q 433 533 366 662 q 541 286 500 404 z "},"ـ":{"ha":163,"x_min":-14,"x_max":191,"o":"m 0 -14 q -14 0 -14 -14 l -14 167 q 0 180 -14 180 l 176 180 q 191 167 191 180 l 191 0 q 176 -14 191 -14 l 0 -14 z "},"ٮ":{"ha":1317,"x_min":167,"x_max":1251,"o":"m 566 -28 q 269 61 371 -28 q 167 321 167 149 q 178 415 167 359 q 199 500 190 471 l 272 500 l 270 482 l 267 419 q 305 270 267 323 q 423 192 344 216 q 625 167 502 167 q 906 193 770 167 q 1156 269 1043 220 q 1112 356 1134 317 q 1073 426 1090 395 q 1045 483 1056 458 q 1035 530 1035 509 q 1079 618 1035 570 q 1183 696 1124 667 l 1204 589 q 1251 317 1251 368 q 1187 119 1251 247 q 907 13 1076 53 q 566 -28 739 -28 z "},"ٯ":{"ha":1065,"x_min":111,"x_max":982,"o":"m 873 -111 q 851 72 869 -9 q 644 -28 751 -28 q 488 31 544 -28 q 432 197 432 90 q 466 376 432 290 q 555 516 499 463 q 671 570 610 570 q 830 501 758 570 q 942 308 902 433 q 982 22 982 183 q 939 -170 982 -81 q 814 -324 895 -258 q 623 -431 734 -391 q 411 -472 511 -472 q 188 -386 264 -472 q 111 -136 111 -300 q 151 100 111 -52 l 224 82 q 201 -47 201 7 q 258 -219 201 -161 q 429 -278 315 -278 q 648 -237 534 -278 q 873 -111 762 -196 m 676 151 q 822 176 747 151 q 744 320 790 267 q 642 374 697 374 q 554 337 589 374 q 519 252 519 300 q 560 177 519 203 q 676 151 600 151 z "},"٠":{"ha":586,"x_min":125,"x_max":461,"o":"m 125 311 q 186 422 157 368 q 250 529 214 476 q 404 429 346 474 q 461 361 461 384 q 346 164 461 332 q 125 311 231 253 z "},"١":{"ha":561,"x_min":125,"x_max":436,"o":"m 125 789 q 159 883 125 842 q 256 949 193 924 q 388 612 340 795 q 436 293 436 429 q 428 125 436 194 q 401 -28 420 56 l 310 -12 q 299 185 308 99 q 273 356 291 271 q 232 507 256 440 q 146 705 208 573 q 125 789 125 749 z "},"٢":{"ha":741,"x_min":126,"x_max":699,"o":"m 126 787 q 160 883 126 842 q 257 949 195 924 q 349 741 309 851 q 384 723 365 728 q 446 718 403 718 q 563 779 518 718 q 619 946 608 839 l 699 930 q 625 611 687 711 q 447 511 564 511 q 411 518 430 511 q 437 293 437 387 q 430 139 437 208 q 401 -28 423 70 l 310 -12 q 293 241 307 134 q 251 448 279 347 q 147 705 224 549 q 126 787 126 748 z "},"٣":{"ha":828,"x_min":126,"x_max":786,"o":"m 126 787 q 160 883 126 842 q 257 949 195 924 q 353 729 312 847 q 407 717 380 717 q 496 840 496 717 q 489 922 496 859 l 550 945 q 599 757 590 841 q 629 753 613 753 q 680 783 661 753 q 699 871 699 813 q 693 947 699 895 l 774 939 q 786 785 786 870 q 768 665 786 717 q 717 584 750 613 q 644 554 684 554 q 564 582 612 554 q 433 511 515 511 l 423 511 l 412 513 q 437 293 437 385 q 403 -28 437 127 l 311 -12 q 292 248 309 133 q 249 459 276 363 q 147 705 221 555 q 126 787 126 748 z "},"٤":{"ha":736,"x_min":111,"x_max":673,"o":"m 199 182 q 223 279 199 219 q 294 406 248 340 q 165 472 218 433 q 111 545 111 511 q 137 696 111 604 q 192 819 163 788 q 303 923 234 868 q 450 1017 372 977 q 468 939 468 983 q 452 847 468 890 q 414 786 435 804 q 354 741 382 760 q 225 665 325 721 q 313 621 271 639 q 432 581 356 602 l 482 475 l 454 444 q 341 309 385 368 q 298 233 298 250 q 346 185 298 201 q 473 168 393 168 q 650 184 595 168 l 673 143 q 655 120 665 136 q 554 -1 593 28 q 478 -31 515 -31 q 271 23 342 -31 q 199 182 199 76 z "},"٥":{"ha":657,"x_min":77,"x_max":581,"o":"m 77 307 q 121 561 77 429 q 232 780 165 692 q 359 868 299 868 q 473 819 425 868 q 551 667 522 769 q 581 446 581 566 q 545 221 581 293 q 437 89 503 137 q 300 40 372 40 q 130 106 183 40 q 77 307 77 172 m 323 253 q 384 263 356 253 q 433 293 411 274 q 471 340 455 313 q 486 383 486 368 q 465 514 486 455 q 405 607 443 574 q 323 640 368 640 q 256 594 292 640 q 197 483 220 548 q 174 370 174 418 q 209 284 174 316 q 323 253 245 253 z "},"٦":{"ha":778,"x_min":41,"x_max":673,"o":"m 530 -28 q 449 236 474 114 q 424 507 424 358 q 447 729 424 614 q 281 708 370 708 q 146 724 214 708 q 41 764 79 740 l 93 956 q 210 925 151 935 q 307 914 269 914 q 526 932 414 914 l 566 878 q 536 650 536 770 q 568 384 536 503 q 673 122 600 265 l 530 -28 z "},"٧":{"ha":793,"x_min":15,"x_max":779,"o":"m 363 -26 q 245 287 295 172 q 103 575 196 401 l 32 708 q 15 774 15 741 q 48 874 15 828 q 139 946 82 920 q 289 626 203 845 q 427 207 374 408 q 519 607 452 391 q 653 945 586 823 l 779 791 q 651 541 696 640 q 562 323 606 441 q 472 52 517 205 l 363 -26 z "},"٨":{"ha":793,"x_min":14,"x_max":778,"o":"m 431 946 q 542 645 488 772 q 690 345 596 517 l 761 211 q 778 144 778 178 q 744 44 778 91 q 654 -26 710 -2 q 493 319 581 87 q 366 711 406 551 q 273 314 338 526 q 140 -25 209 102 l 14 127 q 141 378 94 276 q 232 600 187 479 q 321 868 276 720 l 431 946 z "},"٩":{"ha":745,"x_min":69,"x_max":640,"o":"m 497 -29 q 419 213 444 104 q 389 431 394 321 q 313 419 344 419 q 132 482 195 419 q 69 665 69 545 q 105 796 69 722 q 194 921 141 870 q 293 971 246 971 q 453 879 397 971 q 509 615 509 787 q 536 371 509 474 q 640 121 564 269 l 497 -29 m 336 614 q 379 618 359 614 q 248 775 352 775 q 189 752 212 775 q 165 704 165 729 q 214 639 165 664 q 336 614 263 614 z "},"۴":{"ha":821,"x_min":125,"x_max":779,"o":"m 125 787 q 159 882 125 841 q 256 947 193 923 q 370 673 323 824 q 452 657 401 661 q 408 753 408 698 q 430 859 408 806 q 491 943 452 911 q 579 975 530 975 q 739 838 665 975 l 692 789 q 590 822 634 822 q 546 814 572 822 q 505 798 519 807 q 540 718 505 749 q 632 686 575 688 q 762 742 699 707 q 779 667 779 701 q 741 574 779 612 q 630 516 703 537 q 500 494 558 494 q 412 504 450 494 q 436 292 436 389 q 428 123 436 193 q 401 -29 420 54 l 310 -14 q 299 185 308 98 q 273 356 291 271 q 230 509 254 441 q 146 704 206 577 q 125 787 125 747 z "},"۵":{"ha":783,"x_min":77,"x_max":707,"o":"m 289 1004 q 534 738 450 852 q 662 507 618 624 q 707 267 707 390 q 681 110 707 178 q 609 6 655 42 q 505 -31 563 -31 q 433 -5 465 -31 q 390 60 400 20 q 353 -5 384 20 q 279 -31 323 -31 q 131 47 186 -31 q 77 262 77 125 q 116 488 77 374 q 249 734 155 602 q 230 806 230 762 q 247 909 230 855 q 289 1004 264 964 m 172 298 q 199 205 172 241 q 273 168 227 168 q 328 192 309 168 q 355 288 347 216 l 429 318 q 451 204 429 240 q 518 168 473 168 q 584 195 560 168 q 608 272 608 222 q 335 659 608 420 q 172 298 172 456 z "},"۶":{"ha":762,"x_min":97,"x_max":713,"o":"m 97 92 q 203 269 160 201 q 294 399 246 337 q 163 483 214 427 q 111 606 111 538 q 149 766 111 682 q 245 896 187 850 q 366 942 303 942 q 472 910 420 942 q 602 789 524 878 l 562 718 q 383 758 458 758 q 310 745 352 758 q 222 704 267 732 q 293 589 241 625 q 453 547 345 553 q 701 692 568 629 q 713 590 713 647 q 707 531 713 550 q 675 488 701 513 q 599 426 649 463 q 398 269 460 324 q 281 147 336 213 q 161 -12 227 81 l 97 92 z "},"ﮨ":{"ha":450,"x_min":-14,"x_max":387,"o":"m 283 -334 q 223 -304 245 -330 q 201 -244 201 -278 q 229 -125 201 -186 q 309 5 256 -64 l 358 -25 q 300 -171 300 -106 q 317 -212 300 -196 q 375 -240 335 -228 q 345 -287 362 -267 q 310 -320 328 -307 q 283 -334 292 -334 m 0 -14 q -14 0 -14 -14 l -14 167 q 0 180 -14 180 q 161 193 79 180 q 292 227 242 205 q 248 313 270 274 q 209 383 227 351 q 181 440 192 414 q 171 488 171 466 q 216 576 171 528 q 319 653 260 625 l 340 547 q 387 273 387 326 q 323 77 387 204 q 0 -14 172 -14 z "},"ﮩ":{"ha":673,"x_min":-14,"x_max":701,"o":"m 319 -385 q 161 -212 229 -321 q 90 4 94 -103 q 0 -14 50 -14 q -14 0 -14 -14 l -14 167 q 0 180 -14 180 q 67 200 36 180 q 111 252 98 220 q 152 306 125 284 q 212 328 179 328 q 279 298 248 328 q 256 96 256 182 q 279 -55 256 12 q 357 -204 302 -122 q 412 -1 372 -90 q 517 134 452 87 q 684 180 582 180 q 701 164 701 180 l 701 4 q 684 -14 701 -14 q 564 -21 618 -14 q 484 -40 509 -28 q 460 -162 465 -115 q 453 -296 454 -210 l 319 -385 m 582 -371 q 522 -341 544 -367 q 500 -282 500 -315 q 509 -208 500 -239 q 540 -138 519 -176 q 599 -50 561 -100 l 648 -81 q 599 -208 599 -146 q 616 -249 599 -233 q 673 -278 633 -265 q 644 -325 661 -305 q 608 -358 627 -345 q 582 -371 589 -371 z "},"ھ":{"ha":1095,"x_min":56,"x_max":1011,"o":"m 252 -14 q 160 31 225 -14 q 56 119 94 75 l 87 184 q 268 167 165 167 q 382 172 338 167 q 323 325 323 246 q 362 468 323 389 q 457 586 401 546 l 504 754 q 754 633 637 722 q 941 421 871 544 q 1011 176 1011 298 q 928 -43 1011 100 q 716 -14 816 -39 q 538 52 616 11 q 252 -14 419 -14 m 407 326 q 551 222 465 262 l 553 224 q 606 280 585 241 q 627 364 627 320 q 601 433 627 401 q 545 464 574 464 q 468 430 501 464 q 407 326 435 396 m 732 359 q 681 178 732 256 q 920 135 760 157 q 826 328 876 253 q 714 456 777 403 q 732 359 732 409 z "},"ے":{"ha":1320,"x_min":111,"x_max":1263,"o":"m 684 -28 q 415 -14 545 -28 q 198 24 284 0 q 111 68 111 47 q 143 202 111 98 q 191 322 176 307 q 283 389 223 356 q 418 444 343 422 q 587 555 551 481 l 657 525 q 498 330 609 380 q 370 283 444 307 q 235 235 296 260 q 432 181 330 195 q 704 167 534 167 q 975 188 830 167 q 1231 241 1120 208 q 1263 157 1263 204 q 1242 91 1263 118 q 1193 48 1222 63 q 1069 14 1163 33 q 872 -17 976 -5 q 684 -28 768 -28 z "},"ﮯ":{"ha":860,"x_min":83,"x_max":998,"o":"m 193 -134 q 549 -180 359 -180 q 761 -172 664 -180 q 974 -143 857 -164 q 998 -208 998 -171 q 967 -286 998 -252 q 895 -326 937 -320 q 538 -347 757 -347 q 329 -331 433 -347 q 154 -290 224 -315 q 83 -249 83 -266 q 106 -138 83 -230 q 139 -39 130 -46 q 442 126 255 71 q 897 180 629 180 q 916 163 916 180 l 916 3 q 897 -14 916 -14 q 670 -22 779 -14 q 458 -54 562 -31 q 193 -134 354 -77 z "},"ک":{"ha":1211,"x_min":111,"x_max":1182,"o":"m 492 -28 q 261 -2 338 -28 q 148 80 184 23 q 111 235 111 136 q 119 324 111 268 q 134 407 127 380 l 207 404 q 201 343 201 368 q 234 237 201 274 q 339 183 267 199 q 551 167 411 167 q 811 180 713 167 q 987 233 909 194 q 873 367 956 295 q 671 507 791 439 q 629 501 650 501 q 551 532 585 501 q 517 607 517 564 q 534 724 517 640 q 559 812 551 807 q 860 959 792 928 q 1015 1027 928 990 q 1150 1083 1101 1063 q 1182 1002 1182 1053 q 1159 924 1182 961 q 1097 866 1137 887 q 973 808 1057 845 q 808 743 890 772 q 611 682 726 714 q 839 581 733 650 q 1007 422 944 511 q 1069 254 1069 333 q 1004 105 1069 168 q 803 7 939 43 q 492 -28 668 -28 z "},"ﮏ":{"ha":1296,"x_min":127,"x_max":1324,"o":"m 489 -28 q 265 -2 338 -28 q 160 80 193 23 q 127 235 127 136 q 150 407 127 300 l 224 404 q 218 343 218 368 q 287 206 218 245 q 521 167 355 167 q 655 179 585 167 q 775 212 726 192 q 730 318 747 288 q 593 511 638 421 q 547 681 547 600 q 569 759 547 720 q 627 815 591 798 q 1234 1083 883 941 q 1268 1002 1268 1050 q 1243 923 1268 959 q 1179 869 1218 888 q 930 761 1053 808 q 627 654 807 714 q 833 429 777 486 q 960 315 889 373 q 1134 209 1055 237 q 1310 180 1213 180 q 1324 167 1324 180 l 1324 0 q 1310 -14 1324 -14 q 1150 1 1219 -14 q 1026 47 1081 16 q 863 182 970 77 q 822 65 855 122 q 674 1 772 29 q 489 -28 576 -28 z "},"گ":{"ha":1211,"x_min":111,"x_max":1182,"o":"m 492 -28 q 261 -2 338 -28 q 148 80 184 23 q 111 235 111 136 q 119 324 111 268 q 134 407 127 380 l 207 404 q 201 343 201 368 q 234 237 201 274 q 339 183 267 199 q 551 167 411 167 q 811 180 713 167 q 987 233 909 194 q 873 367 956 295 q 671 507 791 439 q 629 501 650 501 q 551 532 585 501 q 517 607 517 564 q 534 724 517 640 q 559 812 551 807 q 860 959 792 928 q 1015 1027 928 990 q 1150 1083 1101 1063 q 1182 1002 1182 1053 q 1159 924 1182 961 q 1097 866 1137 887 q 973 808 1057 845 q 808 743 890 772 q 611 682 726 714 q 839 581 733 650 q 1007 422 944 511 q 1069 254 1069 333 q 1004 105 1069 168 q 803 7 939 43 q 492 -28 668 -28 m 530 861 q 519 925 519 907 q 522 935 519 933 l 685 1015 l 1095 1210 q 1117 1168 1117 1193 l 1116 1158 q 1076 1114 1109 1128 q 530 861 753 968 z "},"ﮔ":{"ha":724,"x_min":-14,"x_max":694,"o":"m 0 -14 q -14 0 -14 -14 l -14 167 q 0 180 -14 180 q 315 193 199 180 q 498 235 431 205 q 385 368 469 296 q 183 507 301 441 q 142 501 161 501 q 63 532 98 501 q 29 607 29 564 q 46 724 29 640 q 72 812 63 807 q 373 959 304 928 q 527 1027 441 990 q 663 1083 613 1063 q 694 1002 694 1053 q 672 924 694 961 q 609 866 649 887 q 486 808 569 845 q 320 743 402 772 q 123 682 238 714 q 351 581 245 650 q 519 422 456 511 q 582 254 582 333 q 518 111 582 171 q 322 18 455 50 q 0 -14 189 -14 m 36 861 q 25 925 25 907 q 28 935 25 933 l 191 1015 l 600 1210 q 623 1168 623 1193 l 622 1158 q 582 1114 615 1128 q 36 861 258 968 z "},"ﮕ":{"ha":764,"x_min":-14,"x_max":791,"o":"m 243 212 q 199 318 220 277 q 59 513 103 425 q 16 681 16 602 q 37 758 16 719 q 94 815 58 798 q 371 944 240 886 q 701 1083 503 1002 q 736 1002 736 1050 q 711 923 736 959 q 647 869 686 888 q 402 763 520 808 q 94 654 285 718 q 336 395 263 464 q 480 275 408 327 q 623 202 551 224 q 778 180 694 180 q 791 167 791 180 l 791 0 q 778 -14 791 -14 q 638 -3 699 -14 q 526 31 576 8 q 434 89 475 54 q 332 182 392 123 q 294 77 324 124 q 150 10 221 33 q 0 -14 78 -14 q -14 0 -14 -14 l -14 167 q 0 180 -14 180 q 243 212 121 180 m 7 861 q -4 925 -4 907 q -1 935 -4 933 l 161 1015 l 571 1210 q 593 1168 593 1193 l 593 1158 q 553 1114 586 1128 q 7 861 229 968 z "},"ﮓ":{"ha":1296,"x_min":127,"x_max":1324,"o":"m 489 -28 q 265 -2 338 -28 q 160 80 193 23 q 127 235 127 136 q 150 407 127 300 l 224 404 q 218 343 218 368 q 287 206 218 245 q 521 167 355 167 q 655 179 585 167 q 775 212 726 192 q 730 318 747 288 q 593 511 638 421 q 547 681 547 600 q 569 759 547 720 q 627 815 591 798 q 1234 1083 883 941 q 1268 1002 1268 1050 q 1243 923 1268 959 q 1179 869 1218 888 q 930 761 1053 808 q 627 654 807 714 q 833 429 777 486 q 960 315 889 373 q 1134 209 1055 237 q 1310 180 1213 180 q 1324 167 1324 180 l 1324 0 q 1310 -14 1324 -14 q 1150 1 1219 -14 q 1026 47 1081 16 q 863 182 970 77 q 822 65 855 122 q 674 1 772 29 q 489 -28 576 -28 m 511 861 q 500 925 500 907 q 503 935 500 933 l 665 1015 l 1075 1210 q 1097 1168 1097 1193 l 1097 1158 q 1057 1114 1090 1128 q 511 861 733 968 z "},"ں":{"ha":986,"x_min":111,"x_max":903,"o":"m 411 -472 q 188 -386 264 -472 q 111 -136 111 -300 q 151 100 111 -52 l 224 82 q 201 -47 201 7 q 254 -221 201 -165 q 415 -278 306 -278 q 640 -243 549 -278 q 811 -134 730 -209 q 765 -41 789 -86 q 720 42 741 3 q 687 112 700 81 q 673 165 673 144 q 839 380 673 302 q 857 262 846 323 q 878 141 868 201 q 896 27 888 82 q 903 -72 903 -27 q 838 -273 903 -180 q 660 -419 772 -366 q 411 -472 547 -472 z "},"ﮟ":{"ha":979,"x_min":111,"x_max":1007,"o":"m 993 -14 q 897 5 945 -14 q 903 -72 903 -51 q 838 -273 903 -180 q 660 -419 772 -366 q 411 -472 547 -472 q 188 -386 264 -472 q 111 -136 111 -300 q 151 100 111 -52 l 224 82 q 201 -47 201 7 q 254 -221 201 -165 q 415 -278 306 -278 q 640 -243 549 -278 q 811 -134 730 -209 q 765 -41 789 -86 q 720 42 741 3 q 687 112 700 81 q 673 165 673 144 q 839 380 673 302 q 865 212 848 310 q 993 180 921 180 q 1007 167 1007 180 l 1007 0 q 993 -14 1007 -14 z "},"٪":{"ha":770,"x_min":56,"x_max":714,"o":"m 216 -14 q 150 94 167 28 q 377 551 250 302 q 581 939 504 800 q 616 896 603 923 q 629 838 629 869 q 610 764 629 800 q 414 388 532 623 q 216 -14 296 153 m 56 730 q 111 831 85 782 q 170 929 137 881 q 309 839 256 880 q 361 777 361 798 q 257 597 361 748 q 166 663 201 640 q 56 730 132 687 m 408 123 q 464 224 437 175 q 522 322 490 274 q 665 229 615 269 q 714 170 714 189 q 610 -9 714 142 q 519 56 554 33 q 408 123 484 80 z "},"؟":{"ha":764,"x_min":52,"x_max":688,"o":"m 52 750 q 145 936 52 866 q 392 1006 239 1006 q 609 963 531 1006 q 688 844 688 920 q 634 772 688 798 q 492 747 581 747 q 463 878 492 833 q 380 922 434 922 q 299 884 327 922 q 272 772 272 845 q 321 597 272 666 q 468 488 370 528 l 440 317 l 355 317 l 328 443 q 114 576 177 505 q 52 750 52 648 m 514 100 q 400 -11 514 -11 q 316 18 345 -11 q 286 100 286 46 q 400 211 286 211 q 514 100 514 211 z "},"،":{"ha":408,"x_min":56,"x_max":304,"o":"m 56 125 q 118 294 56 224 q 304 397 181 364 l 304 325 q 209 276 237 300 q 182 216 182 252 q 208 180 182 196 l 233 164 q 283 68 283 132 q 255 -3 283 21 q 183 -28 226 -28 q 90 13 125 -28 q 56 125 56 54 z "},"؛":{"ha":408,"x_min":79,"x_max":328,"o":"m 97 83 q 211 195 97 195 q 325 83 325 195 q 295 0 325 28 q 211 -28 265 -28 q 97 83 97 -28 m 79 525 q 142 694 79 625 q 328 798 205 764 l 328 725 q 231 675 256 699 q 205 616 205 651 q 215 593 205 602 q 256 564 224 583 q 307 468 307 533 q 278 397 307 421 q 207 372 250 372 q 114 413 148 372 q 79 525 79 454 z "},"٫":{"ha":408,"x_min":62,"x_max":311,"o":"m 311 58 q 247 -112 311 -43 q 62 -214 183 -181 l 62 -142 q 158 -93 131 -117 q 184 -33 184 -69 q 173 -8 184 -19 q 134 20 162 3 q 83 115 83 49 q 112 186 83 162 q 183 211 140 211 q 277 170 242 211 q 311 58 311 130 z "},"٬":{"ha":389,"x_min":78,"x_max":326,"o":"m 78 123 q 141 293 78 223 q 326 396 203 363 l 326 323 q 231 275 258 299 q 204 215 204 251 q 231 178 204 195 l 255 163 q 306 66 306 131 q 277 -5 306 20 q 205 -29 248 -29 q 112 12 146 -29 q 78 123 78 52 z "},"٭":{"ha":654,"x_min":29,"x_max":625,"o":"m 625 524 l 454 392 l 511 184 l 503 179 l 325 297 l 147 179 l 139 184 l 197 392 l 29 524 l 33 534 l 245 543 l 321 745 l 332 745 l 406 543 l 621 534 l 625 524 z "},"ً":{"ha":0,"x_min":-60,"x_max":338,"o":"m 334 896 q 338 862 338 878 q 289 789 338 812 q -39 669 164 731 l -28 770 q 334 896 151 821 m 310 1046 q 313 1019 313 1032 q 298 967 313 990 q 258 932 283 943 q -60 823 123 875 l -52 920 q 310 1046 155 983 z "},"ٍ":{"ha":0,"x_min":-60,"x_max":338,"o":"m 334 -232 q 338 -266 338 -250 q 289 -339 338 -316 q -39 -458 164 -397 l -28 -358 q 334 -232 151 -307 m 310 -82 q 313 -109 313 -96 q 298 -161 313 -138 q 258 -196 283 -184 q -60 -304 123 -253 l -52 -208 q 310 -82 155 -145 z "},"َ":{"ha":0,"x_min":-39,"x_max":338,"o":"m 334 916 q 338 881 338 897 q 327 837 338 859 q 289 802 316 814 q -39 682 172 747 l -26 789 q 334 916 142 837 z "},"ُ":{"ha":0,"x_min":-71,"x_max":293,"o":"m -71 708 q 111 770 37 726 q 39 869 39 808 q 80 964 39 918 q 165 1010 121 1010 q 222 969 199 1010 q 245 865 245 928 q 237 811 245 838 q 293 808 256 808 q 208 745 293 745 l 191 745 q 89 667 142 699 q 3 635 35 635 q -71 708 -71 635 m 103 895 q 172 828 103 851 q 180 860 180 846 q 168 906 180 887 q 140 925 155 925 q 116 915 128 925 q 103 895 103 904 z "},"ٌ":{"ha":0,"x_min":-131,"x_max":321,"o":"m 31 635 q -5 656 26 635 q -36 681 -36 677 l -34 688 q -24 741 -24 722 q -45 762 -24 762 q -106 734 -60 762 l -131 764 q -69 828 -98 806 q -18 850 -39 850 q 26 830 8 850 q 45 783 45 811 q 39 729 45 752 q 140 770 106 748 q 88 811 110 785 q 66 869 66 836 q 108 964 66 918 q 193 1010 149 1010 q 250 969 227 1010 q 273 865 273 928 q 265 811 273 838 q 321 808 283 808 q 236 745 321 745 l 218 745 q 116 667 170 699 q 31 635 62 635 m 131 895 q 200 828 131 851 q 208 860 208 846 q 196 904 208 884 q 168 925 184 925 q 143 915 156 925 q 131 895 131 904 z "},"ِ":{"ha":0,"x_min":-39,"x_max":338,"o":"m 334 -123 q 338 -158 338 -142 q 327 -202 338 -180 q 289 -237 316 -225 q -39 -357 172 -292 l -26 -250 q 334 -123 142 -202 z "},"ّ":{"ha":0,"x_min":-53,"x_max":297,"o":"m 261 956 q 287 889 276 926 q 297 827 297 851 q 266 741 297 780 q 189 703 234 703 q 129 730 155 703 q 88 681 113 699 q 36 663 63 663 q -28 687 -3 663 q -53 758 -53 712 q -28 848 -53 803 l 7 842 q 1 789 1 813 q 40 743 1 743 q 71 756 59 743 q 83 793 83 770 l 81 860 l 135 893 q 157 807 142 831 q 203 783 173 783 q 221 789 212 783 q 233 802 230 794 q 204 869 224 830 q 201 886 201 878 q 220 932 201 910 q 261 956 239 954 z "},"ْ":{"ha":0,"x_min":11,"x_max":236,"o":"m 119 685 q 41 721 72 685 q 11 810 11 756 q 27 884 11 852 q 70 933 43 916 q 122 951 96 951 q 176 933 149 951 q 219 884 203 916 q 236 808 236 852 q 200 721 236 756 q 119 685 163 685 m 180 810 q 171 832 180 819 q 148 856 162 846 q 113 865 133 865 q 80 852 95 865 q 65 821 65 838 q 80 786 65 800 q 123 772 96 772 q 163 785 145 772 q 180 810 180 798 z "},"ٓ":{"ha":0,"x_min":-164,"x_max":395,"o":"m 204 893 q 99 904 149 893 q -7 935 50 916 q -127 885 -74 913 l -164 936 q -70 1018 -115 988 q 4 1047 -24 1047 q 38 1042 17 1047 q 87 1030 60 1036 q 145 1018 114 1023 q 211 1013 177 1013 q 285 1023 243 1013 q 363 1050 326 1033 l 395 1003 q 295 923 349 953 q 204 893 242 893 z "},"ٔ":{"ha":0,"x_min":-28,"x_max":235,"o":"m 150 991 l 151 996 q 125 1015 151 1015 q 54 965 80 1015 q 155 928 92 928 q 235 937 189 928 l 227 847 q 104 813 156 831 q -22 755 53 795 l -28 840 l 46 884 q -20 962 -20 909 q 3 1037 -20 998 q 60 1100 26 1076 q 123 1125 94 1125 q 199 1034 199 1125 q 189 985 199 1007 l 150 991 z "},"ٕ":{"ha":0,"x_min":28,"x_max":290,"o":"m 205 -158 l 206 -153 q 180 -134 206 -134 q 110 -184 136 -134 q 210 -222 147 -222 q 290 -212 245 -222 l 282 -302 q 160 -337 212 -319 q 33 -394 109 -355 l 28 -309 l 102 -266 q 36 -187 36 -241 q 59 -113 36 -152 q 116 -49 81 -74 q 179 -24 150 -24 q 254 -116 254 -24 q 245 -165 254 -142 l 205 -158 z "},"ٰ":{"ha":0,"x_min":-46,"x_max":66,"o":"m 40 1057 q 61 921 56 976 q 66 794 66 866 q 51 714 66 755 q 8 640 36 673 l -9 647 q -40 919 -9 797 q -46 958 -46 941 q -22 1015 -46 987 q 40 1057 3 1043 z "},"ٖ":{"ha":0,"x_min":-46,"x_max":66,"o":"m 40 -126 q 61 -262 56 -208 q 66 -389 66 -317 q 51 -470 66 -429 q 8 -543 36 -511 l -9 -536 q -40 -264 -9 -387 q -46 -225 -46 -242 q -22 -168 -46 -196 q 40 -126 3 -140 z "},"ؕ":{"ha":0,"x_min":-172,"x_max":328,"o":"m -155 618 q -71 604 -109 608 l -28 661 l -50 751 q -84 909 -84 890 q -58 962 -84 941 q 16 991 -32 984 q 49 895 35 928 l 31 880 l 33 802 l 31 724 q 170 802 116 802 q 231 777 195 802 q 297 712 266 753 q 328 647 328 671 q 291 557 328 600 q 198 490 254 515 q 92 465 142 465 q 10 474 49 465 q -64 497 -28 482 q -172 553 -100 512 l -155 618 m 158 679 q 85 657 125 679 q 7 596 45 635 q 96 591 54 591 q 258 623 177 591 q 214 663 242 648 q 158 679 185 679 z "},"ﺪ":{"ha":793,"x_min":56,"x_max":821,"o":"m 807 -14 q 697 6 742 -14 q 616 61 652 25 q 275 -28 430 -28 q 56 100 56 -28 q 68 170 56 134 q 104 232 81 205 q 197 182 144 198 q 326 167 250 167 q 524 189 427 167 q 426 386 469 280 q 383 545 383 492 q 413 649 383 606 q 497 708 443 692 q 597 375 546 502 q 689 214 649 248 q 807 180 729 180 q 821 167 821 180 l 821 0 q 807 -14 821 -14 z "},"ہ":{"ha":704,"x_min":111,"x_max":732,"o":"m 714 -14 q 618 -2 659 -14 q 548 28 578 10 q 496 67 518 46 q 457 105 475 87 q 422 135 439 123 q 386 147 406 147 q 164 -14 294 147 l 111 31 q 440 363 309 363 q 502 341 472 363 q 568 272 531 319 q 640 202 605 224 q 714 180 674 180 q 732 164 732 180 l 732 4 q 714 -14 732 -14 z "},"چ":{"ha":1071,"x_min":111,"x_max":1029,"o":"m 335 496 q 277 491 302 496 q 230 477 252 486 q 149 432 208 468 q 122 475 134 447 q 111 530 111 504 q 171 648 111 606 q 329 690 230 690 q 440 677 382 690 q 591 630 498 664 q 741 584 675 599 q 875 570 808 570 l 907 570 q 1023 572 988 570 l 957 389 q 836 383 913 383 q 762 386 798 383 q 515 296 637 361 q 325 145 394 231 q 256 -28 256 60 q 357 -216 256 -146 q 614 -285 458 -285 q 788 -274 700 -285 q 1007 -233 877 -263 l 1029 -302 q 785 -423 903 -374 q 610 -472 667 -472 q 283 -365 395 -472 q 172 -46 172 -257 q 266 239 172 105 q 513 449 359 372 q 418 481 461 467 q 335 496 374 496 m 644 111 q 519 -31 602 47 q 380 97 431 39 q 487 205 430 142 l 516 237 q 644 111 564 184 m 944 142 q 821 -1 900 75 q 682 127 730 69 q 817 268 730 173 q 944 142 852 230 m 808 -96 q 687 -212 722 -188 q 555 -96 615 -165 q 680 33 625 -31 q 740 -35 704 1 q 808 -96 777 -72 z "},"ﭻ":{"ha":1197,"x_min":111,"x_max":1225,"o":"m 1211 -14 q 978 11 1074 -14 q 882 66 882 35 q 901 183 882 98 l 838 195 q 550 104 684 174 q 347 -57 416 35 q 278 -253 278 -149 q 285 -331 278 -296 q 314 -425 292 -365 l 215 -471 q 178 -351 193 -415 q 164 -241 164 -286 q 269 80 164 -54 q 579 289 373 214 l 519 325 q 425 370 467 356 q 342 385 383 385 q 253 372 294 385 q 149 321 212 360 q 123 365 134 335 q 111 419 111 394 q 141 503 111 467 q 223 559 170 538 q 336 579 275 579 q 458 561 400 579 q 581 503 517 542 q 771 400 701 428 q 937 357 841 373 q 1139 340 1033 340 l 1064 183 q 1211 180 1102 180 q 1225 167 1225 180 l 1225 0 q 1211 -14 1225 -14 m 649 -153 q 524 -294 606 -217 q 385 -167 436 -224 q 492 -58 435 -121 l 521 -26 q 649 -153 569 -79 m 949 -122 q 825 -265 905 -189 q 686 -136 735 -195 q 821 4 735 -91 q 949 -122 857 -34 m 813 -360 q 692 -475 727 -452 q 560 -360 620 -429 q 685 -231 629 -295 q 745 -299 709 -262 q 813 -360 781 -336 z "},"أ":{"ha":464,"x_min":82,"x_max":375,"o":"m 319 749 l 319 606 l 311 0 l 205 -14 q 159 661 172 539 q 140 852 140 822 q 189 955 140 916 q 309 993 237 993 q 375 791 338 890 l 319 749 m 260 1221 l 260 1225 q 235 1244 260 1244 q 164 1194 190 1244 q 264 1157 201 1157 q 345 1166 299 1157 l 336 1076 q 214 1042 266 1060 q 87 985 163 1024 l 82 1069 l 156 1113 q 90 1192 90 1138 q 113 1266 90 1227 q 170 1330 136 1305 q 233 1354 204 1354 q 309 1263 309 1354 q 299 1214 309 1236 l 260 1221 z "},"ﺄ":{"ha":471,"x_min":89,"x_max":498,"o":"m 319 991 l 315 836 q 305 227 305 497 q 386 191 344 201 q 484 180 427 180 q 498 167 498 180 l 498 0 q 484 -14 498 -14 q 312 24 376 -14 q 236 134 248 61 q 194 397 214 262 q 132 886 174 531 l 319 991 m 267 1221 l 267 1225 q 241 1244 267 1244 q 171 1194 197 1244 q 271 1157 208 1157 q 351 1166 306 1157 l 343 1076 q 221 1042 273 1060 q 94 985 170 1024 l 89 1069 l 163 1113 q 97 1192 97 1138 q 120 1266 97 1227 q 177 1330 142 1305 q 240 1354 211 1354 q 315 1263 315 1354 q 306 1214 315 1236 l 267 1221 z "},"إ":{"ha":485,"x_min":125,"x_max":401,"o":"m 304 749 l 304 606 l 296 0 l 191 -14 q 144 661 157 539 q 125 852 125 822 q 174 955 125 916 q 294 993 222 993 q 360 791 323 890 l 304 749 m 317 -199 l 317 -195 q 292 -176 317 -176 q 221 -226 247 -176 q 321 -263 258 -263 q 401 -254 356 -263 l 393 -344 q 271 -378 323 -360 q 144 -435 220 -396 l 139 -351 l 213 -307 q 147 -229 147 -282 q 170 -154 147 -193 q 227 -91 193 -115 q 290 -66 261 -66 q 366 -157 366 -66 q 356 -206 366 -184 l 317 -199 z "},"ﺈ":{"ha":471,"x_min":132,"x_max":498,"o":"m 319 991 l 315 836 q 305 227 305 497 q 386 191 344 201 q 484 180 427 180 q 498 167 498 180 l 498 0 q 484 -14 498 -14 q 312 24 376 -14 q 236 134 248 61 q 194 397 214 262 q 132 886 174 531 l 319 991 m 401 -199 l 402 -195 q 376 -176 402 -176 q 306 -226 332 -176 q 406 -263 343 -263 q 486 -254 441 -263 l 478 -344 q 356 -378 408 -360 q 229 -435 304 -396 l 224 -351 l 298 -307 q 232 -229 232 -282 q 255 -154 232 -193 q 312 -91 277 -115 q 375 -66 346 -66 q 450 -157 450 -66 q 441 -206 450 -184 l 401 -199 z "},"آ":{"ha":464,"x_min":-62,"x_max":496,"o":"m 307 749 l 307 606 l 298 0 l 193 -14 q 146 661 159 539 q 128 852 128 822 q 177 955 128 916 q 297 993 225 993 q 363 791 326 890 l 307 749 m 306 1072 q 201 1083 251 1072 q 95 1114 151 1095 q -26 1064 28 1092 l -62 1115 q 32 1197 -14 1167 q 106 1226 77 1226 q 140 1221 119 1226 q 189 1209 161 1215 q 247 1197 216 1202 q 313 1192 279 1192 q 387 1202 345 1192 q 465 1229 428 1212 l 496 1182 q 397 1102 450 1132 q 306 1072 344 1072 z "},"ﺂ":{"ha":471,"x_min":-60,"x_max":499,"o":"m 295 991 l 291 836 q 281 227 281 497 q 361 191 319 201 q 460 180 403 180 q 474 167 474 180 l 474 0 q 460 -14 474 -14 q 288 24 352 -14 q 212 134 224 61 q 170 397 189 262 q 107 886 150 531 l 295 991 m 309 1072 q 204 1083 254 1072 q 98 1114 154 1095 q -23 1064 31 1092 l -60 1115 q 35 1197 -11 1167 q 109 1226 80 1226 q 143 1221 121 1226 q 191 1209 164 1215 q 250 1197 218 1202 q 315 1192 281 1192 q 389 1202 348 1192 q 467 1229 431 1212 l 499 1182 q 400 1102 453 1132 q 309 1072 347 1072 z "},"ٱ":{"ha":464,"x_min":26,"x_max":416,"o":"m 324 749 l 324 606 l 315 0 l 210 -14 q 163 661 176 539 q 145 852 145 822 q 194 955 145 916 q 314 993 242 993 q 380 791 342 890 l 324 749 m 271 1064 q 204 1075 236 1064 q 125 1109 172 1085 q 62 1064 90 1091 l 26 1096 q 89 1176 62 1153 q 146 1199 116 1199 q 171 1190 151 1199 q 322 1301 241 1301 q 386 1263 356 1301 q 416 1178 416 1225 q 412 1140 416 1163 q 401 1100 408 1117 q 341 1072 371 1079 q 271 1064 311 1064 m 308 1217 q 212 1168 266 1217 q 271 1154 241 1154 q 328 1158 312 1154 q 370 1173 343 1161 q 308 1217 347 1217 z "},"ﭑ":{"ha":471,"x_min":52,"x_max":498,"o":"m 319 991 l 315 836 q 305 227 305 497 q 386 191 344 201 q 484 180 427 180 q 498 167 498 180 l 498 0 q 484 -14 498 -14 q 312 24 376 -14 q 236 134 248 61 q 194 397 214 262 q 132 886 174 531 l 319 991 m 296 1064 q 229 1075 261 1064 q 150 1109 197 1085 q 87 1064 115 1091 l 52 1096 q 114 1176 87 1153 q 171 1199 141 1199 q 196 1190 176 1199 q 347 1301 267 1301 q 411 1263 381 1301 q 441 1178 441 1225 q 437 1140 441 1163 q 427 1100 433 1117 q 366 1072 396 1079 q 296 1064 336 1064 m 333 1217 q 237 1168 291 1217 q 296 1154 266 1154 q 353 1158 337 1154 q 395 1173 368 1161 q 333 1217 372 1217 z "},"ب":{"ha":1279,"x_min":112,"x_max":1196,"o":"m 511 -28 q 214 61 316 -28 q 112 321 112 149 q 123 415 112 359 q 144 500 135 471 l 217 500 l 215 482 l 212 419 q 250 270 212 323 q 368 192 289 216 q 570 167 447 167 q 851 193 715 167 q 1101 269 988 220 q 1057 356 1079 317 q 1018 426 1036 395 q 990 483 1001 458 q 980 530 980 509 q 1024 618 980 570 q 1128 696 1069 667 l 1149 589 q 1196 317 1196 368 q 1133 119 1196 247 q 852 13 1021 53 q 511 -28 684 -28 m 839 -260 q 704 -414 789 -334 q 555 -276 602 -330 q 701 -123 654 -178 q 839 -260 758 -187 z "},"ﺑ":{"ha":471,"x_min":-14,"x_max":387,"o":"m 0 -14 q -14 0 -14 -14 l -14 167 q 0 180 -14 180 q 161 193 79 180 q 292 227 242 205 q 248 313 270 274 q 209 383 227 351 q 181 440 192 414 q 171 488 171 466 q 216 576 171 528 q 319 653 260 625 l 340 547 q 387 273 387 326 q 323 77 387 204 q 0 -14 172 -14 m 330 -260 q 195 -414 280 -334 q 46 -276 93 -330 q 192 -123 144 -178 q 330 -260 248 -187 z "},"ﺒ":{"ha":478,"x_min":-14,"x_max":505,"o":"m 0 -14 q -14 0 -14 -14 l -14 167 q 0 180 -14 180 q 160 218 104 180 q 211 289 183 234 q 265 387 254 374 q 292 407 276 401 q 326 414 309 414 q 392 390 367 414 q 319 222 331 246 q 492 180 399 180 q 505 167 505 180 l 505 0 q 492 -14 505 -14 q 256 98 368 -14 q 224 54 243 79 q 171 15 205 29 q 94 -7 137 0 q 0 -14 51 -14 m 372 -260 q 237 -414 322 -334 q 88 -276 135 -330 q 234 -123 186 -178 q 372 -260 290 -187 z "},"ﺐ":{"ha":1335,"x_min":112,"x_max":1363,"o":"m 511 -28 q 210 62 307 -28 q 112 321 112 152 q 123 413 112 359 q 144 500 134 467 l 217 500 l 215 482 l 212 419 q 250 270 212 323 q 368 192 289 216 q 570 167 447 167 q 868 188 745 167 q 1037 245 991 209 q 1064 277 1053 259 q 1097 338 1076 294 q 1138 400 1120 388 q 1183 414 1157 412 q 1249 390 1224 414 l 1211 302 l 1176 224 q 1350 180 1257 180 q 1363 167 1363 180 l 1363 0 q 1350 -14 1363 -14 q 1099 111 1218 -14 q 969 40 1053 71 q 770 -9 886 9 q 511 -28 654 -28 m 839 -260 q 704 -414 789 -334 q 555 -276 602 -330 q 701 -123 654 -178 q 839 -260 758 -187 z "},"پ":{"ha":1279,"x_min":112,"x_max":1196,"o":"m 511 -28 q 214 61 316 -28 q 112 321 112 149 q 123 415 112 359 q 144 500 135 471 l 217 500 l 215 482 l 212 419 q 250 270 212 323 q 368 192 289 216 q 570 167 447 167 q 851 193 715 167 q 1101 269 988 220 q 1057 356 1079 317 q 1018 426 1036 395 q 990 483 1001 458 q 980 530 980 509 q 1024 618 980 570 q 1128 696 1069 667 l 1149 589 q 1196 317 1196 368 q 1133 119 1196 247 q 852 13 1021 53 q 511 -28 684 -28 m 693 -273 q 568 -414 650 -337 q 429 -287 480 -345 q 536 -178 479 -241 l 565 -146 q 693 -273 613 -199 m 993 -242 q 869 -385 949 -309 q 730 -256 779 -315 q 865 -116 779 -211 q 993 -242 901 -154 m 857 -480 q 736 -595 771 -572 q 604 -480 664 -549 q 729 -351 673 -415 q 789 -419 753 -382 q 857 -480 825 -456 z "},"ﭗ":{"ha":1335,"x_min":112,"x_max":1363,"o":"m 511 -28 q 210 62 307 -28 q 112 321 112 152 q 123 413 112 359 q 144 500 134 467 l 217 500 l 215 482 l 212 419 q 250 270 212 323 q 368 192 289 216 q 570 167 447 167 q 868 188 745 167 q 1037 245 991 209 q 1064 277 1053 259 q 1097 338 1076 294 q 1138 400 1120 388 q 1183 414 1157 412 q 1249 390 1224 414 l 1211 302 l 1176 224 q 1350 180 1257 180 q 1363 167 1363 180 l 1363 0 q 1350 -14 1363 -14 q 1099 111 1218 -14 q 969 40 1053 71 q 770 -9 886 9 q 511 -28 654 -28 m 693 -273 q 568 -414 650 -337 q 429 -287 480 -345 q 536 -178 479 -241 l 565 -146 q 693 -273 613 -199 m 993 -242 q 869 -385 949 -309 q 730 -256 779 -315 q 865 -116 779 -211 q 993 -242 901 -154 m 857 -480 q 736 -595 771 -572 q 604 -480 664 -549 q 729 -351 673 -415 q 789 -419 753 -382 q 857 -480 825 -456 z "},"ﭘ":{"ha":591,"x_min":-41,"x_max":523,"o":"m -6 -14 q -20 0 -20 -14 l -20 167 q -6 180 -20 180 q 232 193 118 180 q 397 227 347 205 q 353 313 375 274 q 314 383 332 351 q 287 440 297 414 q 276 488 276 466 q 321 576 276 528 q 425 653 366 625 l 446 547 q 492 273 492 326 q 429 77 492 204 q 238 11 360 35 q -6 -14 116 -14 m 223 -273 q 98 -414 180 -337 q -41 -287 10 -345 q 66 -178 9 -241 l 95 -146 q 223 -273 143 -199 m 523 -242 q 399 -385 479 -309 q 260 -256 309 -315 q 395 -116 309 -211 q 523 -242 431 -154 m 387 -480 q 266 -595 301 -572 q 134 -480 194 -549 q 259 -351 203 -415 q 319 -419 283 -382 q 387 -480 355 -456 z "},"ﭙ":{"ha":589,"x_min":-14,"x_max":616,"o":"m 0 -14 q -14 0 -14 -14 l -14 167 q 0 180 -14 180 q 168 186 119 180 q 248 206 217 193 q 295 241 279 220 q 347 336 311 262 q 390 400 371 387 q 437 414 410 414 q 503 390 477 414 q 469 310 487 353 q 431 222 452 267 q 603 180 510 180 q 616 167 616 180 l 616 0 q 603 -14 616 -14 q 484 13 541 -14 q 367 98 426 39 q 329 46 350 70 q 211 3 306 20 q 0 -14 117 -14 m 275 -273 q 150 -414 232 -337 q 11 -287 62 -345 q 117 -178 60 -241 l 146 -146 q 275 -273 195 -199 m 574 -242 q 451 -385 530 -309 q 312 -256 361 -315 q 447 -116 361 -211 q 574 -242 482 -154 m 439 -480 q 317 -595 353 -572 q 186 -480 245 -549 q 311 -351 255 -415 q 371 -419 334 -382 q 439 -480 407 -456 z "},"ت":{"ha":1279,"x_min":112,"x_max":1196,"o":"m 511 -28 q 214 61 316 -28 q 112 321 112 149 q 123 415 112 359 q 144 500 135 471 l 217 500 l 215 482 l 212 419 q 250 270 212 323 q 368 192 289 216 q 570 167 447 167 q 851 193 715 167 q 1101 269 988 220 q 1057 356 1079 317 q 1018 426 1036 395 q 990 483 1001 458 q 980 530 980 509 q 1024 618 980 570 q 1128 696 1069 667 l 1149 589 q 1196 317 1196 368 q 1133 119 1196 247 q 852 13 1021 53 q 511 -28 684 -28 m 597 720 q 473 576 556 656 q 334 705 385 646 q 406 778 370 739 q 470 846 442 817 q 597 720 518 793 m 869 750 q 746 607 825 683 q 607 734 658 675 q 742 876 669 793 q 869 750 794 822 z "},"ﺗ":{"ha":514,"x_min":-63,"x_max":473,"o":"m 201 885 q 76 742 159 821 q -63 871 -12 811 q 9 943 -26 905 q 73 1011 45 982 q 201 885 121 959 m 473 916 q 349 772 429 848 q 210 900 261 841 q 345 1042 273 958 q 473 916 397 987 m 0 -14 q -14 0 -14 -14 l -14 167 q 0 180 -14 180 q 161 193 79 180 q 292 227 242 205 q 248 313 270 274 q 209 383 227 351 q 181 440 192 414 q 171 488 171 466 q 216 576 171 528 q 319 653 260 625 l 340 547 q 387 273 387 326 q 323 77 387 204 q 0 -14 172 -14 z "},"ﺘ":{"ha":589,"x_min":-14,"x_max":616,"o":"m 0 -14 q -14 0 -14 -14 l -14 167 q 0 180 -14 180 q 168 186 119 180 q 248 206 217 193 q 295 241 279 220 q 347 336 311 262 q 390 400 371 387 q 437 414 410 414 q 503 390 477 414 q 469 310 487 353 q 431 222 452 267 q 603 180 510 180 q 616 167 616 180 l 616 0 q 603 -14 616 -14 q 484 13 541 -14 q 367 98 426 39 q 329 46 350 70 q 211 3 306 20 q 0 -14 117 -14 m 270 682 q 145 538 229 618 q 6 667 58 608 q 79 740 43 701 q 142 808 115 779 q 270 682 191 755 m 542 712 q 418 569 498 645 q 279 696 330 637 q 414 838 342 755 q 542 712 467 784 z "},"ﺖ":{"ha":1335,"x_min":112,"x_max":1363,"o":"m 511 -28 q 210 62 307 -28 q 112 321 112 152 q 123 413 112 359 q 144 500 134 467 l 217 500 l 215 482 l 212 419 q 250 270 212 323 q 368 192 289 216 q 570 167 447 167 q 868 188 745 167 q 1037 245 991 209 q 1064 277 1053 259 q 1097 338 1076 294 q 1138 400 1120 388 q 1183 414 1157 412 q 1249 390 1224 414 l 1211 302 l 1176 224 q 1350 180 1257 180 q 1363 167 1363 180 l 1363 0 q 1350 -14 1363 -14 q 1099 111 1218 -14 q 969 40 1053 71 q 770 -9 886 9 q 511 -28 654 -28 m 672 618 q 547 475 631 555 q 408 604 460 545 q 481 677 445 638 q 545 745 517 715 q 672 618 593 692 m 944 649 q 821 506 900 582 q 682 633 732 574 q 817 775 744 692 q 944 649 869 721 z "},"ث":{"ha":1279,"x_min":112,"x_max":1196,"o":"m 511 -28 q 214 61 316 -28 q 112 321 112 149 q 123 415 112 359 q 144 500 135 471 l 217 500 l 215 482 l 212 419 q 250 270 212 323 q 368 192 289 216 q 570 167 447 167 q 851 193 715 167 q 1101 269 988 220 q 1057 356 1079 317 q 1018 426 1036 395 q 990 483 1001 458 q 980 530 980 509 q 1024 618 980 570 q 1128 696 1069 667 l 1149 589 q 1196 317 1196 368 q 1133 119 1196 247 q 852 13 1021 53 q 511 -28 684 -28 m 709 914 q 589 799 631 826 q 522 849 559 817 q 456 914 484 882 q 582 1042 524 974 q 709 914 629 980 m 570 715 q 446 574 524 647 q 307 701 357 644 q 414 810 360 751 l 443 842 q 570 715 486 795 m 871 746 q 747 604 823 675 q 608 732 657 674 q 743 872 653 773 q 871 746 779 834 z "},"ﺛ":{"ha":528,"x_min":-77,"x_max":487,"o":"m 0 -14 q -14 0 -14 -14 l -14 167 q 0 180 -14 180 q 161 193 79 180 q 292 227 242 205 q 248 313 270 274 q 209 383 227 351 q 181 440 192 414 q 171 488 171 466 q 216 576 171 528 q 319 653 260 625 l 340 547 q 387 273 387 326 q 323 77 387 204 q 0 -14 172 -14 m 326 1065 q 205 950 247 977 q 138 1001 176 968 q 73 1065 100 1033 q 198 1193 140 1125 q 326 1065 245 1131 m 186 867 q 62 725 140 798 q -77 852 -26 795 q 30 961 -24 902 l 59 993 q 186 867 102 946 m 487 897 q 363 755 439 827 q 224 883 273 825 q 359 1023 269 924 q 487 897 395 985 z "},"ﺜ":{"ha":589,"x_min":-14,"x_max":616,"o":"m 0 -14 q -14 0 -14 -14 l -14 167 q 0 180 -14 180 q 168 186 119 180 q 248 206 217 193 q 295 241 279 220 q 347 336 311 262 q 390 400 371 387 q 437 414 410 414 q 503 390 477 414 q 469 310 487 353 q 431 222 452 267 q 603 180 510 180 q 616 167 616 180 l 616 0 q 603 -14 616 -14 q 484 13 541 -14 q 367 98 426 39 q 329 46 350 70 q 211 3 306 20 q 0 -14 117 -14 m 395 879 q 274 764 316 791 q 207 814 245 782 q 142 879 169 846 q 267 1006 209 939 q 395 879 315 945 m 256 680 q 131 538 209 612 q -8 666 43 608 q 99 774 45 715 l 128 806 q 256 680 171 760 m 556 711 q 432 569 509 640 q 294 696 342 639 q 428 837 338 738 q 556 711 464 799 z "},"ﺚ":{"ha":1335,"x_min":112,"x_max":1363,"o":"m 511 -28 q 210 62 307 -28 q 112 321 112 152 q 123 413 112 359 q 144 500 134 467 l 217 500 l 215 482 l 212 419 q 250 270 212 323 q 368 192 289 216 q 570 167 447 167 q 868 188 745 167 q 1037 245 991 209 q 1064 277 1053 259 q 1097 338 1076 294 q 1138 400 1120 388 q 1183 414 1157 412 q 1249 390 1224 414 l 1211 302 l 1176 224 q 1350 180 1257 180 q 1363 167 1363 180 l 1363 0 q 1350 -14 1363 -14 q 1099 111 1218 -14 q 969 40 1053 71 q 770 -9 886 9 q 511 -28 654 -28 m 798 813 q 677 698 720 725 q 610 748 648 716 q 545 813 572 781 q 671 941 612 873 q 798 813 718 879 m 659 614 q 534 473 612 546 q 395 600 446 543 q 503 709 449 650 l 532 741 q 659 614 574 694 m 960 645 q 836 503 912 574 q 697 631 746 573 q 831 771 742 672 q 960 645 867 733 z "},"ٹ":{"ha":1279,"x_min":112,"x_max":1196,"o":"m 511 -28 q 214 61 316 -28 q 112 321 112 149 q 123 415 112 359 q 144 500 135 471 l 217 500 l 215 482 l 212 419 q 250 270 212 323 q 368 192 289 216 q 570 167 447 167 q 851 193 715 167 q 1101 269 988 220 q 1057 356 1079 317 q 1018 426 1036 395 q 990 483 1001 458 q 980 530 980 509 q 1024 618 980 570 q 1128 696 1069 667 l 1149 589 q 1196 317 1196 368 q 1133 119 1196 247 q 852 13 1021 53 q 511 -28 684 -28 m 388 648 q 473 635 434 638 l 515 692 l 494 781 q 459 940 459 920 q 485 993 459 971 q 559 1022 511 1015 q 592 925 578 959 l 574 911 l 576 833 l 574 754 q 713 832 659 832 q 774 808 739 832 q 840 743 809 783 q 871 677 871 702 q 834 588 871 630 q 741 520 798 545 q 635 496 685 496 q 553 504 592 496 q 479 528 515 513 q 371 583 443 543 l 388 648 m 701 709 q 628 687 668 709 q 550 627 589 665 q 639 622 597 622 q 802 653 720 622 q 757 694 785 678 q 701 709 728 709 z "},"ﭨ":{"ha":574,"x_min":-73,"x_max":427,"o":"m -7 -14 q -21 0 -21 -14 l -21 167 q -7 180 -21 180 q 153 193 72 180 q 284 227 235 205 q 241 313 262 274 q 202 383 219 351 q 174 440 184 414 q 163 488 163 466 q 208 576 163 528 q 312 653 253 625 l 333 547 q 380 273 380 326 q 316 77 380 204 q -7 -14 165 -14 m -56 915 q 29 901 -9 905 l 72 958 l 50 1048 q 16 1206 16 1187 q 42 1259 16 1238 q 115 1289 68 1281 q 149 1192 135 1225 l 130 1177 l 132 1099 l 130 1021 q 269 1099 216 1099 q 330 1074 295 1099 q 396 1009 366 1050 q 427 944 427 968 q 391 854 427 897 q 298 787 354 812 q 191 762 241 762 q 110 771 149 762 q 35 794 71 779 q -73 850 -1 809 l -56 915 m 258 976 q 185 954 224 976 q 106 893 145 932 q 195 888 154 888 q 358 920 277 888 q 313 960 342 945 q 258 976 285 976 z "},"ﭩ":{"ha":589,"x_min":-14,"x_max":616,"o":"m 0 -14 q -14 0 -14 -14 l -14 167 q 0 180 -14 180 q 168 186 119 180 q 248 206 217 193 q 295 241 279 220 q 347 336 311 262 q 390 400 371 387 q 437 414 410 414 q 503 390 477 414 q 469 310 487 353 q 431 222 452 267 q 603 180 510 180 q 616 167 616 180 l 616 0 q 603 -14 616 -14 q 484 13 541 -14 q 367 98 426 39 q 329 46 350 70 q 211 3 306 20 q 0 -14 117 -14 m 63 683 q 148 669 109 673 l 191 726 l 169 816 q 134 975 134 955 q 160 1027 134 1006 q 234 1057 186 1049 q 267 960 254 994 l 249 945 l 251 867 l 249 789 q 388 867 334 867 q 449 842 414 867 q 515 777 484 818 q 546 712 546 736 q 509 622 546 665 q 416 555 473 580 q 310 530 360 530 q 229 539 267 530 q 154 562 190 547 q 46 618 118 577 l 63 683 m 376 744 q 303 722 343 744 q 225 661 264 700 q 314 656 273 656 q 477 688 395 656 q 432 728 460 713 q 376 744 404 744 z "},"ﭧ":{"ha":1335,"x_min":112,"x_max":1363,"o":"m 511 -28 q 210 62 307 -28 q 112 321 112 152 q 123 413 112 359 q 144 500 134 467 l 217 500 l 215 482 l 212 419 q 250 270 212 323 q 368 192 289 216 q 570 167 447 167 q 868 188 745 167 q 1037 245 991 209 q 1064 277 1053 259 q 1097 338 1076 294 q 1138 400 1120 388 q 1183 414 1157 412 q 1249 390 1224 414 l 1211 302 l 1176 224 q 1350 180 1257 180 q 1363 167 1363 180 l 1363 0 q 1350 -14 1363 -14 q 1099 111 1218 -14 q 969 40 1053 71 q 770 -9 886 9 q 511 -28 654 -28 m 445 580 q 530 566 491 570 l 572 623 l 551 713 q 516 871 516 852 q 542 924 516 903 q 616 954 568 946 q 649 857 635 890 l 631 842 l 633 764 l 631 686 q 770 764 716 764 q 831 739 795 764 q 897 674 866 715 q 928 609 928 633 q 891 519 928 562 q 798 452 854 477 q 692 427 742 427 q 610 436 649 427 q 536 459 572 444 q 428 515 500 474 l 445 580 m 758 641 q 685 619 725 641 q 607 558 646 597 q 696 553 654 553 q 859 585 777 553 q 814 625 842 610 q 758 641 785 641 z "},"ة":{"ha":798,"x_min":111,"x_max":714,"o":"m 214 192 q 361 478 214 331 l 355 484 q 319 568 319 507 q 333 632 319 602 q 370 675 347 662 q 541 580 461 646 q 667 431 620 514 q 714 273 714 347 q 695 186 714 243 q 648 81 675 129 q 599 18 621 34 q 522 -15 568 -3 q 428 -28 477 -28 q 275 34 336 -28 q 214 192 214 96 m 607 189 q 542 319 583 263 q 431 429 500 375 q 336 248 336 332 q 368 172 336 200 q 446 144 399 144 q 607 189 536 144 m 375 917 q 250 774 334 853 q 111 903 163 843 q 184 975 148 937 q 248 1043 220 1014 q 375 917 296 991 m 647 947 q 524 804 603 880 q 385 932 435 873 q 519 1074 447 990 q 647 947 572 1019 z "},"ﺔ":{"ha":828,"x_min":111,"x_max":855,"o":"m 530 35 q 427 46 460 40 q 355 65 393 53 q 233 131 289 91 q 178 199 178 170 q 205 297 178 220 q 252 400 232 374 q 313 463 271 427 q 404 531 354 498 q 507 589 454 564 l 502 621 l 498 653 q 588 722 557 701 q 668 772 618 743 l 667 458 l 668 224 q 842 180 747 180 q 855 167 855 180 l 855 0 q 842 -14 855 -14 q 683 18 744 -14 q 610 107 622 50 l 595 168 l 530 35 m 581 228 q 533 441 552 345 q 390 379 444 411 q 294 307 336 348 q 377 263 335 278 q 472 239 419 248 q 581 228 524 230 m 375 977 q 250 833 334 913 q 111 962 163 903 q 184 1035 148 996 q 248 1103 220 1074 q 375 977 296 1050 m 647 1007 q 524 864 603 940 q 385 991 435 932 q 519 1133 447 1050 q 647 1007 572 1079 z "},"ﭼ":{"ha":1060,"x_min":-14,"x_max":1004,"o":"m 0 -14 q -14 0 -14 -14 l -14 167 q 0 180 -14 180 q 194 183 145 180 q 285 193 243 186 q 364 211 327 199 q 564 265 494 251 q 492 307 524 286 q 432 346 460 328 q 376 374 404 363 q 315 385 348 385 q 227 372 267 385 q 122 321 186 360 q 96 365 108 335 q 85 419 85 394 q 114 503 85 467 q 196 559 144 538 q 310 579 249 579 q 410 561 361 579 q 519 503 459 543 q 617 441 572 467 q 696 403 663 416 q 784 374 730 389 q 886 354 837 359 q 1004 349 935 349 l 921 175 q 754 197 813 183 q 635 160 694 186 q 509 92 576 134 q 413 41 457 60 q 323 9 370 21 q 221 -8 277 -3 q 0 -14 165 -14 m 485 -245 q 360 -387 442 -310 q 221 -260 272 -317 q 328 -151 271 -214 l 357 -119 q 485 -245 405 -172 m 785 -215 q 661 -358 741 -282 q 522 -229 571 -288 q 657 -89 571 -184 q 785 -215 692 -127 m 649 -453 q 528 -568 563 -545 q 396 -453 456 -522 q 521 -323 465 -388 q 581 -392 545 -355 q 649 -453 617 -429 z "},"ﭽ":{"ha":1074,"x_min":-14,"x_max":1101,"o":"m 0 -14 q -14 0 -14 -14 l -14 167 q 0 180 -14 180 q 194 183 145 180 q 285 193 243 186 q 364 211 327 199 q 564 265 494 251 q 492 307 524 286 q 432 346 460 328 q 376 374 404 363 q 315 385 348 385 q 227 372 267 385 q 122 321 186 360 q 96 365 108 335 q 85 419 85 394 q 114 503 85 467 q 196 559 144 538 q 310 579 249 579 q 410 561 361 579 q 519 503 459 543 q 617 441 572 467 q 696 403 663 416 q 784 374 730 389 q 886 354 837 359 q 1004 349 935 349 l 925 186 q 1088 180 966 180 q 1101 167 1101 180 l 1101 0 q 1088 -14 1101 -14 q 854 11 949 -14 q 758 66 758 35 q 781 192 758 102 l 754 197 q 635 160 694 186 q 509 92 576 134 q 413 41 457 60 q 323 9 370 21 q 221 -8 277 -3 q 0 -14 165 -14 m 485 -245 q 360 -387 442 -310 q 221 -260 272 -317 q 328 -151 271 -214 l 357 -119 q 485 -245 405 -172 m 785 -215 q 661 -358 741 -282 q 522 -229 571 -288 q 657 -89 571 -184 q 785 -215 692 -127 m 649 -453 q 528 -568 563 -545 q 396 -453 456 -522 q 521 -323 465 -388 q 581 -392 545 -355 q 649 -453 617 -429 z "},"ج":{"ha":1071,"x_min":111,"x_max":1029,"o":"m 335 496 q 277 491 302 496 q 230 477 252 486 q 149 432 208 468 q 122 475 134 447 q 111 530 111 504 q 171 648 111 606 q 329 690 230 690 q 440 677 382 690 q 591 630 498 664 q 741 584 675 599 q 875 570 808 570 l 907 570 q 1023 572 988 570 l 957 389 q 836 383 913 383 q 762 386 798 383 q 515 296 637 361 q 325 145 394 231 q 256 -28 256 60 q 357 -216 256 -146 q 614 -285 458 -285 q 788 -274 700 -285 q 1007 -233 877 -263 l 1029 -302 q 785 -423 903 -374 q 610 -472 667 -472 q 283 -365 395 -472 q 172 -46 172 -257 q 266 239 172 105 q 513 449 359 372 q 418 481 461 467 q 335 496 374 496 m 742 -27 q 607 -180 692 -100 q 458 -43 505 -96 q 604 110 557 56 q 742 -27 661 46 z "},"ﺟ":{"ha":1060,"x_min":-14,"x_max":1004,"o":"m 0 -14 q -14 0 -14 -14 l -14 167 q 0 180 -14 180 q 194 183 145 180 q 285 193 243 186 q 364 211 327 199 q 564 265 494 251 q 492 307 524 286 q 432 346 460 328 q 376 374 404 363 q 315 385 348 385 q 227 372 267 385 q 122 321 186 360 q 96 365 108 335 q 85 419 85 394 q 114 503 85 467 q 196 559 144 538 q 310 579 249 579 q 410 561 361 579 q 519 503 459 543 q 617 441 572 467 q 696 403 663 416 q 784 374 730 389 q 886 354 837 359 q 1004 349 935 349 l 921 175 q 754 197 813 183 q 635 160 694 186 q 509 92 576 134 q 413 41 457 60 q 323 9 370 21 q 221 -8 277 -3 q 0 -14 165 -14 m 636 -212 q 501 -365 587 -285 q 353 -227 399 -281 q 498 -75 451 -129 q 636 -212 555 -138 z "},"ﺠ":{"ha":1074,"x_min":-14,"x_max":1101,"o":"m 0 -14 q -14 0 -14 -14 l -14 167 q 0 180 -14 180 q 194 183 145 180 q 285 193 243 186 q 364 211 327 199 q 564 265 494 251 q 492 307 524 286 q 432 346 460 328 q 376 374 404 363 q 315 385 348 385 q 227 372 267 385 q 122 321 186 360 q 96 365 108 335 q 85 419 85 394 q 114 503 85 467 q 196 559 144 538 q 310 579 249 579 q 410 561 361 579 q 519 503 459 543 q 617 441 572 467 q 696 403 663 416 q 784 374 730 389 q 886 354 837 359 q 1004 349 935 349 l 925 186 q 1088 180 966 180 q 1101 167 1101 180 l 1101 0 q 1088 -14 1101 -14 q 854 11 949 -14 q 758 66 758 35 q 781 192 758 102 l 754 197 q 635 160 694 186 q 509 92 576 134 q 413 41 457 60 q 323 9 370 21 q 221 -8 277 -3 q 0 -14 165 -14 m 636 -212 q 501 -365 587 -285 q 353 -227 399 -281 q 498 -75 451 -129 q 636 -212 555 -138 z "},"ﺞ":{"ha":1183,"x_min":111,"x_max":1211,"o":"m 335 385 q 277 380 302 385 q 230 366 252 375 q 149 321 208 357 q 123 365 134 335 q 111 419 111 394 q 171 537 111 495 q 329 579 230 579 q 440 566 382 579 q 591 519 498 553 q 741 473 675 488 q 875 458 808 458 l 907 458 q 1023 461 988 458 l 957 278 q 836 272 924 272 l 798 272 q 852 212 821 229 q 942 187 883 194 q 1197 180 1002 180 q 1211 167 1211 180 l 1211 0 q 1197 -14 1211 -14 q 984 -1 1054 -14 q 868 40 914 12 q 786 120 822 68 q 715 265 750 172 q 479 164 589 232 q 312 19 369 97 q 256 -139 256 -59 q 357 -327 256 -258 q 614 -396 458 -396 q 926 -351 732 -396 l 949 -421 q 703 -556 764 -530 q 604 -583 641 -583 q 172 -157 172 -583 q 265 127 172 -7 q 513 338 358 260 q 418 371 461 357 q 335 385 374 385 m 708 -52 q 573 -205 659 -125 q 425 -68 471 -121 q 570 85 523 31 q 708 -52 627 21 z "},"خ":{"ha":1071,"x_min":111,"x_max":1029,"o":"m 335 496 q 277 491 302 496 q 230 477 252 486 q 149 432 208 468 q 122 475 134 447 q 111 530 111 504 q 171 648 111 606 q 329 690 230 690 q 440 677 382 690 q 591 630 498 664 q 741 584 675 599 q 875 570 808 570 l 907 570 q 1023 572 988 570 l 957 389 q 836 383 913 383 q 762 386 798 383 q 515 296 637 361 q 325 145 394 231 q 256 -28 256 60 q 357 -216 256 -146 q 614 -285 458 -285 q 788 -274 700 -285 q 1007 -233 877 -263 l 1029 -302 q 785 -423 903 -374 q 610 -472 667 -472 q 283 -365 395 -472 q 172 -46 172 -257 q 266 239 172 105 q 513 449 359 372 q 418 481 461 467 q 335 496 374 496 m 737 925 q 602 772 688 852 q 454 909 500 856 q 600 1062 552 1008 q 737 925 656 998 z "},"ﺧ":{"ha":1060,"x_min":-14,"x_max":1004,"o":"m 0 -14 q -14 0 -14 -14 l -14 167 q 0 180 -14 180 q 194 183 145 180 q 285 193 243 186 q 364 211 327 199 q 564 265 494 251 q 492 307 524 286 q 432 346 460 328 q 376 374 404 363 q 315 385 348 385 q 227 372 267 385 q 122 321 186 360 q 96 365 108 335 q 85 419 85 394 q 114 503 85 467 q 196 559 144 538 q 310 579 249 579 q 410 561 361 579 q 519 503 459 543 q 617 441 572 467 q 696 403 663 416 q 784 374 730 389 q 886 354 837 359 q 1004 349 935 349 l 921 175 q 754 197 813 183 q 635 160 694 186 q 509 92 576 134 q 413 41 457 60 q 323 9 370 21 q 221 -8 277 -3 q 0 -14 165 -14 m 786 806 q 651 652 736 732 q 503 790 549 736 q 648 943 601 888 q 786 806 705 879 z "},"ﺨ":{"ha":1074,"x_min":-14,"x_max":1101,"o":"m 0 -14 q -14 0 -14 -14 l -14 167 q 0 180 -14 180 q 194 183 145 180 q 285 193 243 186 q 364 211 327 199 q 564 265 494 251 q 492 307 524 286 q 432 346 460 328 q 376 374 404 363 q 315 385 348 385 q 227 372 267 385 q 122 321 186 360 q 96 365 108 335 q 85 419 85 394 q 114 503 85 467 q 196 559 144 538 q 310 579 249 579 q 410 561 361 579 q 519 503 459 543 q 617 441 572 467 q 696 403 663 416 q 784 374 730 389 q 886 354 837 359 q 1004 349 935 349 l 925 186 q 1088 180 966 180 q 1101 167 1101 180 l 1101 0 q 1088 -14 1101 -14 q 854 11 949 -14 q 758 66 758 35 q 781 192 758 102 l 754 197 q 635 160 694 186 q 509 92 576 134 q 413 41 457 60 q 323 9 370 21 q 221 -8 277 -3 q 0 -14 165 -14 m 786 806 q 651 652 736 732 q 503 790 549 736 q 648 943 601 888 q 786 806 705 879 z "},"ﺦ":{"ha":1183,"x_min":111,"x_max":1211,"o":"m 335 385 q 277 380 302 385 q 230 366 252 375 q 149 321 208 357 q 123 365 134 335 q 111 419 111 394 q 171 537 111 495 q 329 579 230 579 q 440 566 382 579 q 591 519 498 553 q 741 473 675 488 q 875 458 808 458 l 907 458 q 1023 461 988 458 l 957 278 q 836 272 924 272 l 798 272 q 852 212 821 229 q 942 187 883 194 q 1197 180 1002 180 q 1211 167 1211 180 l 1211 0 q 1197 -14 1211 -14 q 984 -1 1054 -14 q 868 40 914 12 q 786 120 822 68 q 715 265 750 172 q 479 164 589 232 q 312 19 369 97 q 256 -139 256 -59 q 357 -327 256 -258 q 614 -396 458 -396 q 926 -351 732 -396 l 949 -421 q 703 -556 764 -530 q 604 -583 641 -583 q 172 -157 172 -583 q 265 127 172 -7 q 513 338 358 260 q 418 371 461 357 q 335 385 374 385 m 800 804 q 665 651 751 731 q 517 789 564 735 q 663 941 615 887 q 800 804 719 878 z "},"ذ":{"ha":710,"x_min":56,"x_max":640,"o":"m 275 -28 q 56 100 56 -28 q 68 170 56 134 q 104 232 81 205 q 197 182 144 198 q 326 167 250 167 q 541 200 433 167 q 453 345 499 277 q 367 483 385 446 q 349 543 349 520 q 367 612 349 579 q 418 671 386 645 q 485 708 451 697 q 534 561 507 631 q 585 429 561 491 q 624 314 608 367 q 640 216 640 260 q 622 135 640 193 q 583 36 604 77 q 442 -11 525 5 q 275 -28 359 -28 m 486 953 q 351 800 437 880 q 203 937 250 884 q 349 1090 301 1036 q 486 953 405 1026 z "},"ﺬ":{"ha":793,"x_min":56,"x_max":821,"o":"m 807 -14 q 697 6 742 -14 q 616 61 652 25 q 275 -28 430 -28 q 56 100 56 -28 q 68 170 56 134 q 104 232 81 205 q 197 182 144 198 q 326 167 250 167 q 524 189 427 167 q 426 386 469 280 q 383 545 383 492 q 413 649 383 606 q 497 708 443 692 q 597 375 546 502 q 689 214 649 248 q 807 180 729 180 q 821 167 821 180 l 821 0 q 807 -14 821 -14 m 514 953 q 379 800 465 880 q 231 937 277 884 q 376 1090 329 1036 q 514 953 433 1026 z "},"ڈ":{"ha":710,"x_min":56,"x_max":640,"o":"m 275 -28 q 56 100 56 -28 q 68 170 56 134 q 104 232 81 205 q 197 182 144 198 q 326 167 250 167 q 541 200 433 167 q 453 345 499 277 q 367 483 385 446 q 349 543 349 520 q 367 612 349 579 q 418 671 386 645 q 485 708 451 697 q 534 561 507 631 q 585 429 561 491 q 624 314 608 367 q 640 216 640 260 q 622 135 640 193 q 583 36 604 77 q 442 -11 525 5 q 275 -28 359 -28 m 82 947 q 167 933 128 937 l 210 990 l 188 1080 q 153 1238 153 1219 q 179 1291 153 1270 q 253 1320 205 1313 q 286 1223 273 1257 l 268 1209 l 270 1131 l 268 1053 q 407 1131 353 1131 q 468 1106 433 1131 q 534 1041 503 1082 q 565 976 565 1000 q 528 886 565 928 q 435 819 492 844 q 329 794 379 794 q 248 803 286 794 q 173 826 209 811 q 65 882 137 841 l 82 947 m 395 1008 q 322 986 362 1008 q 244 925 283 964 q 333 920 292 920 q 496 951 414 920 q 451 992 479 977 q 395 1008 422 1008 z "},"ﮉ":{"ha":793,"x_min":56,"x_max":821,"o":"m 807 -14 q 697 6 742 -14 q 616 61 652 25 q 275 -28 430 -28 q 56 100 56 -28 q 68 170 56 134 q 104 232 81 205 q 197 182 144 198 q 326 167 250 167 q 524 189 427 167 q 426 386 469 280 q 383 545 383 492 q 413 649 383 606 q 497 708 443 692 q 597 375 546 502 q 689 214 649 248 q 807 180 729 180 q 821 167 821 180 l 821 0 q 807 -14 821 -14 m 96 947 q 181 933 142 937 l 224 990 l 202 1080 q 168 1238 168 1219 q 194 1291 168 1270 q 267 1320 220 1313 q 300 1223 287 1257 l 282 1209 l 284 1131 l 282 1053 q 421 1131 368 1131 q 482 1106 447 1131 q 548 1041 517 1082 q 579 976 579 1000 q 543 886 579 928 q 450 819 506 844 q 343 794 393 794 q 262 803 300 794 q 187 826 223 811 q 79 882 151 841 l 96 947 m 410 1008 q 337 986 376 1008 q 258 925 297 964 q 347 920 306 920 q 510 951 429 920 q 465 992 494 977 q 410 1008 437 1008 z "},"ز":{"ha":616,"x_min":-56,"x_max":547,"o":"m 167 -347 q 72 -308 136 -347 q -56 -214 7 -268 l -29 -146 q 136 -168 58 -168 q 340 -107 256 -168 q 461 66 425 -47 q 434 118 447 96 q 372 216 421 140 q 304 337 326 286 q 282 427 282 387 q 321 521 282 474 q 419 597 359 568 q 456 472 434 535 q 498 348 477 409 q 533 228 518 286 q 547 118 547 170 q 498 -118 547 -10 q 362 -287 449 -226 q 167 -347 275 -347 m 409 857 q 274 704 359 784 q 125 842 172 788 q 271 994 224 940 q 409 857 328 930 z "},"ﺰ":{"ha":646,"x_min":-56,"x_max":673,"o":"m 660 -14 q 539 18 595 -14 q 408 -248 509 -149 q 167 -347 306 -347 q 72 -308 136 -347 q -56 -214 7 -268 l -29 -146 q 136 -168 58 -168 q 340 -107 256 -168 q 461 66 425 -47 q 434 118 447 96 q 372 216 421 140 q 304 337 326 286 q 282 427 282 387 q 321 521 282 474 q 419 597 359 568 q 480 400 435 532 q 536 210 522 278 q 660 180 590 180 q 673 167 673 180 l 673 0 q 660 -14 673 -14 m 363 857 q 228 704 313 784 q 79 842 126 788 q 225 994 178 940 q 363 857 281 930 z "},"ڑ":{"ha":616,"x_min":-56,"x_max":547,"o":"m 167 -347 q 72 -308 136 -347 q -56 -214 7 -268 l -29 -146 q 136 -168 58 -168 q 340 -107 256 -168 q 461 66 425 -47 q 434 118 447 96 q 372 216 421 140 q 304 337 326 286 q 282 427 282 387 q 321 521 282 474 q 419 597 359 568 q 456 472 434 535 q 498 348 477 409 q 533 228 518 286 q 547 118 547 170 q 498 -118 547 -10 q 362 -287 449 -226 q 167 -347 275 -347 m -5 865 q 79 852 41 855 l 122 909 l 100 998 q 66 1157 66 1137 q 92 1210 66 1188 q 165 1239 118 1232 q 199 1142 185 1176 l 180 1128 l 182 1050 l 180 971 q 319 1049 266 1049 q 380 1025 345 1049 q 447 960 416 1000 q 477 895 477 919 q 441 805 477 847 q 348 738 404 762 q 241 713 292 713 q 160 721 199 713 q 85 745 121 730 q -22 800 50 760 l -5 865 m 308 926 q 235 904 275 926 q 157 844 195 882 q 245 839 204 839 q 408 870 327 839 q 363 911 392 895 q 308 926 335 926 z "},"ﮍ":{"ha":646,"x_min":-56,"x_max":673,"o":"m 660 -14 q 539 18 595 -14 q 408 -248 509 -149 q 167 -347 306 -347 q 72 -308 136 -347 q -56 -214 7 -268 l -29 -146 q 136 -168 58 -168 q 340 -107 256 -168 q 461 66 425 -47 q 434 118 447 96 q 372 216 421 140 q 304 337 326 286 q 282 427 282 387 q 321 521 282 474 q 419 597 359 568 q 480 400 435 532 q 536 210 522 278 q 660 180 590 180 q 673 167 673 180 l 673 0 q 660 -14 673 -14 m -5 865 q 79 852 41 855 l 122 909 l 100 998 q 66 1157 66 1137 q 92 1210 66 1188 q 165 1239 118 1232 q 199 1142 185 1176 l 180 1128 l 182 1050 l 180 971 q 319 1049 266 1049 q 380 1025 345 1049 q 447 960 416 1000 q 477 895 477 919 q 441 805 477 847 q 348 738 404 762 q 241 713 292 713 q 160 721 199 713 q 85 745 121 730 q -22 800 50 760 l -5 865 m 308 926 q 235 904 275 926 q 157 844 195 882 q 245 839 204 839 q 408 870 327 839 q 363 911 392 895 q 308 926 335 926 z "},"ژ":{"ha":639,"x_min":-56,"x_max":570,"o":"m 167 -347 q 72 -308 136 -347 q -56 -214 7 -268 l -29 -146 q 136 -168 58 -168 q 340 -107 256 -168 q 461 66 425 -47 q 434 118 447 96 q 372 216 421 140 q 304 337 326 286 q 282 427 282 387 q 321 521 282 474 q 419 597 359 568 q 456 472 434 535 q 498 348 477 409 q 533 228 518 286 q 547 118 547 170 q 498 -118 547 -10 q 362 -287 449 -226 q 167 -347 275 -347 m 409 1035 q 288 920 330 947 q 221 970 259 938 q 156 1035 183 1002 q 281 1162 223 1095 q 409 1035 329 1101 m 270 836 q 145 694 223 768 q 6 822 57 764 q 113 930 60 871 l 142 962 q 270 836 185 916 m 570 867 q 446 725 523 796 q 308 852 357 795 q 442 993 353 894 q 570 867 478 955 z "},"ﮋ":{"ha":646,"x_min":-56,"x_max":673,"o":"m 660 -14 q 539 18 595 -14 q 408 -248 509 -149 q 167 -347 306 -347 q 72 -308 136 -347 q -56 -214 7 -268 l -29 -146 q 136 -168 58 -168 q 340 -107 256 -168 q 461 66 425 -47 q 434 118 447 96 q 372 216 421 140 q 304 337 326 286 q 282 427 282 387 q 321 521 282 474 q 419 597 359 568 q 480 400 435 532 q 536 210 522 278 q 660 180 590 180 q 673 167 673 180 l 673 0 q 660 -14 673 -14 m 409 1035 q 288 920 330 947 q 221 970 259 938 q 156 1035 183 1002 q 281 1162 223 1095 q 409 1035 329 1101 m 270 836 q 145 694 223 768 q 6 822 57 764 q 113 930 60 871 l 142 962 q 270 836 185 916 m 570 867 q 446 725 523 796 q 308 852 357 795 q 442 993 353 894 q 570 867 478 955 z "},"ش":{"ha":1733,"x_min":111,"x_max":1650,"o":"m 1582 -28 q 1376 -4 1480 -28 q 1192 56 1272 19 l 1173 17 q 1098 -16 1160 -3 q 957 -28 1036 -28 q 900 -24 929 -28 l 903 -72 q 838 -273 903 -180 q 660 -419 772 -366 q 411 -472 547 -472 q 188 -386 264 -472 q 111 -136 111 -300 q 151 100 111 -52 l 224 82 q 201 -47 201 7 q 254 -221 201 -165 q 415 -278 306 -278 q 640 -243 549 -278 q 811 -134 730 -209 q 765 -41 789 -86 q 720 42 741 3 q 687 112 700 81 q 673 165 673 144 q 839 380 673 302 q 872 176 848 306 q 975 167 916 167 q 1036 170 1015 167 q 1092 184 1057 173 q 1160 350 1113 220 q 1193 424 1182 410 q 1219 444 1204 437 q 1257 452 1235 452 q 1320 435 1289 452 q 1251 225 1301 389 q 1390 177 1314 193 q 1556 151 1466 161 q 1512 241 1534 199 q 1473 318 1490 283 q 1444 381 1455 353 q 1434 432 1434 410 q 1478 520 1434 472 q 1582 597 1523 569 l 1603 489 q 1640 293 1630 353 q 1650 204 1650 233 q 1628 93 1650 165 q 1582 -28 1606 20 m 1172 914 q 1051 799 1093 826 q 984 849 1022 817 q 919 914 946 882 q 1044 1042 986 974 q 1172 914 1092 980 m 1033 715 q 908 574 986 647 q 769 701 820 644 q 876 810 823 751 l 905 842 q 1033 715 948 795 m 1333 746 q 1209 604 1286 675 q 1071 732 1120 674 q 1205 872 1116 773 q 1333 746 1241 834 z "},"ﺷ":{"ha":1143,"x_min":-14,"x_max":1060,"o":"m 991 -28 q 784 -4 888 -28 q 602 56 680 20 l 582 17 q 507 -15 571 -1 q 376 -28 443 -28 q 187 24 295 -28 q 109 -2 158 9 q 0 -14 60 -14 q -14 0 -14 -14 l -14 167 q 0 180 -14 180 q 111 190 73 180 q 174 222 150 199 q 230 301 198 245 l 256 346 q 284 375 267 363 q 323 387 302 387 q 374 370 349 387 q 335 272 355 323 q 294 172 316 220 q 385 167 331 167 q 447 170 427 167 q 501 184 468 174 q 570 350 519 215 l 591 406 q 621 440 600 426 q 671 454 642 454 q 729 436 703 454 q 678 285 709 388 l 660 225 q 799 177 723 193 q 965 151 875 161 q 921 241 943 199 q 882 318 899 283 q 854 381 865 353 q 843 432 843 410 q 888 520 843 472 q 991 597 932 569 l 1013 489 q 1060 204 1060 255 q 1039 97 1060 167 q 991 -28 1019 26 m 602 914 q 481 799 523 826 q 414 849 452 817 q 349 914 376 882 q 474 1042 416 974 q 602 914 522 980 m 463 715 q 338 574 416 647 q 199 701 250 644 q 306 810 252 751 l 335 842 q 463 715 378 795 m 763 746 q 639 604 715 675 q 500 732 549 674 q 635 872 545 773 q 763 746 671 834 z "},"ﺸ":{"ha":1139,"x_min":-14,"x_max":1166,"o":"m 323 387 q 374 370 349 387 q 335 272 355 323 q 294 172 316 220 q 385 167 331 167 q 447 170 427 167 q 501 184 468 174 q 570 350 519 215 l 591 406 q 621 440 600 426 q 671 454 642 454 q 729 436 703 454 q 663 235 703 373 l 640 161 l 665 160 l 685 160 q 802 178 745 160 q 873 361 821 209 l 896 419 q 926 454 905 439 q 977 468 947 468 q 1034 452 1007 468 q 979 288 1013 399 l 960 224 q 1043 190 998 200 q 1153 180 1088 180 q 1166 167 1166 180 l 1166 0 q 1153 -14 1166 -14 q 1019 15 1086 -14 q 913 85 951 43 q 882 17 890 29 q 819 -16 869 -4 q 704 -28 769 -28 q 643 -17 681 -28 q 572 7 604 -7 q 492 -18 549 -8 q 376 -28 435 -28 q 187 24 295 -28 q 109 -2 158 9 q 0 -14 60 -14 q -14 0 -14 -14 l -14 167 q 0 180 -14 180 q 111 190 73 180 q 174 222 150 199 q 230 301 198 245 l 256 346 q 284 375 267 363 q 323 387 302 387 m 660 914 q 539 799 581 826 q 472 849 510 817 q 407 914 434 882 q 532 1042 474 974 q 660 914 580 980 m 521 715 q 396 574 474 647 q 257 701 308 644 q 364 810 311 751 l 393 842 q 521 715 436 795 m 821 746 q 697 604 774 675 q 559 732 608 674 q 693 872 604 773 q 821 746 729 834 z "},"ﺶ":{"ha":1697,"x_min":111,"x_max":1725,"o":"m 1711 -14 q 1577 15 1644 -14 q 1471 85 1510 43 q 1440 17 1447 26 q 1380 -15 1428 -3 q 1263 -28 1333 -28 q 1200 -17 1239 -28 q 1131 7 1160 -5 q 1050 -18 1107 -8 q 935 -28 993 -28 l 900 -25 l 903 -72 q 838 -273 903 -180 q 660 -419 772 -366 q 411 -472 547 -472 q 188 -386 264 -472 q 111 -136 111 -300 q 151 100 111 -52 l 224 82 q 201 -47 201 7 q 254 -221 201 -165 q 415 -278 306 -278 q 640 -243 549 -278 q 811 -134 730 -209 q 765 -41 789 -86 q 720 42 741 3 q 687 112 700 81 q 673 165 673 144 q 839 380 673 302 q 873 170 846 326 l 943 167 q 1007 171 985 167 q 1060 184 1028 174 q 1128 350 1079 218 l 1150 406 q 1180 440 1158 426 q 1230 454 1202 454 q 1287 436 1261 454 q 1221 235 1268 389 l 1198 161 l 1223 160 l 1243 160 q 1360 178 1303 160 q 1432 361 1379 209 l 1454 419 q 1484 454 1463 439 q 1535 468 1506 468 q 1592 452 1565 468 q 1537 288 1571 399 l 1518 224 q 1601 190 1556 200 q 1711 180 1647 180 q 1725 167 1725 180 l 1725 0 q 1711 -14 1725 -14 m 1282 914 q 1161 799 1203 826 q 1094 849 1132 817 q 1029 914 1056 882 q 1154 1042 1096 974 q 1282 914 1202 980 m 1143 715 q 1018 574 1096 647 q 879 701 930 644 q 986 810 932 751 l 1015 842 q 1143 715 1058 795 m 1443 746 q 1319 604 1396 675 q 1181 732 1230 674 q 1315 872 1225 773 q 1443 746 1351 834 z "},"ض":{"ha":1849,"x_min":111,"x_max":1765,"o":"m 411 -472 q 188 -386 264 -472 q 111 -136 111 -300 q 151 100 111 -52 l 224 82 q 201 -47 201 7 q 254 -221 201 -165 q 415 -278 306 -278 q 640 -243 549 -278 q 811 -134 730 -209 q 765 -41 789 -86 q 720 42 741 3 q 687 112 700 81 q 673 165 673 144 q 839 380 673 302 q 865 208 848 313 l 916 193 q 1214 521 1086 417 q 1435 625 1342 625 q 1568 578 1492 625 q 1705 460 1645 531 q 1765 340 1765 389 q 1698 153 1765 235 q 1494 22 1631 71 q 1211 -28 1356 -28 q 1053 -18 1137 -28 q 897 11 968 -8 q 903 -72 903 -47 q 838 -273 903 -180 q 660 -419 772 -366 q 411 -472 547 -472 m 1394 433 q 1025 168 1253 433 q 1227 153 1125 153 q 1435 176 1337 153 q 1671 265 1534 200 q 1394 433 1525 433 m 1258 839 q 1123 686 1208 766 q 975 823 1021 770 q 1120 976 1073 922 q 1258 839 1177 912 z "},"ﺿ":{"ha":1299,"x_min":-14,"x_max":1215,"o":"m 313 390 q 364 374 339 390 l 334 296 l 300 214 q 366 193 330 202 q 664 521 536 417 q 885 625 792 625 q 1018 578 942 625 q 1155 460 1095 531 q 1215 340 1215 389 q 1148 153 1215 235 q 944 22 1081 71 q 661 -28 806 -28 q 414 -4 534 -28 q 218 60 294 20 l 207 46 q 123 3 181 20 q 0 -14 65 -14 q -14 0 -14 -14 l -14 167 q 0 180 -14 180 q 101 189 69 180 q 157 219 133 197 q 214 301 181 242 l 239 346 q 269 378 250 366 q 313 390 288 390 m 844 433 q 475 168 703 433 q 677 153 575 153 q 885 176 787 153 q 1121 265 984 200 q 844 433 975 433 m 685 839 q 550 686 635 766 q 401 823 448 770 q 547 976 500 922 q 685 839 604 912 z "},"ﻀ":{"ha":1382,"x_min":-14,"x_max":1410,"o":"m 1396 -14 q 1241 21 1316 -14 q 1112 115 1167 56 q 916 12 1040 51 q 661 -28 791 -28 q 414 -4 534 -28 q 218 60 294 20 l 207 46 q 123 3 181 20 q 0 -14 65 -14 q -14 0 -14 -14 l -14 167 q 0 180 -14 180 q 101 189 69 180 q 157 219 133 197 q 214 301 181 242 l 239 346 q 269 378 250 366 q 313 390 288 390 q 364 374 339 390 l 334 296 l 300 214 q 366 193 330 202 q 664 521 536 417 q 885 625 792 625 q 1018 578 942 625 q 1155 460 1095 531 q 1215 340 1215 389 q 1198 239 1215 291 q 1283 197 1237 213 q 1396 180 1330 180 q 1410 167 1410 180 l 1410 0 q 1396 -14 1410 -14 m 844 433 q 475 168 703 433 q 677 153 575 153 q 885 176 787 153 q 1121 265 984 200 q 844 433 975 433 m 692 839 q 557 686 642 766 q 408 823 455 770 q 554 976 507 922 q 692 839 610 912 z "},"ﺾ":{"ha":1939,"x_min":111,"x_max":1967,"o":"m 1952 -14 q 1799 22 1874 -14 q 1667 119 1723 57 q 1541 40 1615 73 q 1380 -10 1468 7 q 1211 -28 1293 -28 q 1053 -18 1137 -28 q 897 11 968 -8 q 903 -72 903 -47 q 838 -273 903 -180 q 660 -419 772 -366 q 411 -472 547 -472 q 188 -386 264 -472 q 111 -136 111 -300 q 151 100 111 -52 l 224 82 q 201 -47 201 7 q 254 -221 201 -165 q 415 -278 306 -278 q 640 -243 549 -278 q 811 -134 730 -209 q 765 -41 789 -86 q 720 42 741 3 q 687 112 700 81 q 673 165 673 144 q 839 380 673 302 q 865 208 848 313 l 916 193 q 1214 521 1086 417 q 1435 625 1342 625 q 1568 578 1492 625 q 1705 460 1645 531 q 1765 340 1765 389 q 1750 243 1765 288 q 1836 198 1789 215 q 1952 180 1884 180 q 1967 167 1967 180 l 1967 0 q 1952 -14 1967 -14 m 1394 433 q 1025 168 1253 433 q 1227 153 1125 153 q 1435 176 1337 153 q 1671 265 1534 200 q 1394 433 1525 433 m 1258 839 q 1123 686 1208 766 q 975 823 1021 770 q 1120 976 1073 922 q 1258 839 1177 912 z "},"ظ":{"ha":1295,"x_min":56,"x_max":1211,"o":"m 657 -28 q 445 -21 564 -28 q 286 -1 326 -14 q 178 59 251 9 q 56 157 105 110 l 81 227 q 347 174 256 185 q 412 257 378 217 q 285 885 359 486 q 281 922 281 904 q 329 1037 281 991 q 447 1083 377 1083 q 513 882 475 980 l 461 842 l 497 359 q 712 561 619 497 q 880 625 806 625 q 1013 578 937 625 q 1151 460 1090 532 q 1211 340 1211 389 q 1144 153 1211 235 q 940 22 1077 71 q 657 -28 802 -28 m 840 433 q 464 160 700 433 q 673 153 537 153 q 881 176 783 153 q 1117 265 980 200 q 840 433 971 433 m 873 856 q 739 703 824 783 q 590 840 637 787 q 736 993 688 939 q 873 856 792 929 z "},"ﻇ":{"ha":1132,"x_min":-14,"x_max":1048,"o":"m 0 -14 q -14 0 -14 -14 l -14 167 q 0 180 -14 180 l 73 180 l 167 182 l 235 273 q 202 418 217 349 q 111 885 188 488 q 108 922 108 904 q 156 1037 108 991 q 273 1083 203 1083 q 339 882 302 980 l 288 842 l 322 383 q 717 653 553 653 q 823 630 768 653 q 929 562 878 606 q 1015 467 981 517 q 1048 387 1048 417 q 937 170 1048 258 q 600 34 825 81 q 0 -14 374 -14 m 676 454 q 296 184 528 454 l 469 193 q 817 258 615 201 l 942 293 q 846 389 888 355 q 765 439 804 424 q 676 454 727 454 m 685 856 q 550 703 635 783 q 401 840 448 787 q 547 993 500 939 q 685 856 604 929 z "},"ﻈ":{"ha":1153,"x_min":-14,"x_max":1181,"o":"m 0 -14 q -14 0 -14 -14 l -14 167 q 0 180 -14 180 l 73 180 l 167 182 l 235 273 q 202 418 217 349 q 111 885 188 488 q 108 922 108 904 q 156 1037 108 991 q 273 1083 203 1083 q 339 882 302 980 l 288 842 l 322 383 q 717 653 553 653 q 823 630 768 653 q 929 562 878 606 q 1015 467 981 517 q 1048 387 1048 417 q 993 225 1048 295 q 1166 180 1067 180 q 1181 167 1181 180 l 1181 0 q 1166 -14 1181 -14 q 1005 25 1083 -14 q 873 126 926 63 q 540 22 750 58 q 0 -14 330 -14 m 676 454 q 296 184 528 454 l 469 193 q 817 258 615 201 l 942 293 q 846 389 888 355 q 765 439 804 424 q 676 454 727 454 m 684 856 q 549 703 634 783 q 400 840 447 787 q 546 993 498 939 q 684 856 602 929 z "},"ﻆ":{"ha":1429,"x_min":111,"x_max":1457,"o":"m 713 -28 q 500 -21 620 -28 q 342 -1 381 -14 q 234 59 307 9 q 111 157 161 110 l 136 227 q 403 174 312 185 q 468 257 434 217 q 340 885 415 486 q 337 922 337 904 q 385 1037 337 991 q 503 1083 433 1083 q 568 882 531 980 l 517 842 l 553 359 q 768 561 675 497 q 936 625 861 625 q 1069 578 992 625 q 1206 460 1145 532 q 1267 340 1267 389 q 1249 237 1267 286 q 1333 196 1287 212 q 1443 180 1379 180 q 1457 167 1457 180 l 1457 0 q 1443 -14 1457 -14 q 1293 19 1367 -14 q 1161 114 1219 52 q 960 9 1084 47 q 713 -28 837 -28 m 896 433 q 519 160 755 433 q 729 153 593 153 q 937 176 838 153 q 1173 265 1036 200 q 896 433 1027 433 m 929 856 q 794 703 880 783 q 646 840 692 787 q 791 993 744 939 q 929 856 848 929 z "},"غ":{"ha":1084,"x_min":111,"x_max":1043,"o":"m 624 -472 q 297 -365 409 -472 q 186 -46 186 -257 q 334 301 186 144 q 217 356 268 319 q 139 444 167 393 q 111 542 111 494 q 155 706 111 618 q 259 843 198 793 q 385 892 320 892 q 633 741 499 892 l 599 675 q 427 713 500 713 q 327 701 370 713 q 228 660 283 689 q 300 505 233 564 q 492 433 368 447 q 783 568 623 517 q 803 486 803 545 q 777 407 803 439 q 695 350 751 374 q 439 218 526 278 q 311 95 352 157 q 269 -28 269 33 q 371 -216 269 -146 q 628 -285 472 -285 q 804 -274 715 -285 q 1021 -233 892 -262 l 1043 -302 q 809 -419 935 -366 q 624 -472 684 -472 m 469 1139 q 334 986 420 1066 q 186 1124 233 1070 q 332 1276 284 1222 q 469 1139 388 1213 z "},"ﻏ":{"ha":844,"x_min":-14,"x_max":802,"o":"m 0 -14 q -14 0 -14 -14 l -14 167 q 0 180 -14 180 l 87 180 l 127 180 q 93 281 93 227 q 136 445 93 357 q 241 582 180 532 q 367 631 302 631 q 615 479 481 631 l 581 414 q 408 452 482 452 q 308 440 352 452 q 210 399 264 428 q 244 275 213 331 q 342 186 276 218 q 777 277 580 197 q 795 244 787 267 q 802 197 802 222 q 786 129 802 159 q 741 82 770 100 q 586 37 712 64 q 323 -2 460 10 q 0 -14 186 -14 m 345 893 q 210 740 296 820 q 62 878 109 824 q 208 1030 160 976 q 345 893 264 966 z "},"ﻐ":{"ha":732,"x_min":-14,"x_max":760,"o":"m 743 -14 q 390 86 517 -14 q 198 9 294 33 q 1 -14 103 -14 q -14 1 -14 -14 l -14 165 q 1 180 -14 180 q 150 182 75 180 q 288 195 224 184 l 254 237 q 123 371 194 315 l 94 351 q 51 456 51 399 q 98 550 51 509 q 230 622 145 591 q 396 653 315 653 q 530 622 467 653 q 631 536 594 590 q 668 421 668 483 q 541 191 668 304 q 743 180 602 180 q 760 165 760 180 l 760 1 q 743 -14 760 -14 m 401 472 q 229 432 315 472 q 330 334 283 387 q 416 243 389 268 q 504 385 504 306 q 475 448 504 423 q 401 472 446 472 m 486 928 q 351 774 437 854 q 203 912 250 859 q 349 1065 301 1010 q 486 928 405 1001 z "},"ﻎ":{"ha":779,"x_min":112,"x_max":962,"o":"m 790 -14 q 590 12 674 -14 q 441 92 505 37 q 308 -21 355 40 q 261 -139 261 -82 q 308 -276 261 -218 q 436 -365 354 -334 q 619 -396 519 -396 q 940 -351 745 -396 l 962 -421 l 901 -456 q 615 -583 690 -583 q 289 -478 400 -583 q 178 -163 178 -374 q 366 172 178 22 l 328 220 q 184 371 262 309 l 155 351 q 112 456 112 399 q 159 550 112 509 q 291 622 206 591 q 457 653 376 653 q 591 622 528 653 q 692 536 655 590 q 729 421 729 483 q 593 191 729 304 q 790 180 650 180 q 807 165 807 180 l 807 1 q 790 -14 807 -14 m 463 472 q 290 432 376 472 q 429 294 345 388 l 471 250 q 544 318 523 287 q 566 385 566 349 q 536 448 566 424 q 463 472 507 472 m 530 925 q 395 772 481 852 q 247 909 294 856 q 393 1062 345 1008 q 530 925 449 998 z "},"ﮐ":{"ha":724,"x_min":-14,"x_max":694,"o":"m 0 -14 q -14 0 -14 -14 l -14 167 q 0 180 -14 180 q 315 193 199 180 q 498 235 431 205 q 385 368 469 296 q 183 507 301 441 q 142 501 161 501 q 63 532 98 501 q 29 607 29 564 q 46 724 29 640 q 72 812 63 807 q 373 959 304 928 q 527 1027 441 990 q 663 1083 613 1063 q 694 1002 694 1053 q 672 924 694 961 q 609 866 649 887 q 486 808 569 845 q 320 743 402 772 q 123 682 238 714 q 351 581 245 650 q 519 422 456 511 q 582 254 582 333 q 518 111 582 171 q 322 18 455 50 q 0 -14 189 -14 z "},"ﮑ":{"ha":764,"x_min":-14,"x_max":791,"o":"m 243 212 q 199 318 220 277 q 59 513 103 425 q 16 681 16 602 q 37 758 16 719 q 94 815 58 798 q 371 944 240 886 q 701 1083 503 1002 q 736 1002 736 1050 q 711 923 736 959 q 647 869 686 888 q 402 763 520 808 q 94 654 285 718 q 336 395 263 464 q 480 275 408 327 q 623 202 551 224 q 778 180 694 180 q 791 167 791 180 l 791 0 q 778 -14 791 -14 q 638 -3 699 -14 q 526 31 576 8 q 434 89 475 54 q 332 182 392 123 q 294 77 324 124 q 150 10 221 33 q 0 -14 78 -14 q -14 0 -14 -14 l -14 167 q 0 180 -14 180 q 243 212 121 180 z "},"ف":{"ha":1409,"x_min":111,"x_max":1325,"o":"m 509 -28 q 213 61 315 -28 q 111 321 111 149 q 121 408 111 355 q 143 500 131 461 l 216 500 l 214 482 l 211 419 q 249 270 211 323 q 367 191 287 216 q 569 165 447 165 q 962 191 785 165 q 1240 262 1139 217 q 1210 368 1228 314 q 1105 313 1163 334 q 986 292 1048 292 q 885 316 927 292 q 821 383 843 340 q 798 482 798 426 q 830 648 798 567 q 914 777 862 729 q 1022 825 966 825 q 1172 753 1101 825 q 1284 555 1242 682 q 1325 271 1325 429 q 1268 104 1325 218 q 916 7 1113 43 q 509 -28 718 -28 m 1018 429 q 1173 460 1083 429 q 989 631 1091 631 q 915 600 946 631 q 883 524 883 569 q 923 457 883 484 q 1018 429 962 429 m 1112 1061 q 977 908 1063 988 q 829 1046 876 992 q 975 1198 927 1144 q 1112 1061 1031 1135 z "},"ﻓ":{"ha":699,"x_min":-14,"x_max":615,"o":"m 532 268 q 501 368 513 337 q 397 313 454 334 q 278 292 339 292 q 177 316 219 292 q 113 383 135 340 q 90 482 90 426 q 122 648 90 567 q 206 777 154 729 q 314 825 258 825 q 464 747 392 825 q 576 544 536 669 q 615 271 615 418 q 558 104 615 218 q 332 15 460 43 q 1 -14 203 -14 q -14 1 -14 -14 l -14 165 q 1 180 -14 180 q 310 202 185 180 q 532 268 434 224 m 310 429 q 465 460 375 429 q 374 589 422 549 q 281 629 326 629 q 208 598 241 629 q 175 524 175 567 q 214 457 175 485 q 310 429 254 429 m 361 1061 q 227 908 312 988 q 78 1046 125 992 q 224 1198 176 1144 q 361 1061 280 1135 z "},"ﻔ":{"ha":673,"x_min":-14,"x_max":701,"o":"m 1 180 l 77 180 l 115 180 q 92 257 92 218 q 100 348 92 290 q 121 428 109 406 q 245 570 169 513 q 395 627 321 627 q 483 578 439 627 q 556 453 527 530 q 585 304 585 375 q 549 182 585 242 l 618 180 l 688 180 q 701 167 701 180 l 701 0 q 688 -14 701 -14 q 338 40 477 -14 q 1 -14 218 -14 q -14 1 -14 -14 l -14 165 q 1 180 -14 180 m 180 272 q 334 175 237 205 q 493 254 433 202 q 440 372 475 319 q 378 425 404 425 q 281 385 330 425 q 180 272 232 344 m 459 899 q 324 745 410 825 q 176 883 222 829 q 321 1036 274 981 q 459 899 378 972 z "},"ﻒ":{"ha":1358,"x_min":111,"x_max":1386,"o":"m 509 -28 q 213 61 315 -28 q 111 321 111 149 q 121 408 111 355 q 143 500 131 461 l 216 500 l 214 482 l 211 419 q 249 270 211 323 q 367 191 287 216 q 569 165 447 165 q 806 176 696 165 q 777 257 777 218 q 786 353 777 298 q 806 428 795 408 q 928 569 851 511 q 1079 627 1005 627 q 1167 579 1122 627 q 1241 453 1212 531 q 1270 304 1270 374 q 1221 182 1270 246 l 1295 180 l 1372 180 q 1386 167 1386 180 l 1386 0 q 1372 -14 1386 -14 q 1013 43 1151 -14 q 776 -9 915 9 q 509 -28 637 -28 m 865 272 q 1018 175 921 205 q 1177 254 1117 202 q 1124 373 1159 321 q 1062 425 1089 425 q 865 272 974 425 m 1160 892 q 1025 739 1110 819 q 876 876 923 823 q 1022 1029 975 975 q 1160 892 1078 965 z "},"ﭪ":{"ha":1409,"x_min":111,"x_max":1325,"o":"m 509 -28 q 213 61 315 -28 q 111 321 111 149 q 121 408 111 355 q 143 500 131 461 l 216 500 l 214 482 l 211 419 q 249 270 211 323 q 367 191 287 216 q 569 165 447 165 q 962 191 785 165 q 1240 262 1139 217 q 1210 368 1228 314 q 1105 313 1163 334 q 986 292 1048 292 q 885 316 927 292 q 821 383 843 340 q 798 482 798 426 q 830 648 798 567 q 914 777 862 729 q 1022 825 966 825 q 1172 753 1101 825 q 1284 555 1242 682 q 1325 271 1325 429 q 1268 104 1325 218 q 916 7 1113 43 q 509 -28 718 -28 m 1018 429 q 1173 460 1083 429 q 989 631 1091 631 q 915 600 946 631 q 883 524 883 569 q 923 457 883 484 q 1018 429 962 429 m 1084 1240 q 964 1125 1006 1152 q 897 1176 935 1143 q 831 1240 859 1208 q 957 1368 899 1300 q 1084 1240 1004 1306 m 945 1042 q 821 900 899 973 q 682 1027 732 970 q 789 1136 735 1077 l 818 1168 q 945 1042 861 1121 m 1246 1072 q 1122 930 1198 1002 q 983 1058 1032 1000 q 1118 1198 1028 1099 q 1246 1072 1154 1160 z "},"ﭬ":{"ha":699,"x_min":-39,"x_max":615,"o":"m 532 268 q 501 368 513 337 q 397 313 454 334 q 278 292 339 292 q 177 316 219 292 q 113 383 135 340 q 90 482 90 426 q 122 648 90 567 q 206 777 154 729 q 314 825 258 825 q 464 747 392 825 q 576 544 536 669 q 615 271 615 418 q 558 104 615 218 q 332 15 460 43 q 1 -14 203 -14 q -14 1 -14 -14 l -14 165 q 1 180 -14 180 q 310 202 185 180 q 532 268 434 224 m 310 429 q 465 460 375 429 q 374 589 422 549 q 281 629 326 629 q 208 598 241 629 q 175 524 175 567 q 214 457 175 485 q 310 429 254 429 m 364 1223 q 243 1107 286 1135 q 176 1158 214 1126 q 111 1223 138 1190 q 237 1350 178 1282 q 364 1223 284 1289 m 225 1024 q 100 882 178 956 q -39 1010 12 952 q 68 1118 15 1059 l 98 1150 q 225 1024 140 1103 m 526 1055 q 401 913 478 984 q 263 1040 312 983 q 397 1181 308 1082 q 526 1055 433 1143 z "},"ﭭ":{"ha":673,"x_min":-14,"x_max":701,"o":"m 1 180 l 77 180 l 115 180 q 92 257 92 218 q 100 348 92 290 q 121 428 109 406 q 245 570 169 513 q 395 627 321 627 q 483 578 439 627 q 556 453 527 530 q 585 304 585 375 q 549 182 585 242 l 618 180 l 688 180 q 701 167 701 180 l 701 0 q 688 -14 701 -14 q 338 40 477 -14 q 1 -14 218 -14 q -14 1 -14 -14 l -14 165 q 1 180 -14 180 m 180 272 q 334 175 237 205 q 493 254 433 202 q 440 372 475 319 q 378 425 404 425 q 281 385 330 425 q 180 272 232 344 m 431 1082 q 311 967 353 994 q 243 1018 281 985 q 178 1082 205 1050 q 304 1210 245 1142 q 431 1082 351 1148 m 292 884 q 168 742 245 815 q 28 869 79 812 q 136 978 82 919 l 165 1010 q 292 884 208 963 m 593 914 q 469 772 545 844 q 330 900 379 842 q 465 1040 375 941 q 593 914 500 1002 z "},"ﭫ":{"ha":1358,"x_min":111,"x_max":1386,"o":"m 509 -28 q 213 61 315 -28 q 111 321 111 149 q 121 408 111 355 q 143 500 131 461 l 216 500 l 214 482 l 211 419 q 249 270 211 323 q 367 191 287 216 q 569 165 447 165 q 806 176 696 165 q 777 257 777 218 q 786 353 777 298 q 806 428 795 408 q 928 569 851 511 q 1079 627 1005 627 q 1167 579 1122 627 q 1241 453 1212 531 q 1270 304 1270 374 q 1221 182 1270 246 l 1295 180 l 1372 180 q 1386 167 1386 180 l 1386 0 q 1372 -14 1386 -14 q 1013 43 1151 -14 q 776 -9 915 9 q 509 -28 637 -28 m 865 272 q 1018 175 921 205 q 1177 254 1117 202 q 1124 373 1159 321 q 1062 425 1089 425 q 865 272 974 425 m 1129 1048 q 1008 932 1050 960 q 941 983 979 951 q 876 1048 903 1015 q 1002 1175 943 1107 q 1129 1048 1049 1114 m 990 849 q 865 707 943 781 q 726 835 777 777 q 833 943 780 884 l 863 975 q 990 849 905 928 m 1291 880 q 1166 738 1243 809 q 1028 865 1077 808 q 1162 1006 1073 907 q 1291 880 1198 968 z "},"ﻗ":{"ha":699,"x_min":-39,"x_max":615,"o":"m 532 268 q 501 368 513 337 q 397 313 454 334 q 278 292 339 292 q 177 316 219 292 q 113 383 135 340 q 90 482 90 426 q 122 648 90 567 q 206 777 154 729 q 314 825 258 825 q 464 747 392 825 q 576 544 536 669 q 615 271 615 418 q 558 104 615 218 q 332 15 460 43 q 1 -14 203 -14 q -14 1 -14 -14 l -14 165 q 1 180 -14 180 q 310 202 185 180 q 532 268 434 224 m 310 429 q 465 460 375 429 q 374 589 422 549 q 281 629 326 629 q 208 598 241 629 q 175 524 175 567 q 214 457 175 485 q 310 429 254 429 m 224 1029 q 100 886 183 966 q -39 1015 12 956 q 33 1088 -3 1049 q 97 1156 69 1126 q 224 1029 145 1103 m 496 1060 q 373 917 452 993 q 234 1044 285 985 q 369 1186 296 1103 q 496 1060 421 1132 z "},"ﻘ":{"ha":673,"x_min":-14,"x_max":701,"o":"m 1 180 l 77 180 l 115 180 q 92 257 92 218 q 100 348 92 290 q 121 428 109 406 q 245 570 169 513 q 395 627 321 627 q 483 578 439 627 q 556 453 527 530 q 585 304 585 375 q 549 182 585 242 l 618 180 l 688 180 q 701 167 701 180 l 701 0 q 688 -14 701 -14 q 338 40 477 -14 q 1 -14 218 -14 q -14 1 -14 -14 l -14 165 q 1 180 -14 180 m 180 272 q 334 175 237 205 q 493 254 433 202 q 440 372 475 319 q 378 425 404 425 q 281 385 330 425 q 180 272 232 344 m 315 864 q 190 721 273 800 q 51 850 102 790 q 123 922 87 884 q 187 990 159 961 q 315 864 235 938 m 587 895 q 463 751 543 827 q 324 879 375 820 q 459 1021 387 937 q 587 895 511 966 z "},"ق":{"ha":1065,"x_min":111,"x_max":982,"o":"m 873 -111 q 851 72 869 -9 q 644 -28 751 -28 q 488 31 544 -28 q 432 197 432 90 q 466 376 432 290 q 555 516 499 463 q 671 570 610 570 q 830 501 758 570 q 942 308 902 433 q 982 22 982 183 q 939 -170 982 -81 q 814 -324 895 -258 q 623 -431 734 -391 q 411 -472 511 -472 q 188 -386 264 -472 q 111 -136 111 -300 q 151 100 111 -52 l 224 82 q 201 -47 201 7 q 258 -219 201 -161 q 429 -278 315 -278 q 648 -237 534 -278 q 873 -111 762 -196 m 676 151 q 822 176 747 151 q 744 320 790 267 q 642 374 697 374 q 554 337 589 374 q 519 252 519 300 q 560 177 519 203 q 676 151 600 151 m 565 831 q 440 688 524 767 q 301 817 353 757 q 374 889 338 850 q 437 957 410 928 q 565 831 486 905 m 837 861 q 713 718 793 794 q 574 846 625 787 q 709 987 637 904 q 837 861 762 933 z "},"ﻖ":{"ha":1034,"x_min":111,"x_max":1061,"o":"m 668 604 q 790 551 731 604 q 893 400 849 498 q 956 180 937 303 l 1047 180 q 1061 167 1061 180 l 1061 0 q 1047 -14 1061 -14 l 966 -14 q 913 -193 959 -111 q 790 -336 868 -275 q 608 -435 711 -398 q 411 -472 504 -472 q 188 -386 264 -472 q 111 -136 111 -300 q 151 100 111 -52 l 224 82 q 201 -47 201 7 q 258 -219 201 -161 q 429 -278 315 -278 q 860 -111 641 -278 q 850 -11 854 -46 q 588 18 669 -6 q 469 94 508 41 q 431 232 431 147 q 466 413 431 326 q 557 552 502 500 q 668 604 612 604 m 811 182 q 733 350 779 290 q 632 410 687 410 q 551 377 585 410 q 517 302 517 344 q 545 240 517 267 q 629 199 574 213 q 811 182 684 186 m 579 860 q 454 717 538 796 q 315 846 367 786 q 388 918 352 880 q 452 986 424 957 q 579 860 500 934 m 851 890 q 728 747 807 823 q 589 875 640 816 q 724 1017 651 933 q 851 890 776 962 z "},"ﻧ":{"ha":471,"x_min":-14,"x_max":387,"o":"m 0 -14 q -14 0 -14 -14 l -14 167 q 0 180 -14 180 q 161 193 79 180 q 292 227 242 205 q 248 313 270 274 q 209 383 227 351 q 181 440 192 414 q 171 488 171 466 q 216 576 171 528 q 319 653 260 625 l 340 547 q 387 273 387 326 q 323 77 387 204 q 0 -14 172 -14 m 326 896 q 191 743 276 823 q 42 880 89 827 q 188 1033 140 979 q 326 896 244 969 z "},"ﻨ":{"ha":478,"x_min":-14,"x_max":505,"o":"m 0 -14 q -14 0 -14 -14 l -14 167 q 0 180 -14 180 q 160 218 104 180 q 211 289 183 234 q 265 387 254 374 q 292 407 276 401 q 326 414 309 414 q 392 390 367 414 q 319 222 331 246 q 492 180 399 180 q 505 167 505 180 l 505 0 q 492 -14 505 -14 q 256 98 368 -14 q 224 54 243 79 q 171 15 205 29 q 94 -7 137 0 q 0 -14 51 -14 m 356 690 q 221 537 307 617 q 73 675 119 621 q 218 827 171 773 q 356 690 275 764 z "},"ن":{"ha":986,"x_min":111,"x_max":903,"o":"m 411 -472 q 188 -386 264 -472 q 111 -136 111 -300 q 151 100 111 -52 l 224 82 q 201 -47 201 7 q 254 -221 201 -165 q 415 -278 306 -278 q 640 -243 549 -278 q 811 -134 730 -209 q 765 -41 789 -86 q 720 42 741 3 q 687 112 700 81 q 673 165 673 144 q 839 380 673 302 q 857 262 846 323 q 878 141 868 201 q 896 27 888 82 q 903 -72 903 -27 q 838 -273 903 -180 q 660 -419 772 -366 q 411 -472 547 -472 m 586 377 q 451 224 536 304 q 302 361 349 308 q 448 514 401 460 q 586 377 505 450 z "},"ﻦ":{"ha":979,"x_min":111,"x_max":1007,"o":"m 993 -14 q 897 5 945 -14 q 903 -72 903 -51 q 838 -273 903 -180 q 660 -419 772 -366 q 411 -472 547 -472 q 188 -386 264 -472 q 111 -136 111 -300 q 151 100 111 -52 l 224 82 q 201 -47 201 7 q 254 -221 201 -165 q 415 -278 306 -278 q 640 -243 549 -278 q 811 -134 730 -209 q 765 -41 789 -86 q 720 42 741 3 q 687 112 700 81 q 673 165 673 144 q 839 380 673 302 q 865 212 848 310 q 993 180 921 180 q 1007 167 1007 180 l 1007 0 q 993 -14 1007 -14 m 572 377 q 437 224 523 304 q 289 361 336 308 q 435 514 387 460 q 572 377 491 450 z "},"ە":{"ha":694,"x_min":111,"x_max":611,"o":"m 111 192 q 258 478 111 331 l 252 484 q 216 568 216 507 q 230 632 216 602 q 267 675 243 662 q 437 580 358 646 q 564 431 517 514 q 611 273 611 347 q 592 186 611 243 q 545 81 572 129 q 496 18 518 34 q 419 -15 465 -3 q 325 -28 374 -28 q 172 34 233 -28 q 111 192 111 96 m 504 189 q 438 319 479 263 q 328 429 397 375 q 233 248 233 332 q 264 172 233 200 q 343 144 296 144 q 504 189 433 144 z "},"ۀ":{"ha":700,"x_min":111,"x_max":616,"o":"m 117 192 q 264 478 117 331 l 257 484 q 222 568 222 507 q 235 632 222 602 q 272 675 249 662 q 443 580 363 646 q 569 431 522 514 q 616 273 616 347 q 597 186 616 243 q 551 81 578 129 q 501 18 524 34 q 425 -15 470 -3 q 330 -28 379 -28 q 177 34 238 -28 q 117 192 117 96 m 509 189 q 444 319 485 263 q 333 429 403 375 q 239 248 239 332 q 270 172 239 200 q 349 144 301 144 q 509 189 438 144 m 298 987 l 298 994 q 293 1011 298 1004 q 275 1018 287 1018 q 196 954 230 1018 q 292 920 233 920 q 388 933 332 920 l 380 830 q 222 780 275 802 q 115 730 168 759 l 111 823 q 182 866 151 851 q 133 904 147 884 q 119 951 119 924 q 142 1031 119 993 q 202 1094 165 1069 q 275 1118 240 1118 q 333 1095 312 1118 q 353 1037 353 1072 q 348 1004 353 1021 q 336 979 342 987 l 298 987 z "},"ﮥ":{"ha":761,"x_min":111,"x_max":789,"o":"m 464 35 q 360 46 394 40 q 289 65 327 53 q 167 131 222 91 q 111 199 111 170 q 138 297 111 220 q 185 400 165 374 q 246 463 205 427 q 338 531 288 498 q 440 589 388 564 l 435 621 l 432 653 q 521 722 490 701 q 602 772 552 743 l 600 458 l 602 224 q 775 180 681 180 q 789 167 789 180 l 789 0 q 775 -14 789 -14 q 616 18 677 -14 q 543 107 555 50 l 529 168 l 464 35 m 514 228 q 467 441 486 345 q 323 379 378 411 q 228 307 269 348 q 311 263 269 278 q 405 239 353 248 q 514 228 458 230 m 502 1028 l 503 1035 q 497 1052 503 1044 q 479 1059 491 1059 q 400 994 434 1059 q 496 961 437 961 q 592 974 536 961 l 584 871 q 426 821 479 842 q 319 771 372 800 l 315 864 q 387 907 355 892 q 337 944 351 924 q 323 991 323 964 q 346 1072 323 1034 q 407 1134 369 1110 q 479 1158 444 1158 q 537 1135 516 1158 q 557 1078 557 1112 q 552 1045 557 1062 q 541 1019 546 1028 l 502 1028 z "},"ؤ":{"ha":811,"x_min":83,"x_max":728,"o":"m 728 118 q 673 -113 728 -5 q 524 -284 619 -222 q 319 -347 429 -347 q 214 -305 287 -347 q 83 -214 141 -263 l 110 -146 q 289 -168 197 -168 q 511 -105 416 -168 q 642 66 606 -41 l 640 73 l 640 79 q 531 -3 583 22 q 425 -28 479 -28 q 269 31 326 -28 q 212 197 212 90 q 246 376 212 290 q 335 516 279 463 q 452 570 391 570 q 583 507 522 570 q 686 332 645 444 q 728 118 728 221 m 457 151 q 612 180 529 151 q 528 323 578 273 q 422 374 479 374 q 334 337 369 374 q 300 252 300 300 q 340 177 300 203 q 457 151 381 151 m 408 888 l 409 895 q 403 911 409 904 q 386 918 397 918 q 307 854 340 918 q 403 821 343 821 q 498 833 443 821 l 490 730 q 332 681 386 702 q 226 631 279 659 l 222 724 q 293 766 262 751 q 243 804 258 784 q 229 851 229 824 q 252 931 229 893 q 313 994 275 970 q 386 1018 351 1018 q 443 995 422 1018 q 464 937 464 972 q 458 905 464 922 q 447 879 452 888 l 408 888 z "},"ﺆ":{"ha":798,"x_min":83,"x_max":825,"o":"m 711 -14 q 563 -255 671 -162 q 319 -347 455 -347 q 214 -305 287 -347 q 83 -214 141 -263 l 110 -146 q 289 -168 197 -168 q 474 -126 390 -168 q 606 -11 559 -84 q 359 21 433 -3 q 249 99 285 46 q 214 232 214 151 q 249 413 214 326 q 340 552 285 500 q 452 604 395 604 q 573 550 515 604 q 671 396 630 496 q 724 180 713 296 l 811 180 q 825 167 825 180 l 825 0 q 811 -14 825 -14 l 711 -14 m 616 182 q 531 350 584 291 q 415 410 478 410 q 334 377 368 410 q 300 302 300 345 q 461 191 300 212 q 616 182 488 185 m 410 914 l 410 921 q 405 938 410 930 q 387 945 399 945 q 308 880 342 945 q 404 847 345 847 q 500 860 444 847 l 492 757 q 334 707 387 728 q 227 657 280 686 l 223 750 q 294 793 263 778 q 245 830 259 810 q 231 878 231 850 q 254 958 231 920 q 314 1020 277 996 q 387 1044 352 1044 q 445 1021 424 1044 q 465 964 465 998 q 459 931 465 948 q 448 905 454 914 l 410 914 z "},"ﯨ":{"ha":471,"x_min":-14,"x_max":387,"o":"m 0 -14 q -14 0 -14 -14 l -14 167 q 0 180 -14 180 q 161 193 79 180 q 292 227 242 205 q 248 313 270 274 q 209 383 227 351 q 181 440 192 414 q 171 488 171 466 q 216 576 171 528 q 319 653 260 625 l 340 547 q 387 273 387 326 q 323 77 387 204 q 0 -14 172 -14 z "},"ﯩ":{"ha":478,"x_min":-14,"x_max":505,"o":"m 0 -14 q -14 0 -14 -14 l -14 167 q 0 180 -14 180 q 160 218 104 180 q 211 289 183 234 q 265 387 254 374 q 292 407 276 401 q 326 414 309 414 q 392 390 367 414 q 319 222 331 246 q 492 180 399 180 q 505 167 505 180 l 505 0 q 492 -14 505 -14 q 256 98 368 -14 q 224 54 243 79 q 171 15 205 29 q 94 -7 137 0 q 0 -14 51 -14 z "},"ﻳ":{"ha":574,"x_min":-71,"x_max":491,"o":"m -7 -14 q -21 0 -21 -14 l -21 167 q -7 180 -21 180 q 231 193 117 180 q 395 227 345 205 q 352 313 374 274 q 313 383 330 351 q 285 440 296 414 q 275 488 275 466 q 319 576 275 528 q 423 653 364 625 l 444 547 q 491 273 491 326 q 427 77 491 204 q 237 11 359 35 q -7 -14 115 -14 m 193 -294 q 68 -437 151 -357 q -71 -308 -20 -368 q 1 -235 -35 -274 q 65 -168 37 -197 q 193 -294 113 -220 m 465 -263 q 341 -406 420 -330 q 202 -279 253 -338 q 337 -137 264 -220 q 465 -263 389 -191 z "},"ﻴ":{"ha":589,"x_min":-14,"x_max":616,"o":"m 0 -14 q -14 0 -14 -14 l -14 167 q 0 180 -14 180 q 168 186 119 180 q 248 206 217 193 q 295 241 279 220 q 347 336 311 262 q 390 400 371 387 q 437 414 410 414 q 503 390 477 414 q 469 310 487 353 q 431 222 452 267 q 603 180 510 180 q 616 167 616 180 l 616 0 q 603 -14 616 -14 q 484 13 541 -14 q 367 98 426 39 q 329 46 350 70 q 211 3 306 20 q 0 -14 117 -14 m 288 -294 q 163 -437 247 -357 q 24 -308 76 -368 q 97 -235 61 -274 q 161 -168 133 -197 q 288 -294 209 -220 m 560 -263 q 437 -406 516 -330 q 298 -279 349 -338 q 433 -137 360 -220 q 560 -263 485 -191 z "},"ي":{"ha":1039,"x_min":111,"x_max":983,"o":"m 975 -90 q 926 -213 975 -145 q 790 -342 876 -281 q 604 -438 704 -404 q 411 -472 505 -472 q 188 -386 264 -472 q 111 -136 111 -300 q 151 100 111 -52 l 224 82 q 201 -47 201 7 q 258 -219 201 -161 q 429 -278 315 -278 q 661 -232 536 -278 q 892 -106 787 -186 q 585 -46 675 -106 q 494 135 494 13 q 548 328 494 224 q 684 500 601 431 q 840 570 767 570 q 933 514 897 570 q 983 359 970 458 l 911 343 q 860 375 887 375 q 760 342 816 375 q 654 255 703 310 q 578 134 606 200 q 677 105 628 113 q 771 92 726 98 q 851 77 813 85 q 916 47 888 68 q 960 -12 944 26 q 975 -90 975 -50 m 578 -690 q 453 -833 536 -753 q 314 -704 366 -764 q 387 -631 351 -670 q 450 -564 422 -593 q 578 -690 498 -616 m 850 -659 q 726 -802 806 -726 q 587 -675 638 -734 q 722 -533 650 -616 q 850 -659 774 -587 z "},"ﻲ":{"ha":1128,"x_min":111,"x_max":1156,"o":"m 996 -163 q 803 -62 909 -128 q 696 28 696 3 q 710 81 696 45 q 750 162 724 117 q 782 207 775 207 q 1137 180 926 180 q 1156 163 1156 180 l 1156 3 q 1137 -14 1156 -14 q 1019 -7 1091 -14 q 889 14 946 0 l 939 -11 q 1033 -56 1007 -41 q 1068 -93 1058 -71 q 1079 -160 1079 -116 q 986 -302 1079 -229 q 746 -424 893 -375 q 467 -472 600 -472 q 202 -386 292 -472 q 111 -136 111 -300 q 151 100 111 -52 l 224 82 q 201 -47 201 7 q 271 -220 201 -163 q 485 -278 340 -278 q 770 -247 628 -278 q 996 -163 911 -216 m 675 -690 q 550 -833 633 -753 q 411 -704 463 -764 q 484 -631 448 -670 q 547 -564 519 -593 q 675 -690 595 -616 m 947 -659 q 823 -802 903 -726 q 684 -675 735 -734 q 819 -533 747 -616 q 947 -659 871 -587 z "},"ی":{"ha":1039,"x_min":111,"x_max":983,"o":"m 975 -90 q 926 -213 975 -145 q 790 -342 876 -281 q 604 -438 704 -404 q 411 -472 505 -472 q 188 -386 264 -472 q 111 -136 111 -300 q 151 100 111 -52 l 224 82 q 201 -47 201 7 q 258 -219 201 -161 q 429 -278 315 -278 q 661 -232 536 -278 q 892 -106 787 -186 q 585 -46 675 -106 q 494 135 494 13 q 548 328 494 224 q 684 500 601 431 q 840 570 767 570 q 933 514 897 570 q 983 359 970 458 l 911 343 q 860 375 887 375 q 760 342 816 375 q 654 255 703 310 q 578 134 606 200 q 677 105 628 113 q 771 92 726 98 q 851 77 813 85 q 916 47 888 68 q 960 -12 944 26 q 975 -90 975 -50 z "},"ﯾ":{"ha":574,"x_min":-71,"x_max":491,"o":"m -7 -14 q -21 0 -21 -14 l -21 167 q -7 180 -21 180 q 231 193 117 180 q 395 227 345 205 q 352 313 374 274 q 313 383 330 351 q 285 440 296 414 q 275 488 275 466 q 319 576 275 528 q 423 653 364 625 l 444 547 q 491 273 491 326 q 427 77 491 204 q 237 11 359 35 q -7 -14 115 -14 m 193 -294 q 68 -437 151 -357 q -71 -308 -20 -368 q 1 -235 -35 -274 q 65 -168 37 -197 q 193 -294 113 -220 m 465 -263 q 341 -406 420 -330 q 202 -279 253 -338 q 337 -137 264 -220 q 465 -263 389 -191 z "},"ﯿ":{"ha":589,"x_min":-14,"x_max":616,"o":"m 0 -14 q -14 0 -14 -14 l -14 167 q 0 180 -14 180 q 168 186 119 180 q 248 206 217 193 q 295 241 279 220 q 347 336 311 262 q 390 400 371 387 q 437 414 410 414 q 503 390 477 414 q 469 310 487 353 q 431 222 452 267 q 603 180 510 180 q 616 167 616 180 l 616 0 q 603 -14 616 -14 q 484 13 541 -14 q 367 98 426 39 q 329 46 350 70 q 211 3 306 20 q 0 -14 117 -14 m 260 -294 q 136 -437 219 -357 q -3 -308 48 -368 q 69 -235 33 -274 q 133 -168 105 -197 q 260 -294 181 -220 m 532 -263 q 409 -406 488 -330 q 270 -279 321 -338 q 405 -137 332 -220 q 532 -263 457 -191 z "},"ﯽ":{"ha":1128,"x_min":111,"x_max":1156,"o":"m 996 -163 q 803 -62 909 -128 q 696 28 696 3 q 710 81 696 45 q 750 162 724 117 q 782 207 775 207 q 1137 180 926 180 q 1156 163 1156 180 l 1156 3 q 1137 -14 1156 -14 q 1019 -7 1091 -14 q 889 14 946 0 l 939 -11 q 1033 -56 1007 -41 q 1068 -93 1058 -71 q 1079 -160 1079 -116 q 986 -302 1079 -229 q 746 -424 893 -375 q 467 -472 600 -472 q 202 -386 292 -472 q 111 -136 111 -300 q 151 100 111 -52 l 224 82 q 201 -47 201 7 q 271 -220 201 -163 q 485 -278 340 -278 q 770 -247 628 -278 q 996 -163 911 -216 z "},"ۓ":{"ha":1303,"x_min":114,"x_max":1265,"o":"m 686 -28 q 417 -14 548 -28 q 200 24 287 0 q 114 68 114 47 q 146 202 114 98 q 193 322 178 307 q 286 389 226 356 q 421 444 346 422 q 590 555 554 481 l 660 525 q 501 330 612 380 q 373 283 446 307 q 237 235 299 260 q 435 181 333 195 q 707 167 537 167 q 978 188 833 167 q 1234 241 1123 208 q 1265 157 1265 204 q 1245 91 1265 118 q 1195 48 1225 63 q 1072 14 1166 33 q 874 -17 979 -5 q 686 -28 770 -28 m 413 793 l 414 800 q 408 816 414 809 q 391 823 402 823 q 311 759 345 823 q 408 726 348 726 q 503 739 448 726 l 495 635 q 337 586 391 607 q 231 536 283 564 l 227 629 q 298 671 267 656 q 248 709 262 689 q 234 756 234 729 q 257 837 234 798 q 318 899 280 875 q 391 923 355 923 q 448 900 427 923 q 469 842 469 877 q 463 810 469 827 q 452 784 457 793 l 413 793 z "},"ﮱ":{"ha":838,"x_min":43,"x_max":957,"o":"m 153 -134 q 508 -180 319 -180 q 720 -172 623 -180 q 933 -143 817 -164 q 957 -208 957 -171 q 927 -286 957 -252 q 854 -326 897 -320 q 497 -347 716 -347 q 288 -331 392 -347 q 113 -290 184 -315 q 43 -249 43 -266 q 66 -138 43 -230 q 98 -39 89 -46 q 401 126 214 71 q 857 180 588 180 q 875 163 875 180 l 875 3 q 857 -14 875 -14 q 629 -22 738 -14 q 417 -54 521 -31 q 153 -134 313 -77 m 366 451 l 366 458 q 360 474 366 467 q 343 481 355 481 q 264 417 298 481 q 360 384 300 384 q 456 397 400 384 l 448 294 q 290 244 343 265 q 183 194 236 222 l 179 287 q 250 330 219 315 q 201 367 215 347 q 186 414 186 387 q 210 495 186 456 q 270 557 233 533 q 343 581 308 581 q 400 558 380 581 q 421 500 421 535 q 415 468 421 485 q 404 442 410 451 l 366 451 z "},"ئ":{"ha":1039,"x_min":111,"x_max":983,"o":"m 975 -90 q 926 -213 975 -145 q 790 -342 876 -281 q 604 -438 704 -404 q 411 -472 505 -472 q 188 -386 264 -472 q 111 -136 111 -300 q 151 100 111 -52 l 224 82 q 201 -47 201 7 q 258 -219 201 -161 q 429 -278 315 -278 q 661 -232 536 -278 q 892 -106 787 -186 q 585 -46 675 -106 q 494 135 494 13 q 548 328 494 224 q 684 500 601 431 q 840 570 767 570 q 933 514 897 570 q 983 359 970 458 l 911 343 q 860 375 887 375 q 760 342 816 375 q 654 255 703 310 q 578 134 606 200 q 677 105 628 113 q 771 92 726 98 q 851 77 813 85 q 916 47 888 68 q 960 -12 944 26 q 975 -90 975 -50 m 396 479 l 397 486 q 391 502 397 495 q 374 509 385 509 q 294 445 328 509 q 391 412 331 412 q 486 425 431 412 l 478 321 q 320 272 374 293 q 214 222 267 250 l 210 315 q 281 357 250 342 q 231 395 245 375 q 217 442 217 415 q 240 523 217 484 q 301 585 263 561 q 374 609 338 609 q 431 586 410 609 q 452 528 452 563 q 446 496 452 513 q 435 470 440 479 l 396 479 z "},"ﺋ":{"ha":471,"x_min":-14,"x_max":387,"o":"m 0 -14 q -14 0 -14 -14 l -14 167 q 0 180 -14 180 q 161 193 79 180 q 292 227 242 205 q 248 313 270 274 q 209 383 227 351 q 181 440 192 414 q 171 488 171 466 q 216 576 171 528 q 319 653 260 625 l 340 547 q 387 273 387 326 q 323 77 387 204 q 0 -14 172 -14 m 245 950 l 245 957 q 240 974 245 966 q 222 981 234 981 q 143 916 177 981 q 239 883 180 883 q 335 896 279 883 l 327 793 q 169 743 222 764 q 62 693 115 722 l 58 786 q 130 829 98 814 q 80 866 94 846 q 66 913 66 886 q 89 994 66 956 q 150 1056 112 1032 q 222 1080 187 1080 q 280 1057 259 1080 q 300 1000 300 1034 q 295 967 300 984 q 283 941 289 950 l 245 950 z "},"ﺌ":{"ha":478,"x_min":-14,"x_max":505,"o":"m 0 -14 q -14 0 -14 -14 l -14 167 q 0 180 -14 180 q 160 218 104 180 q 211 289 183 234 q 265 387 254 374 q 292 407 276 401 q 326 414 309 414 q 392 390 367 414 q 319 222 331 246 q 492 180 399 180 q 505 167 505 180 l 505 0 q 492 -14 505 -14 q 256 98 368 -14 q 224 54 243 79 q 171 15 205 29 q 94 -7 137 0 q 0 -14 51 -14 m 260 751 l 260 758 q 255 774 260 767 q 237 781 249 781 q 158 717 192 781 q 254 684 195 684 q 350 696 294 684 l 342 593 q 184 544 237 565 q 77 494 130 522 l 73 587 q 144 629 113 614 q 95 667 109 647 q 81 714 81 687 q 104 794 81 756 q 164 857 127 833 q 237 881 202 881 q 295 858 274 881 q 315 800 315 835 q 310 768 315 785 q 298 742 304 751 l 260 751 z "},"ﺊ":{"ha":1128,"x_min":111,"x_max":1156,"o":"m 996 -163 q 803 -62 909 -128 q 696 28 696 3 q 710 81 696 45 q 750 162 724 117 q 782 207 775 207 q 1137 180 926 180 q 1156 163 1156 180 l 1156 3 q 1137 -14 1156 -14 q 1019 -7 1091 -14 q 889 14 946 0 l 939 -11 q 1033 -56 1007 -41 q 1068 -93 1058 -71 q 1079 -160 1079 -116 q 986 -302 1079 -229 q 746 -424 893 -375 q 467 -472 600 -472 q 202 -386 292 -472 q 111 -136 111 -300 q 151 100 111 -52 l 224 82 q 201 -47 201 7 q 271 -220 201 -163 q 485 -278 340 -278 q 770 -247 628 -278 q 996 -163 911 -216 m 650 437 l 651 444 q 645 460 651 453 q 628 467 640 467 q 549 403 583 467 q 645 370 585 370 q 741 382 685 370 l 732 279 q 574 230 628 251 q 468 180 521 208 l 464 273 q 535 315 504 300 q 486 353 500 333 q 471 400 471 373 q 494 480 471 442 q 555 543 517 519 q 628 567 593 567 q 685 544 665 567 q 706 486 706 521 q 700 454 706 471 q 689 428 694 437 l 650 437 z "},"ﻷ":{"ha":893,"x_min":56,"x_max":810,"o":"m 229 -28 q 225 -3 225 -28 q 234 94 225 35 q 250 153 243 153 l 294 152 l 317 153 q 532 375 469 273 q 212 621 404 503 l 153 616 q 56 764 56 666 q 80 843 56 808 q 146 901 105 878 q 365 719 237 836 q 586 493 492 601 q 602 604 602 546 q 568 843 602 650 q 550 968 550 942 q 597 1070 550 1030 q 722 1111 644 1109 q 748 1019 737 1053 q 787 909 759 984 l 734 869 l 741 685 q 664 397 741 538 q 759 264 737 298 q 795 204 781 231 q 810 167 810 178 q 782 68 810 135 q 745 0 754 1 q 556 -20 685 -12 q 229 -28 428 -28 m 703 184 l 602 302 q 456 158 541 229 q 703 184 590 165 m 235 1192 l 235 1196 q 210 1215 235 1215 q 139 1165 165 1215 q 239 1128 176 1128 q 319 1137 274 1128 l 311 1047 q 189 1013 241 1031 q 62 956 138 995 l 57 1040 l 131 1084 q 65 1162 65 1109 q 88 1237 65 1198 q 145 1300 111 1276 q 208 1325 179 1325 q 283 1234 283 1325 q 274 1185 283 1207 l 235 1192 z "},"ﻸ":{"ha":1031,"x_min":56,"x_max":1059,"o":"m 541 286 q 618 439 585 347 q 667 659 651 532 q 684 974 682 787 q 768 1027 721 996 q 857 1083 814 1058 q 864 227 857 650 q 945 191 903 201 q 1044 180 987 180 q 1059 167 1059 180 l 1059 0 q 1044 -14 1059 -14 q 872 24 937 -14 q 796 134 808 61 q 764 486 779 232 l 754 604 l 746 518 q 710 285 731 357 q 614 77 667 141 q 479 3 560 13 q 104 -22 298 -18 l 96 50 q 339 128 253 91 q 479 215 425 165 q 189 608 370 435 l 129 608 q 71 686 85 654 q 56 757 56 718 q 79 833 56 805 q 161 880 102 861 q 297 750 228 838 q 433 533 366 662 q 541 286 500 404 m 235 1192 l 235 1196 q 210 1215 235 1215 q 139 1165 165 1215 q 239 1128 176 1128 q 319 1137 274 1128 l 311 1047 q 189 1013 241 1031 q 62 956 138 995 l 57 1040 l 131 1084 q 65 1162 65 1109 q 88 1237 65 1198 q 145 1300 111 1276 q 208 1325 179 1325 q 283 1234 283 1325 q 274 1185 283 1207 l 235 1192 z "},"ﻹ":{"ha":893,"x_min":56,"x_max":810,"o":"m 229 -28 q 225 -3 225 -28 q 234 94 225 35 q 250 153 243 153 l 294 152 l 317 153 q 532 375 469 273 q 212 621 404 503 l 153 616 q 56 764 56 666 q 80 843 56 808 q 146 901 105 878 q 365 719 237 836 q 586 493 492 601 q 602 604 602 546 q 568 843 602 650 q 550 968 550 942 q 597 1070 550 1030 q 722 1111 644 1109 q 748 1019 737 1053 q 787 909 759 984 l 734 869 l 741 685 q 664 397 741 538 q 759 264 737 298 q 795 204 781 231 q 810 167 810 178 q 782 68 810 135 q 745 0 754 1 q 556 -20 685 -12 q 229 -28 428 -28 m 703 184 l 602 302 q 456 158 541 229 q 703 184 590 165 m 635 -212 l 635 -208 q 610 -189 635 -189 q 539 -239 565 -189 q 640 -276 576 -276 q 720 -267 674 -276 l 711 -357 q 589 -391 641 -373 q 463 -448 538 -409 l 457 -363 l 531 -320 q 465 -241 465 -295 q 488 -167 465 -206 q 545 -103 511 -128 q 608 -79 579 -79 q 684 -170 684 -79 q 674 -219 684 -197 l 635 -212 z "},"ﻺ":{"ha":1031,"x_min":56,"x_max":1059,"o":"m 541 286 q 618 439 585 347 q 667 659 651 532 q 684 974 682 787 q 768 1027 721 996 q 857 1083 814 1058 q 864 227 857 650 q 945 191 903 201 q 1044 180 987 180 q 1059 167 1059 180 l 1059 0 q 1044 -14 1059 -14 q 872 24 937 -14 q 796 134 808 61 q 764 486 779 232 l 754 604 l 746 518 q 710 285 731 357 q 614 77 667 141 q 479 3 560 13 q 104 -22 298 -18 l 96 50 q 339 128 253 91 q 479 215 425 165 q 189 608 370 435 l 129 608 q 71 686 85 654 q 56 757 56 718 q 79 833 56 805 q 161 880 102 861 q 297 750 228 838 q 433 533 366 662 q 541 286 500 404 m 673 -184 l 674 -180 q 648 -161 674 -161 q 578 -211 604 -161 q 678 -248 615 -248 q 758 -239 713 -248 l 750 -329 q 628 -363 680 -345 q 501 -420 576 -381 l 496 -336 l 570 -292 q 504 -214 504 -267 q 527 -139 504 -178 q 584 -76 549 -100 q 647 -51 618 -51 q 722 -142 722 -51 q 713 -191 722 -169 l 673 -184 z "},"ﻵ":{"ha":968,"x_min":56,"x_max":885,"o":"m 304 -28 q 300 -3 300 -28 q 310 94 300 35 q 326 153 319 153 l 369 152 l 392 153 q 607 375 544 273 q 288 621 479 503 l 228 616 q 131 764 131 666 q 156 843 131 808 q 221 901 180 878 q 440 719 313 836 q 661 493 568 601 q 677 604 677 546 q 643 843 677 650 q 625 968 625 942 q 672 1070 625 1030 q 798 1111 719 1109 q 823 1019 812 1053 q 863 909 834 984 l 810 869 l 816 685 q 739 397 816 538 q 834 264 812 298 q 871 204 857 231 q 885 167 885 178 q 857 68 885 135 q 820 0 829 1 q 632 -20 760 -12 q 304 -28 503 -28 m 778 184 l 677 302 q 531 158 616 229 q 778 184 665 165 m 424 987 q 319 999 369 987 q 213 1029 269 1010 q 92 979 146 1007 l 56 1030 q 150 1112 104 1082 q 224 1141 195 1141 q 258 1136 237 1141 q 307 1124 279 1131 q 365 1112 334 1118 q 431 1107 397 1107 q 505 1117 463 1107 q 583 1144 546 1127 l 614 1097 q 515 1017 568 1047 q 424 987 462 987 z "},"ﻶ":{"ha":1031,"x_min":56,"x_max":1059,"o":"m 541 286 q 618 439 585 347 q 667 659 651 532 q 684 974 682 787 q 768 1027 721 996 q 857 1083 814 1058 q 864 227 857 650 q 945 191 903 201 q 1044 180 987 180 q 1059 167 1059 180 l 1059 0 q 1044 -14 1059 -14 q 872 24 937 -14 q 796 134 808 61 q 764 486 779 232 l 754 604 l 746 518 q 710 285 731 357 q 614 77 667 141 q 479 3 560 13 q 104 -22 298 -18 l 96 50 q 339 128 253 91 q 479 215 425 165 q 189 608 370 435 l 129 608 q 71 686 85 654 q 56 757 56 718 q 79 833 56 805 q 161 880 102 861 q 297 750 228 838 q 433 533 366 662 q 541 286 500 404 m 457 977 q 352 988 402 977 q 246 1018 302 999 q 125 968 179 996 l 89 1019 q 183 1101 138 1072 q 257 1131 229 1131 q 291 1125 270 1131 q 340 1113 313 1120 q 398 1101 367 1107 q 464 1096 430 1096 q 538 1106 496 1096 q 616 1133 579 1116 l 648 1086 q 548 1006 602 1036 q 457 977 495 977 z "},"ۂ":{"ha":704,"x_min":111,"x_max":732,"o":"m 714 -14 q 618 -2 659 -14 q 548 28 578 10 q 496 67 518 46 q 457 105 475 87 q 422 135 439 123 q 386 147 406 147 q 164 -14 294 147 l 111 31 q 440 363 309 363 q 502 341 472 363 q 568 272 531 319 q 640 202 605 224 q 714 180 674 180 q 732 164 732 180 l 732 4 q 714 -14 732 -14 m 420 661 l 420 667 q 415 684 420 677 q 397 691 409 691 q 318 627 352 691 q 414 593 355 593 q 510 606 454 593 l 502 503 q 344 453 397 475 q 237 404 290 432 l 233 496 q 304 539 273 524 q 255 577 269 557 q 241 624 241 597 q 264 704 241 666 q 325 767 287 743 q 397 791 362 791 q 455 768 434 791 q 475 710 475 745 q 470 677 475 694 q 458 652 464 661 l 420 661 z "},"ﮦ":{"ha":694,"x_min":111,"x_max":611,"o":"m 111 192 q 258 478 111 331 l 252 484 q 216 568 216 507 q 230 632 216 602 q 267 675 243 662 q 437 580 358 646 q 564 431 517 514 q 611 273 611 347 q 592 186 611 243 q 545 81 572 129 q 496 18 518 34 q 419 -15 465 -3 q 325 -28 374 -28 q 172 34 233 -28 q 111 192 111 96 m 504 189 q 438 319 479 263 q 328 429 397 375 q 233 248 233 332 q 264 172 233 200 q 343 144 296 144 q 504 189 433 144 z "},"ۃ":{"ha":737,"x_min":111,"x_max":765,"o":"m 747 -14 q 651 -2 692 -14 q 581 28 611 10 q 530 67 551 46 q 490 105 508 87 q 455 135 472 123 q 419 147 439 147 q 197 -14 328 147 l 144 31 q 473 363 342 363 q 535 341 505 363 q 602 272 564 319 q 673 202 638 224 q 747 180 707 180 q 765 164 765 180 l 765 4 q 747 -14 765 -14 m 375 625 q 250 481 334 561 q 111 610 163 551 q 184 683 148 644 q 248 751 220 722 q 375 625 296 699 m 647 655 q 524 512 603 588 q 385 640 435 581 q 519 781 447 698 q 647 655 572 727 z "},"ﮫ":{"ha":798,"x_min":28,"x_max":825,"o":"m 443 -385 q 297 -218 359 -325 q 224 -3 236 -111 q 60 -46 111 -29 l 28 21 q 119 81 62 50 q 227 131 176 112 q 574 705 264 422 l 646 689 q 671 488 650 627 q 688 323 688 372 q 603 154 688 233 q 368 31 517 75 q 395 -64 374 -18 q 479 -205 415 -111 q 533 -6 492 -98 q 639 133 574 85 q 807 180 704 180 q 825 164 825 180 l 825 4 q 807 -14 825 -14 q 689 -21 742 -14 q 607 -40 636 -28 q 583 -162 589 -115 q 576 -296 578 -210 l 443 -385 m 525 482 q 417 309 450 376 q 372 172 385 243 q 491 207 435 188 q 587 258 547 226 q 541 405 548 376 q 525 482 534 435 z "},"ﮬ":{"ha":829,"x_min":-14,"x_max":760,"o":"m 0 -14 q -14 0 -14 -14 l -14 170 q 0 180 -14 180 l 62 180 l 123 182 q 72 325 72 252 q 111 468 72 389 q 205 586 150 546 l 253 754 q 503 633 386 722 q 689 421 619 545 q 760 176 760 298 q 676 -43 760 100 q 464 -14 564 -39 q 286 52 364 11 q 0 -14 168 -14 m 155 326 q 300 222 214 262 l 301 224 q 354 278 332 240 q 375 364 375 317 q 349 433 375 401 q 293 464 323 464 q 155 326 210 464 m 481 359 q 429 178 481 257 q 668 135 508 157 q 579 322 629 245 q 463 456 530 399 q 481 359 481 407 z "},"ﮭ":{"ha":636,"x_min":-14,"x_max":677,"o":"m 546 -22 q 605 -74 581 -41 q 629 -140 629 -107 q 607 -224 629 -165 q 574 -296 585 -283 q 520 -331 557 -315 q 431 -347 484 -347 q 218 -272 303 -347 q 110 -60 133 -196 l 60 -83 l 43 -8 l 0 -14 q -14 0 -14 -14 l -14 167 q 0 180 -14 180 q 118 184 56 180 q 224 455 146 322 q 427 705 302 588 l 498 689 q 528 483 504 622 q 549 313 549 364 q 472 160 549 229 q 660 180 578 180 q 677 164 677 180 l 677 4 q 660 -14 677 -14 q 546 -22 602 -14 m 378 482 q 281 320 314 392 q 237 165 249 248 q 449 248 369 182 l 429 310 q 378 482 391 410 m 279 -14 l 241 -18 q 308 -148 258 -104 q 444 -191 357 -191 q 495 -183 475 -191 q 539 -161 515 -176 q 422 -52 491 -91 q 279 -14 353 -14 z "},"۰":{"ha":586,"x_min":125,"x_max":461,"o":"m 125 311 q 186 422 157 368 q 250 529 214 476 q 404 429 346 474 q 461 361 461 384 q 346 164 461 332 q 125 311 231 253 z "},"۱":{"ha":561,"x_min":125,"x_max":436,"o":"m 125 789 q 159 883 125 842 q 256 949 193 924 q 388 612 340 795 q 436 293 436 429 q 428 125 436 194 q 401 -28 420 56 l 310 -12 q 299 185 308 99 q 273 356 291 271 q 232 507 256 440 q 146 705 208 573 q 125 789 125 749 z "},"۲":{"ha":741,"x_min":126,"x_max":699,"o":"m 126 787 q 160 883 126 842 q 257 949 195 924 q 349 741 309 851 q 384 723 365 728 q 446 718 403 718 q 563 779 518 718 q 619 946 608 839 l 699 930 q 625 611 687 711 q 447 511 564 511 q 411 518 430 511 q 437 293 437 387 q 430 139 437 208 q 401 -28 423 70 l 310 -12 q 293 241 307 134 q 251 448 279 347 q 147 705 224 549 q 126 787 126 748 z "},"۳":{"ha":828,"x_min":126,"x_max":786,"o":"m 126 787 q 160 883 126 842 q 257 949 195 924 q 353 729 312 847 q 407 717 380 717 q 496 840 496 717 q 489 922 496 859 l 550 945 q 599 757 590 841 q 629 753 613 753 q 680 783 661 753 q 699 871 699 813 q 693 947 699 895 l 774 939 q 786 785 786 870 q 768 665 786 717 q 717 584 750 613 q 644 554 684 554 q 564 582 612 554 q 433 511 515 511 l 423 511 l 412 513 q 437 293 437 385 q 403 -28 437 127 l 311 -12 q 292 248 309 133 q 249 459 276 363 q 147 705 221 555 q 126 787 126 748 z "},"۹":{"ha":590,"x_min":7,"x_max":578,"o":"m 435 -29 q 357 213 382 104 q 327 431 332 321 q 251 419 282 419 q 71 482 134 419 q 7 665 7 545 q 43 796 7 722 q 132 921 79 870 q 231 971 184 971 q 391 879 335 971 q 447 615 447 787 q 475 371 447 474 q 578 121 503 269 l 435 -29 m 275 614 q 317 618 297 614 q 186 775 290 775 q 127 752 151 775 q 104 704 104 729 q 153 639 104 664 q 275 614 201 614 z "},"۷":{"ha":793,"x_min":15,"x_max":779,"o":"m 363 -26 q 245 287 295 172 q 103 575 196 401 l 32 708 q 15 774 15 741 q 48 874 15 828 q 139 946 82 920 q 289 626 203 845 q 427 207 374 408 q 519 607 452 391 q 653 945 586 823 l 779 791 q 651 541 696 640 q 562 323 606 441 q 472 52 517 205 l 363 -26 z "},"۸":{"ha":793,"x_min":14,"x_max":778,"o":"m 431 946 q 542 645 488 772 q 690 345 596 517 l 761 211 q 778 144 778 178 q 744 44 778 91 q 654 -26 710 -2 q 493 319 581 87 q 366 711 406 551 q 273 314 338 526 q 140 -25 209 102 l 14 127 q 141 378 94 276 q 232 600 187 479 q 321 868 276 720 l 431 946 z "},"ﹰ":{"ha":0,"x_min":-60,"x_max":338,"o":"m 334 896 q 338 862 338 878 q 289 789 338 812 q -39 669 164 731 l -28 770 q 334 896 151 821 m 310 1046 q 313 1019 313 1032 q 298 967 313 990 q 258 932 283 943 q -60 823 123 875 l -52 920 q 310 1046 155 983 z "},"ﹲ":{"ha":0,"x_min":-131,"x_max":321,"o":"m 31 635 q -5 656 26 635 q -36 681 -36 677 l -34 688 q -24 741 -24 722 q -45 762 -24 762 q -106 734 -60 762 l -131 764 q -69 828 -98 806 q -18 850 -39 850 q 26 830 8 850 q 45 783 45 811 q 39 729 45 752 q 140 770 106 748 q 88 811 110 785 q 66 869 66 836 q 108 964 66 918 q 193 1010 149 1010 q 250 969 227 1010 q 273 865 273 928 q 265 811 273 838 q 321 808 283 808 q 236 745 321 745 l 218 745 q 116 667 170 699 q 31 635 62 635 m 131 895 q 200 828 131 851 q 208 860 208 846 q 196 904 208 884 q 168 925 184 925 q 143 915 156 925 q 131 895 131 904 z "},"ﹴ":{"ha":0,"x_min":-60,"x_max":338,"o":"m 334 -232 q 338 -266 338 -250 q 289 -339 338 -316 q -39 -458 164 -397 l -28 -358 q 334 -232 151 -307 m 310 -82 q 313 -109 313 -96 q 298 -161 313 -138 q 258 -196 283 -184 q -60 -304 123 -253 l -52 -208 q 310 -82 155 -145 z "},"ﹶ":{"ha":0,"x_min":-39,"x_max":338,"o":"m 334 916 q 338 881 338 897 q 327 837 338 859 q 289 802 316 814 q -39 682 172 747 l -26 789 q 334 916 142 837 z "},"ﹸ":{"ha":0,"x_min":-71,"x_max":293,"o":"m -71 708 q 111 770 37 726 q 39 869 39 808 q 80 964 39 918 q 165 1010 121 1010 q 222 969 199 1010 q 245 865 245 928 q 237 811 245 838 q 293 808 256 808 q 208 745 293 745 l 191 745 q 89 667 142 699 q 3 635 35 635 q -71 708 -71 635 m 103 895 q 172 828 103 851 q 180 860 180 846 q 168 906 180 887 q 140 925 155 925 q 116 915 128 925 q 103 895 103 904 z "},"ﹺ":{"ha":0,"x_min":-39,"x_max":338,"o":"m 334 -123 q 338 -158 338 -142 q 327 -202 338 -180 q 289 -237 316 -225 q -39 -357 172 -292 l -26 -250 q 334 -123 142 -202 z "},"ﹼ":{"ha":0,"x_min":-53,"x_max":297,"o":"m 261 956 q 287 889 276 926 q 297 827 297 851 q 266 741 297 780 q 189 703 234 703 q 129 730 155 703 q 88 681 113 699 q 36 663 63 663 q -28 687 -3 663 q -53 758 -53 712 q -28 848 -53 803 l 7 842 q 1 789 1 813 q 40 743 1 743 q 71 756 59 743 q 83 793 83 770 l 81 860 l 135 893 q 157 807 142 831 q 203 783 173 783 q 221 789 212 783 q 233 802 230 794 q 204 869 224 830 q 201 886 201 878 q 220 932 201 910 q 261 956 239 954 z "},"ﹾ":{"ha":0,"x_min":11,"x_max":236,"o":"m 119 685 q 41 721 72 685 q 11 810 11 756 q 27 884 11 852 q 70 933 43 916 q 122 951 96 951 q 176 933 149 951 q 219 884 203 916 q 236 808 236 852 q 200 721 236 756 q 119 685 163 685 m 180 810 q 171 832 180 819 q 148 856 162 846 q 113 865 133 865 q 80 852 95 865 q 65 821 65 838 q 80 786 65 800 q 123 772 96 772 q 163 785 145 772 q 180 810 180 798 z "},"ﱞ":{"ha":0,"x_min":-187,"x_max":297,"o":"m 261 956 q 287 889 276 926 q 297 827 297 851 q 266 741 297 780 q 189 703 234 703 q 129 730 155 703 q 88 681 113 699 q 36 663 63 663 q -28 687 -3 663 q -53 758 -53 712 q -28 848 -53 803 l 7 842 q 1 789 1 813 q 40 743 1 743 q 71 756 59 743 q 83 793 83 770 l 81 860 l 135 893 q 157 807 142 831 q 203 783 173 783 q 221 789 212 783 q 233 802 230 794 q 204 869 224 830 q 201 886 201 878 q 220 932 201 910 q 261 956 239 954 m -26 911 q -61 932 -31 911 q -92 958 -92 954 l -90 965 q -80 1017 -80 999 q -101 1039 -80 1039 q -162 1011 -116 1039 l -187 1040 q -125 1105 -155 1083 q -75 1126 -96 1126 q -30 1107 -48 1126 q -12 1060 -12 1088 q -18 1006 -12 1029 q 84 1046 50 1025 q 32 1087 54 1062 q 10 1146 10 1113 q 52 1241 10 1195 q 137 1286 93 1286 q 194 1245 171 1286 q 217 1142 217 1204 q 209 1088 217 1115 q 264 1085 227 1085 q 180 1021 264 1021 l 162 1021 q 60 943 114 975 q -26 911 6 911 m 75 1171 q 144 1105 75 1128 q 152 1137 152 1123 q 140 1181 152 1160 q 112 1202 128 1202 q 87 1191 100 1202 q 75 1171 75 1181 z "},"ﱟ":{"ha":0,"x_min":-53,"x_max":376,"o":"m 261 956 q 287 889 276 926 q 297 827 297 851 q 266 741 297 780 q 189 703 234 703 q 129 730 155 703 q 88 681 113 699 q 36 663 63 663 q -28 687 -3 663 q -53 758 -53 712 q -28 848 -53 803 l 7 842 q 1 789 1 813 q 40 743 1 743 q 71 756 59 743 q 83 793 83 770 l 81 860 l 135 893 q 157 807 142 831 q 203 783 173 783 q 221 789 212 783 q 233 802 230 794 q 204 869 224 830 q 201 886 201 878 q 220 932 201 910 q 261 956 239 954 m 372 538 q 376 504 376 519 q 328 431 376 454 q 0 311 203 373 l 11 412 q 372 538 190 463 m 349 688 q 352 661 352 674 q 337 609 352 632 q 297 574 322 585 q -21 465 162 517 l -13 562 q 349 688 194 625 z "},"ﱠ":{"ha":0,"x_min":-109,"x_max":297,"o":"m 261 956 q 287 889 276 926 q 297 827 297 851 q 266 741 297 780 q 189 703 234 703 q 129 730 155 703 q 88 681 113 699 q 36 663 63 663 q -28 687 -3 663 q -53 758 -53 712 q -28 848 -53 803 l 7 842 q 1 789 1 813 q 40 743 1 743 q 71 756 59 743 q 83 793 83 770 l 81 860 l 135 893 q 157 807 142 831 q 203 783 173 783 q 221 789 212 783 q 233 802 230 794 q 204 869 224 830 q 201 886 201 878 q 220 932 201 910 q 261 956 239 954 m 264 1139 q 268 1105 268 1121 q 257 1060 268 1083 q 219 1025 246 1038 q -109 906 102 970 l -96 1013 q 264 1139 73 1061 z "},"ﱡ":{"ha":0,"x_min":-113,"x_max":297,"o":"m 261 956 q 287 889 276 926 q 297 827 297 851 q 266 741 297 780 q 189 703 234 703 q 129 730 155 703 q 88 681 113 699 q 36 663 63 663 q -28 687 -3 663 q -53 758 -53 712 q -28 848 -53 803 l 7 842 q 1 789 1 813 q 40 743 1 743 q 71 756 59 743 q 83 793 83 770 l 81 860 l 135 893 q 157 807 142 831 q 203 783 173 783 q 221 789 212 783 q 233 802 230 794 q 204 869 224 830 q 201 886 201 878 q 220 932 201 910 q 261 956 239 954 m -113 990 q 69 1052 -5 1008 q -3 1152 -3 1090 q 38 1246 -3 1200 q 123 1292 79 1292 q 180 1251 157 1292 q 203 1147 203 1210 q 195 1093 203 1120 q 251 1090 214 1090 q 166 1027 251 1027 l 149 1027 q 46 949 100 981 q -39 917 -7 917 q -113 990 -113 917 m 61 1177 q 130 1110 61 1133 q 138 1142 138 1128 q 126 1188 138 1169 q 98 1207 113 1207 q 74 1197 86 1207 q 61 1177 61 1186 z "},"ﱢ":{"ha":0,"x_min":-53,"x_max":343,"o":"m 261 956 q 287 889 276 926 q 297 827 297 851 q 266 741 297 780 q 189 703 234 703 q 129 730 155 703 q 88 681 113 699 q 36 663 63 663 q -28 687 -3 663 q -53 758 -53 712 q -28 848 -53 803 l 7 842 q 1 789 1 813 q 40 743 1 743 q 71 756 59 743 q 83 793 83 770 l 81 860 l 135 893 q 157 807 142 831 q 203 783 173 783 q 221 789 212 783 q 233 802 230 794 q 204 869 224 830 q 201 886 201 878 q 220 932 201 910 q 261 956 239 954 m 339 688 q 343 653 343 669 q 332 609 343 631 q 294 574 321 586 q -33 454 177 519 l -21 561 q 339 688 148 609 z "},"ﱣ":{"ha":0,"x_min":-53,"x_max":297,"o":"m 261 956 q 287 889 276 926 q 297 827 297 851 q 266 741 297 780 q 189 703 234 703 q 129 730 155 703 q 88 681 113 699 q 36 663 63 663 q -28 687 -3 663 q -53 758 -53 712 q -28 848 -53 803 l 7 842 q 1 789 1 813 q 40 743 1 743 q 71 756 59 743 q 83 793 83 770 l 81 860 l 135 893 q 157 807 142 831 q 203 783 173 783 q 221 789 212 783 q 233 802 230 794 q 204 869 224 830 q 201 886 201 878 q 220 932 201 910 q 261 956 239 954 m 102 1337 q 123 1200 118 1255 q 129 1074 129 1145 q 114 993 129 1034 q 71 920 98 952 l 53 926 q 22 1198 53 1076 q 16 1238 16 1221 q 41 1295 16 1267 q 102 1337 65 1322 z "},"ٲ":{"ha":464,"x_min":-28,"x_max":392,"o":"m 336 749 l 336 606 l 328 0 l 222 -14 q 176 661 189 539 q 157 852 157 822 q 206 955 157 916 q 326 993 254 993 q 392 791 355 890 l 336 749 m 127 1201 q 150 1275 127 1236 q 207 1339 173 1314 q 271 1364 241 1364 q 346 1272 346 1364 q 335 1223 346 1242 l 297 1230 l 298 1235 q 272 1254 298 1254 q 234 1242 254 1254 q 201 1202 215 1230 q 242 1168 220 1181 q 297 1156 264 1156 q 379 1172 321 1156 l 375 1083 q 272 1026 328 1050 q 182 1002 216 1002 q 149 1007 163 1002 q 123 1018 135 1012 q 100 1028 111 1023 q 78 1033 90 1033 q 44 1023 59 1033 q 12 997 29 1014 l -28 1027 q 21 1092 -9 1067 q 81 1118 51 1118 q 126 1110 94 1118 q 175 1103 158 1103 q 205 1108 192 1103 q 127 1201 127 1131 z "},"ٳ":{"ha":478,"x_min":-50,"x_max":374,"o":"m 318 839 l 318 664 l 317 530 l 309 0 l 204 -14 q 175 386 195 147 l 132 942 q 155 1015 132 983 q 219 1065 177 1046 q 308 1083 260 1083 q 374 882 336 980 l 318 839 m 105 -240 q 128 -166 105 -205 q 185 -102 151 -127 q 248 -77 219 -77 q 323 -169 323 -77 q 313 -218 323 -199 l 275 -211 l 275 -206 q 250 -187 275 -187 q 212 -199 231 -187 q 179 -239 193 -211 q 220 -273 198 -260 q 275 -286 242 -286 q 357 -269 298 -286 l 353 -358 q 249 -415 305 -391 q 159 -439 193 -439 q 127 -434 141 -439 q 100 -424 113 -429 q 78 -413 88 -418 q 56 -408 67 -408 q 22 -418 37 -408 q -10 -444 7 -427 l -50 -414 q -1 -349 -31 -374 q 58 -323 28 -323 q 104 -331 72 -323 q 153 -338 136 -338 q 183 -333 170 -338 q 105 -240 105 -311 z "},"ٵ":{"ha":464,"x_min":125,"x_max":637,"o":"m 304 749 l 304 606 l 296 0 l 191 -14 q 144 661 157 539 q 125 852 125 822 q 174 955 125 916 q 294 993 222 993 q 360 791 323 890 l 304 749 m 553 1038 l 553 1042 q 528 1061 553 1061 q 457 1011 483 1061 q 557 974 494 974 q 637 983 592 974 l 629 893 q 507 859 559 877 q 380 802 456 841 l 375 886 l 449 930 q 383 1008 383 955 q 406 1083 383 1044 q 463 1146 429 1122 q 526 1171 497 1171 q 602 1080 602 1171 q 592 1031 602 1053 l 553 1038 z "},"ٶ":{"ha":859,"x_min":83,"x_max":775,"o":"m 728 118 q 673 -113 728 -5 q 524 -284 619 -222 q 319 -347 429 -347 q 214 -305 287 -347 q 83 -214 141 -263 l 110 -146 q 289 -168 197 -168 q 511 -105 416 -168 q 642 66 606 -41 l 640 73 l 640 79 q 531 -3 583 22 q 425 -28 479 -28 q 269 31 326 -28 q 212 197 212 90 q 246 376 212 290 q 335 516 279 463 q 452 570 391 570 q 583 507 522 570 q 686 332 645 444 q 728 118 728 221 m 457 151 q 612 180 529 151 q 528 323 578 273 q 422 374 479 374 q 334 337 369 374 q 300 252 300 300 q 340 177 300 203 q 457 151 381 151 m 690 823 l 691 827 q 665 846 691 846 q 595 796 621 846 q 695 759 632 759 q 775 768 730 759 l 767 678 q 645 644 696 662 q 518 587 593 626 l 513 671 l 587 715 q 521 793 521 740 q 544 868 521 829 q 601 931 566 907 q 664 956 635 956 q 739 865 739 956 q 730 816 739 838 l 690 823 z "},"ٷ":{"ha":935,"x_min":83,"x_max":851,"o":"m 804 118 q 750 -113 804 -5 q 601 -284 696 -222 q 396 -347 506 -347 q 291 -305 363 -347 q 160 -214 218 -263 l 186 -146 q 366 -168 274 -168 q 588 -105 493 -168 q 718 66 683 -41 l 717 73 l 717 79 q 608 -3 660 22 q 502 -28 555 -28 q 346 31 402 -28 q 289 197 289 90 q 322 376 289 290 q 412 516 356 463 q 528 570 467 570 q 660 507 598 570 q 763 332 722 444 q 804 118 804 221 m 534 151 q 689 180 606 151 q 605 323 654 273 q 499 374 555 374 q 411 337 446 374 q 376 252 376 300 q 417 177 376 203 q 534 151 458 151 m 766 823 l 767 827 q 741 846 767 846 q 671 796 696 846 q 771 759 708 759 q 851 768 806 759 l 843 678 q 721 644 772 662 q 594 587 669 626 l 589 671 l 663 715 q 597 793 597 740 q 620 868 597 829 q 676 931 642 907 q 740 956 711 956 q 815 865 815 956 q 806 816 815 838 l 766 823 m 83 609 q 265 671 191 627 q 193 770 193 709 q 234 865 193 819 q 319 911 275 911 q 376 870 353 911 q 399 766 399 829 q 391 712 399 739 q 447 709 410 709 q 362 646 447 646 l 345 646 q 242 568 296 600 q 157 536 189 536 q 83 609 83 536 m 257 795 q 326 729 257 752 q 334 761 334 747 q 322 807 334 788 q 294 826 309 826 q 270 815 282 826 q 257 795 257 805 z "},"ٸ":{"ha":1039,"x_min":111,"x_max":983,"o":"m 975 -90 q 926 -213 975 -145 q 790 -342 876 -281 q 604 -438 704 -404 q 411 -472 505 -472 q 188 -386 264 -472 q 111 -136 111 -300 q 151 100 111 -52 l 224 82 q 201 -47 201 7 q 258 -219 201 -161 q 429 -278 315 -278 q 661 -232 536 -278 q 892 -106 787 -186 q 585 -46 675 -106 q 494 135 494 13 q 548 328 494 224 q 684 500 601 431 q 840 570 767 570 q 933 514 897 570 q 983 359 970 458 l 911 343 q 860 375 887 375 q 760 342 816 375 q 654 255 703 310 q 578 134 606 200 q 677 105 628 113 q 771 92 726 98 q 851 77 813 85 q 916 47 888 68 q 960 -12 944 26 q 975 -90 975 -50 m 740 767 l 741 772 q 715 791 741 791 q 644 741 670 791 q 745 703 682 703 q 825 713 779 703 l 817 623 q 694 588 746 606 q 568 531 643 570 l 562 616 l 636 659 q 570 738 570 684 q 593 812 570 773 q 650 876 616 851 q 713 901 684 901 q 789 809 789 901 q 779 760 789 783 l 740 767 z "},"ٺ":{"ha":1279,"x_min":112,"x_max":1196,"o":"m 511 -28 q 214 61 316 -28 q 112 321 112 149 q 123 415 112 359 q 144 500 135 471 l 217 500 l 215 482 l 212 419 q 250 270 212 323 q 368 192 289 216 q 570 167 447 167 q 851 193 715 167 q 1101 269 988 220 q 1057 356 1079 317 q 1018 426 1036 395 q 990 483 1001 458 q 980 530 980 509 q 1024 618 980 570 q 1128 696 1069 667 l 1149 589 q 1196 317 1196 368 q 1133 119 1196 247 q 852 13 1021 53 q 511 -28 684 -28 m 699 640 q 574 496 657 576 q 435 625 486 566 q 507 698 471 659 q 571 766 543 736 q 699 640 619 713 m 659 919 q 534 776 616 854 q 396 903 445 846 q 530 1045 455 958 q 659 919 566 1007 z "},"ٻ":{"ha":1279,"x_min":112,"x_max":1196,"o":"m 831 -566 q 707 -709 790 -630 q 568 -580 618 -639 q 675 -472 615 -538 l 704 -440 q 831 -566 752 -492 m 791 -287 q 668 -430 747 -354 q 529 -302 576 -359 q 663 -161 588 -248 q 791 -287 699 -199 m 511 -28 q 214 61 316 -28 q 112 321 112 149 q 123 415 112 359 q 144 500 135 471 l 217 500 l 215 482 l 212 419 q 250 270 212 323 q 368 192 289 216 q 570 167 447 167 q 851 193 715 167 q 1101 269 988 220 q 1057 356 1079 317 q 1018 426 1036 395 q 990 483 1001 458 q 980 530 980 509 q 1024 618 980 570 q 1128 696 1069 667 l 1149 589 q 1196 317 1196 368 q 1133 119 1196 247 q 852 13 1021 53 q 511 -28 684 -28 z "},"ټ":{"ha":1279,"x_min":112,"x_max":1196,"o":"m 511 -28 q 214 61 316 -28 q 112 321 112 149 q 123 415 112 359 q 144 500 135 471 l 217 500 l 215 482 l 212 419 q 250 270 212 323 q 368 192 289 216 q 570 167 447 167 q 851 193 715 167 q 1101 269 988 220 q 1057 356 1079 317 q 1018 426 1036 395 q 990 483 1001 458 q 980 530 980 509 q 1024 618 980 570 q 1128 696 1069 667 l 1149 589 q 1196 317 1196 368 q 1133 119 1196 247 q 852 13 1021 53 q 511 -28 684 -28 m 597 692 q 473 549 556 628 q 334 677 385 618 q 406 750 370 711 q 470 818 442 789 q 597 692 518 766 m 869 722 q 746 579 825 655 q 607 707 658 648 q 742 848 669 765 q 869 722 794 794 m 675 -192 q 597 -156 627 -192 q 566 -67 566 -121 q 583 7 566 -25 q 625 57 599 39 q 677 75 651 75 q 731 57 705 75 q 775 7 758 39 q 791 -68 791 -25 q 755 -156 791 -121 q 675 -192 719 -192 m 736 -67 q 727 -44 736 -58 q 703 -21 718 -31 q 668 -12 688 -12 q 635 -25 650 -12 q 621 -56 621 -39 q 636 -91 621 -77 q 679 -104 651 -104 q 718 -92 701 -104 q 736 -67 736 -79 z "},"ٽ":{"ha":1279,"x_min":112,"x_max":1196,"o":"m 511 -28 q 214 61 316 -28 q 112 321 112 149 q 123 415 112 359 q 144 500 135 471 l 217 500 l 215 482 l 212 419 q 250 270 212 323 q 368 192 289 216 q 570 167 447 167 q 851 193 715 167 q 1101 269 988 220 q 1057 356 1079 317 q 1018 426 1036 395 q 990 483 1001 458 q 980 530 980 509 q 1024 618 980 570 q 1128 696 1069 667 l 1149 589 q 1196 317 1196 368 q 1133 119 1196 247 q 852 13 1021 53 q 511 -28 684 -28 m 603 674 q 477 532 557 607 q 338 660 385 607 q 446 768 392 709 l 475 800 q 603 674 523 747 m 903 705 q 779 562 859 637 q 640 690 688 632 q 746 799 694 741 l 775 831 q 903 705 817 786 m 766 467 q 646 352 686 380 q 514 467 570 401 q 639 596 574 524 q 701 527 665 562 q 766 467 736 491 z "},"ٿ":{"ha":1279,"x_min":112,"x_max":1196,"o":"m 511 -28 q 214 61 316 -28 q 112 321 112 149 q 123 415 112 359 q 144 500 135 471 l 217 500 l 215 482 l 212 419 q 250 270 212 323 q 368 192 289 216 q 570 167 447 167 q 851 193 715 167 q 1101 269 988 220 q 1057 356 1079 317 q 1018 426 1036 395 q 990 483 1001 458 q 980 530 980 509 q 1024 618 980 570 q 1128 696 1069 667 l 1149 589 q 1196 317 1196 368 q 1133 119 1196 247 q 852 13 1021 53 q 511 -28 684 -28 m 650 573 q 525 430 608 509 q 386 559 437 499 q 493 667 439 608 l 522 699 q 650 573 570 647 m 922 604 q 798 460 880 538 q 660 588 709 530 q 794 730 719 643 q 922 604 839 684 m 582 833 q 457 690 541 769 q 318 819 370 759 q 391 891 355 852 q 454 959 427 930 q 582 833 503 907 m 854 863 q 730 720 810 796 q 591 848 642 789 q 726 989 654 906 q 854 863 779 935 z "},"ڀ":{"ha":1279,"x_min":112,"x_max":1196,"o":"m 783 -546 q 659 -689 742 -610 q 519 -559 570 -618 q 656 -419 565 -519 q 783 -546 703 -471 m 1056 -515 q 932 -659 1012 -583 q 793 -530 842 -589 q 868 -455 824 -503 q 928 -389 913 -408 q 1056 -515 947 -408 m 715 -286 q 591 -429 674 -350 q 452 -300 502 -359 q 473 -280 463 -290 q 588 -160 484 -270 q 715 -286 636 -212 m 987 -256 q 864 -399 943 -323 q 725 -271 778 -332 q 798 -199 759 -241 q 860 -129 837 -157 q 987 -256 887 -158 m 511 -28 q 214 61 316 -28 q 112 321 112 149 q 123 415 112 359 q 144 500 135 471 l 217 500 l 215 482 l 212 419 q 250 270 212 323 q 368 192 289 216 q 570 167 447 167 q 851 193 715 167 q 1101 269 988 220 q 1057 356 1079 317 q 1018 426 1036 395 q 990 483 1001 458 q 980 530 980 509 q 1024 618 980 570 q 1128 696 1069 667 l 1149 589 q 1196 317 1196 368 q 1133 119 1196 247 q 852 13 1021 53 q 511 -28 684 -28 z "},"ځ":{"ha":1071,"x_min":111,"x_max":1029,"o":"m 335 496 q 277 491 302 496 q 230 477 252 486 q 149 432 208 468 q 122 475 134 447 q 111 530 111 504 q 171 648 111 606 q 329 690 230 690 q 440 677 382 690 q 591 630 498 664 q 741 584 675 599 q 875 570 808 570 l 907 570 q 1023 572 988 570 l 957 389 q 836 383 913 383 q 762 386 798 383 q 515 296 637 361 q 325 145 394 231 q 256 -28 256 60 q 357 -216 256 -146 q 614 -285 458 -285 q 788 -274 700 -285 q 1007 -233 877 -263 l 1029 -302 q 785 -423 903 -374 q 610 -472 667 -472 q 283 -365 395 -472 q 172 -46 172 -257 q 266 239 172 105 q 513 449 359 372 q 418 481 461 467 q 335 496 374 496 m 618 945 l 618 949 q 593 968 618 968 q 522 918 548 968 q 623 881 559 881 q 703 890 657 881 l 694 800 q 572 766 624 784 q 446 709 521 748 l 440 793 l 514 837 q 448 916 448 862 q 471 990 448 951 q 528 1054 494 1029 q 591 1078 562 1078 q 667 987 667 1078 q 657 938 667 960 l 618 945 z "},"ڂ":{"ha":1071,"x_min":111,"x_max":1029,"o":"m 335 496 q 277 491 302 496 q 230 477 252 486 q 149 432 208 468 q 122 475 134 447 q 111 530 111 504 q 171 648 111 606 q 329 690 230 690 q 440 677 382 690 q 591 630 498 664 q 741 584 675 599 q 875 570 808 570 l 907 570 q 1023 572 988 570 l 957 389 q 836 383 913 383 q 762 386 798 383 q 515 296 637 361 q 325 145 394 231 q 256 -28 256 60 q 357 -216 256 -146 q 614 -285 458 -285 q 788 -274 700 -285 q 1007 -233 877 -263 l 1029 -302 q 785 -423 903 -374 q 610 -472 667 -472 q 283 -365 395 -472 q 172 -46 172 -257 q 266 239 172 105 q 513 449 359 372 q 418 481 461 467 q 335 496 374 496 m 631 886 q 506 743 589 823 q 367 872 418 812 q 439 945 404 906 q 503 1013 475 983 q 631 886 551 960 m 591 1166 q 467 1023 548 1101 q 328 1150 377 1093 q 463 1292 387 1205 q 591 1166 498 1254 z "},"ڃ":{"ha":1071,"x_min":111,"x_max":1029,"o":"m 335 496 q 277 491 302 496 q 230 477 252 486 q 149 432 208 468 q 122 475 134 447 q 111 530 111 504 q 171 648 111 606 q 329 690 230 690 q 440 677 382 690 q 591 630 498 664 q 741 584 675 599 q 875 570 808 570 l 907 570 q 1023 572 988 570 l 957 389 q 836 383 913 383 q 762 386 798 383 q 515 296 637 361 q 325 145 394 231 q 256 -28 256 60 q 357 -216 256 -146 q 614 -285 458 -285 q 788 -274 700 -285 q 1007 -233 877 -263 l 1029 -302 q 785 -423 903 -374 q 610 -472 667 -472 q 283 -365 395 -472 q 172 -46 172 -257 q 266 239 172 105 q 513 449 359 372 q 418 481 461 467 q 335 496 374 496 m 644 12 q 519 -131 603 -52 q 380 -1 431 -60 q 402 18 391 8 q 517 138 412 28 q 644 12 565 86 m 916 43 q 793 -100 872 -24 q 654 28 707 -33 q 727 100 688 58 q 789 170 766 142 q 916 43 816 140 z "},"ڄ":{"ha":1181,"x_min":111,"x_max":1139,"o":"m 1055 167 q 838 195 931 176 q 550 104 684 174 q 347 -57 416 35 q 278 -253 278 -149 q 285 -331 278 -296 q 314 -425 292 -365 l 215 -471 q 178 -351 193 -415 q 164 -241 164 -286 q 269 80 164 -54 q 579 289 373 214 l 519 325 q 425 370 467 356 q 342 385 383 385 q 253 372 294 385 q 149 321 212 360 q 123 365 134 335 q 111 419 111 394 q 141 503 111 467 q 223 559 170 538 q 336 579 275 579 q 458 561 400 579 q 581 503 517 542 q 771 400 701 428 q 937 357 841 373 q 1139 340 1033 340 l 1055 167 m 737 -429 q 612 -572 696 -493 q 473 -443 524 -502 q 581 -335 521 -401 l 610 -303 q 737 -429 658 -355 m 697 -150 q 574 -293 653 -217 q 435 -165 482 -222 q 569 -24 494 -111 q 697 -150 605 -62 z "},"څ":{"ha":1071,"x_min":111,"x_max":1029,"o":"m 335 496 q 277 491 302 496 q 230 477 252 486 q 149 432 208 468 q 122 475 134 447 q 111 530 111 504 q 171 648 111 606 q 329 690 230 690 q 440 677 382 690 q 591 630 498 664 q 741 584 675 599 q 875 570 808 570 l 907 570 q 1023 572 988 570 l 957 389 q 836 383 913 383 q 762 386 798 383 q 515 296 637 361 q 325 145 394 231 q 256 -28 256 60 q 357 -216 256 -146 q 614 -285 458 -285 q 788 -274 700 -285 q 1007 -233 877 -263 l 1029 -302 q 785 -423 903 -374 q 610 -472 667 -472 q 283 -365 395 -472 q 172 -46 172 -257 q 266 239 172 105 q 513 449 359 372 q 418 481 461 467 q 335 496 374 496 m 654 1110 q 533 995 575 1022 q 466 1045 504 1013 q 401 1110 428 1078 q 526 1238 468 1170 q 654 1110 574 1176 m 515 911 q 390 770 468 843 q 251 897 302 840 q 358 1006 304 947 l 387 1038 q 515 911 430 991 m 815 942 q 691 800 768 871 q 553 928 602 870 q 687 1068 597 969 q 815 942 723 1030 z "},"ڇ":{"ha":1181,"x_min":111,"x_max":1139,"o":"m 1055 167 q 838 195 931 176 q 550 104 684 174 q 347 -57 416 35 q 278 -253 278 -149 q 285 -331 278 -296 q 314 -425 292 -365 l 215 -471 q 178 -351 193 -415 q 164 -241 164 -286 q 269 80 164 -54 q 579 289 373 214 l 519 325 q 425 370 467 356 q 342 385 383 385 q 253 372 294 385 q 149 321 212 360 q 123 365 134 335 q 111 419 111 394 q 141 503 111 467 q 223 559 170 538 q 336 579 275 579 q 458 561 400 579 q 581 503 517 542 q 771 400 701 428 q 937 357 841 373 q 1139 340 1033 340 l 1055 167 m 677 -422 q 553 -566 636 -486 q 414 -436 464 -495 q 550 -296 459 -396 q 677 -422 597 -347 m 950 -392 q 827 -535 906 -459 q 688 -407 736 -465 q 763 -332 718 -380 q 822 -265 807 -284 q 950 -392 841 -285 m 610 -163 q 485 -306 568 -227 q 346 -176 396 -235 q 367 -157 357 -167 q 482 -37 378 -146 q 610 -163 530 -89 m 882 -132 q 758 -275 838 -199 q 619 -147 672 -208 q 692 -75 653 -117 q 754 -5 731 -33 q 882 -132 781 -35 z "},"ډ":{"ha":710,"x_min":56,"x_max":640,"o":"m 275 -28 q 56 100 56 -28 q 68 170 56 134 q 104 232 81 205 q 197 182 144 198 q 326 167 250 167 q 541 200 433 167 q 453 345 499 277 q 367 483 385 446 q 349 543 349 520 q 367 612 349 579 q 418 671 386 645 q 485 708 451 697 q 534 561 507 631 q 585 429 561 491 q 624 314 608 367 q 640 216 640 260 q 622 135 640 193 q 583 36 604 77 q 442 -11 525 5 q 275 -28 359 -28 m 339 -196 q 261 -160 292 -196 q 231 -71 231 -125 q 247 3 231 -29 q 289 53 263 35 q 342 71 315 71 q 396 53 369 71 q 439 3 422 35 q 456 -73 456 -29 q 419 -160 456 -125 q 339 -196 383 -196 m 400 -71 q 391 -48 400 -62 q 367 -25 382 -35 q 332 -16 353 -16 q 300 -29 315 -16 q 285 -60 285 -43 q 300 -95 285 -81 q 343 -109 315 -109 q 382 -96 365 -109 q 400 -71 400 -83 z "},"ڊ":{"ha":710,"x_min":56,"x_max":640,"o":"m 275 -28 q 56 100 56 -28 q 68 170 56 134 q 104 232 81 205 q 197 182 144 198 q 326 167 250 167 q 541 200 433 167 q 453 345 499 277 q 367 483 385 446 q 349 543 349 520 q 367 612 349 579 q 418 671 386 645 q 485 708 451 697 q 534 561 507 631 q 585 429 561 491 q 624 314 608 367 q 640 216 640 260 q 622 135 640 193 q 583 36 604 77 q 442 -11 525 5 q 275 -28 359 -28 m 476 -248 q 341 -400 423 -323 q 193 -262 239 -316 q 338 -110 291 -164 q 476 -248 386 -165 z "},"ڋ":{"ha":720,"x_min":56,"x_max":650,"o":"m 285 -28 q 65 100 65 -28 q 78 170 65 134 q 114 232 91 205 q 207 182 154 198 q 336 167 259 167 q 550 200 442 167 q 463 345 509 277 q 376 483 394 446 q 358 543 358 520 q 377 612 358 579 q 428 671 395 645 q 494 708 460 697 q 543 561 516 631 q 594 429 570 491 q 634 314 618 367 q 650 216 650 260 q 631 135 650 193 q 593 36 613 77 q 451 -11 534 5 q 285 -28 368 -28 m 488 -248 q 353 -400 435 -323 q 204 -262 251 -316 q 350 -110 302 -164 q 488 -248 397 -165 m 73 905 q 157 892 119 895 l 200 949 l 178 1038 q 144 1197 144 1177 q 170 1250 144 1228 q 243 1279 196 1272 q 277 1182 263 1216 l 258 1168 l 260 1090 l 258 1011 q 397 1089 344 1089 q 458 1065 423 1089 q 525 1000 494 1040 q 555 935 555 959 q 519 845 555 887 q 426 778 482 802 q 319 753 370 753 q 238 761 277 753 q 163 785 199 770 q 56 840 127 800 l 73 905 m 386 966 q 313 944 353 966 q 235 884 273 922 q 323 879 282 879 q 486 910 405 879 q 441 951 470 935 q 386 966 413 966 z "},"ڌ":{"ha":710,"x_min":56,"x_max":640,"o":"m 275 -28 q 56 100 56 -28 q 68 170 56 134 q 104 232 81 205 q 197 182 144 198 q 326 167 250 167 q 541 200 433 167 q 453 345 499 277 q 367 483 385 446 q 349 543 349 520 q 367 612 349 579 q 418 671 386 645 q 485 708 451 697 q 534 561 507 631 q 585 429 561 491 q 624 314 608 367 q 640 216 640 260 q 622 135 640 193 q 583 36 604 77 q 442 -11 525 5 q 275 -28 359 -28 m 326 896 q 201 753 285 832 q 62 882 114 822 q 135 954 99 916 q 199 1022 171 993 q 326 896 247 970 m 598 926 q 475 783 554 859 q 336 911 387 852 q 471 1053 398 969 q 598 926 523 998 z "},"ڍ":{"ha":710,"x_min":56,"x_max":640,"o":"m 275 -28 q 56 100 56 -28 q 68 170 56 134 q 104 232 81 205 q 197 182 144 198 q 326 167 250 167 q 541 200 433 167 q 453 345 499 277 q 367 483 385 446 q 349 543 349 520 q 367 612 349 579 q 418 671 386 645 q 485 708 451 697 q 534 561 507 631 q 585 429 561 491 q 624 314 608 367 q 640 216 640 260 q 622 135 640 193 q 583 36 604 77 q 442 -11 525 5 q 275 -28 359 -28 m 342 -290 q 217 -433 300 -353 q 78 -303 128 -362 q 99 -283 89 -294 q 214 -163 110 -273 q 342 -290 262 -216 m 614 -259 q 490 -402 570 -326 q 351 -274 404 -335 q 424 -202 385 -244 q 486 -132 463 -160 q 614 -259 513 -161 z "},"ڎ":{"ha":718,"x_min":56,"x_max":648,"o":"m 283 -28 q 64 100 64 -28 q 77 170 64 134 q 113 232 90 205 q 205 182 153 198 q 334 167 258 167 q 549 200 441 167 q 461 345 507 277 q 375 483 393 446 q 357 543 357 520 q 375 612 357 579 q 427 671 394 645 q 493 708 459 697 q 542 561 515 631 q 593 429 569 491 q 632 314 616 367 q 648 216 648 260 q 630 135 648 193 q 591 36 612 77 q 450 -11 533 5 q 283 -28 367 -28 m 459 1089 q 338 974 380 1001 q 271 1024 309 992 q 206 1089 233 1057 q 332 1217 273 1149 q 459 1089 379 1155 m 320 890 q 195 749 273 822 q 56 876 107 819 q 163 985 110 926 l 193 1017 q 320 890 235 970 m 621 921 q 496 779 573 850 q 358 907 407 849 q 492 1047 403 948 q 621 921 528 1009 z "},"ڏ":{"ha":734,"x_min":56,"x_max":665,"o":"m 300 -28 q 81 100 81 -28 q 94 170 81 134 q 130 232 106 205 q 222 182 170 198 q 351 167 275 167 q 566 200 458 167 q 478 345 524 277 q 392 483 410 446 q 374 543 374 520 q 392 612 374 579 q 444 671 411 645 q 510 708 476 697 q 559 561 532 631 q 610 429 586 491 q 649 314 633 367 q 665 216 665 260 q 647 135 665 193 q 608 36 629 77 q 467 -11 550 5 q 300 -28 384 -28 m 320 1065 q 195 924 275 998 q 56 1051 102 998 q 163 1160 109 1101 l 192 1192 q 320 1065 240 1139 m 620 1096 q 496 953 576 1029 q 357 1082 406 1023 q 463 1190 412 1132 l 492 1222 q 620 1096 534 1177 m 484 859 q 363 743 404 771 q 231 859 288 793 q 356 987 292 916 q 418 918 382 954 q 484 859 454 882 z "},"ڐ":{"ha":749,"x_min":56,"x_max":679,"o":"m 314 -28 q 94 100 94 -28 q 107 170 94 134 q 143 232 120 205 q 236 182 183 198 q 365 167 288 167 q 579 200 471 167 q 492 345 538 277 q 405 483 423 446 q 387 543 387 520 q 406 612 387 579 q 457 671 425 645 q 524 708 490 697 q 572 561 545 631 q 623 429 600 491 q 663 314 647 367 q 679 216 679 260 q 661 135 679 193 q 622 36 642 77 q 480 -11 564 5 q 314 -28 397 -28 m 387 896 q 262 753 346 832 q 123 882 175 822 q 231 990 177 931 l 260 1022 q 387 896 308 970 m 660 926 q 536 783 617 861 q 397 911 446 853 q 532 1053 456 966 q 660 926 576 1006 m 319 1156 q 195 1013 278 1092 q 56 1141 107 1082 q 128 1214 92 1175 q 192 1282 164 1253 q 319 1156 240 1230 m 591 1186 q 468 1043 547 1119 q 329 1171 380 1112 q 464 1312 391 1229 q 591 1186 516 1258 z "},"ڒ":{"ha":616,"x_min":-56,"x_max":547,"o":"m 167 -347 q 72 -308 136 -347 q -56 -214 7 -268 l -29 -146 q 136 -168 58 -168 q 340 -107 256 -168 q 461 66 425 -47 q 434 118 447 96 q 372 216 421 140 q 304 337 326 286 q 282 427 282 387 q 321 521 282 474 q 419 597 359 568 q 456 472 434 535 q 498 348 477 409 q 533 228 518 286 q 547 118 547 170 q 498 -118 547 -10 q 362 -287 449 -226 q 167 -347 275 -347 m 282 766 q 312 887 290 821 q 367 1006 334 954 q 411 986 396 1006 q 427 936 427 966 q 419 908 427 926 q 398 862 411 890 q 367 793 385 834 q 328 696 349 753 q 214 652 271 662 q 121 833 171 747 q 34 966 72 919 q 111 980 91 979 l 115 980 q 175 964 152 980 q 227 892 197 947 q 282 766 257 836 z "},"ړ":{"ha":616,"x_min":-56,"x_max":547,"o":"m 167 -347 q 72 -308 136 -347 q -56 -214 7 -268 l -29 -146 q 136 -168 58 -168 q 340 -107 256 -168 q 461 66 425 -47 q 434 118 447 96 q 372 216 421 140 q 304 337 326 286 q 282 427 282 387 q 321 521 282 474 q 419 597 359 568 q 456 472 434 535 q 498 348 477 409 q 533 228 518 286 q 547 118 547 170 q 498 -118 547 -10 q 362 -287 449 -226 q 167 -347 275 -347 m 408 -416 q 330 -380 361 -416 q 300 -291 300 -345 q 316 -217 300 -249 q 358 -167 332 -185 q 411 -149 385 -149 q 465 -167 438 -149 q 508 -217 492 -185 q 525 -292 525 -249 q 489 -380 525 -345 q 408 -416 452 -416 m 469 -291 q 460 -268 469 -282 q 436 -245 451 -254 q 401 -235 422 -235 q 369 -249 384 -235 q 354 -280 354 -262 q 369 -315 354 -301 q 412 -328 385 -328 q 452 -316 434 -328 q 469 -291 469 -303 z "},"ڔ":{"ha":722,"x_min":-56,"x_max":652,"o":"m 167 -347 q 72 -308 136 -347 q -56 -214 7 -268 l -29 -146 q 136 -168 58 -168 q 340 -107 256 -168 q 461 66 425 -47 q 434 118 447 96 q 372 216 421 140 q 304 337 326 286 q 282 427 282 387 q 321 521 282 474 q 419 597 359 568 q 456 472 434 535 q 498 348 477 409 q 533 228 518 286 q 547 118 547 170 q 498 -118 547 -10 q 362 -287 449 -226 q 167 -347 275 -347 m 652 -365 q 517 -517 600 -440 q 369 -380 416 -433 q 515 -227 467 -281 q 652 -365 562 -282 z "},"ڕ":{"ha":616,"x_min":-56,"x_max":547,"o":"m 167 -347 q 72 -308 136 -347 q -56 -214 7 -268 l -29 -146 q 136 -168 58 -168 q 340 -107 256 -168 q 461 66 425 -47 q 434 118 447 96 q 372 216 421 140 q 304 337 326 286 q 282 427 282 387 q 321 521 282 474 q 419 597 359 568 q 456 472 434 535 q 498 348 477 409 q 533 228 518 286 q 547 118 547 170 q 498 -118 547 -10 q 362 -287 449 -226 q 167 -347 275 -347 m 276 -633 q 306 -512 284 -578 q 361 -393 328 -446 q 405 -413 390 -393 q 420 -463 420 -433 q 413 -491 420 -473 q 392 -537 405 -509 q 360 -606 378 -565 q 322 -703 342 -646 q 208 -747 264 -737 q 115 -566 165 -652 q 28 -433 66 -480 q 105 -419 85 -420 l 109 -419 q 169 -435 146 -419 q 221 -507 191 -452 q 276 -633 251 -563 z "},"ږ":{"ha":694,"x_min":-56,"x_max":625,"o":"m 167 -347 q 72 -308 136 -347 q -56 -214 7 -268 l -29 -146 q 136 -168 58 -168 q 340 -107 256 -168 q 461 66 425 -47 q 434 118 447 96 q 372 216 421 140 q 304 337 326 286 q 282 427 282 387 q 321 521 282 474 q 419 597 359 568 q 456 472 434 535 q 498 348 477 409 q 533 228 518 286 q 547 118 547 170 q 498 -118 547 -10 q 362 -287 449 -226 q 167 -347 275 -347 m 309 106 q 174 -46 256 31 q 26 92 73 38 q 172 244 124 190 q 309 106 219 189 m 625 -365 q 490 -517 572 -440 q 342 -380 389 -433 q 488 -227 440 -281 q 625 -365 535 -282 z "},"ڗ":{"ha":616,"x_min":-56,"x_max":547,"o":"m 167 -347 q 72 -308 136 -347 q -56 -214 7 -268 l -29 -146 q 136 -168 58 -168 q 340 -107 256 -168 q 461 66 425 -47 q 434 118 447 96 q 372 216 421 140 q 304 337 326 286 q 282 427 282 387 q 321 521 282 474 q 419 597 359 568 q 456 472 434 535 q 498 348 477 409 q 533 228 518 286 q 547 118 547 170 q 498 -118 547 -10 q 362 -287 449 -226 q 167 -347 275 -347 m 262 783 q 137 640 220 720 q -2 769 50 709 q 71 842 35 803 q 134 909 106 880 q 262 783 182 857 m 534 814 q 410 671 490 747 q 271 798 322 739 q 406 940 334 857 q 534 814 458 886 z "},"ڙ":{"ha":627,"x_min":-56,"x_max":558,"o":"m 167 -347 q 72 -308 136 -347 q -56 -214 7 -268 l -29 -146 q 136 -168 58 -168 q 340 -107 256 -168 q 461 66 425 -47 q 434 118 447 96 q 372 216 421 140 q 304 337 326 286 q 282 427 282 387 q 321 521 282 474 q 419 597 359 568 q 456 472 434 535 q 498 348 477 409 q 533 228 518 286 q 547 118 547 170 q 498 -118 547 -10 q 362 -287 449 -226 q 167 -347 275 -347 m 286 783 q 161 640 244 720 q 22 769 73 709 q 129 878 75 819 l 158 909 q 286 783 206 857 m 558 814 q 434 671 515 749 q 296 798 345 741 q 430 940 355 853 q 558 814 475 894 m 218 1043 q 93 900 176 979 q -46 1029 5 969 q 26 1101 -9 1063 q 90 1169 62 1140 q 218 1043 138 1117 m 490 1074 q 366 930 446 1006 q 227 1058 278 999 q 362 1200 290 1116 q 490 1074 414 1145 z "},"ښ":{"ha":1733,"x_min":111,"x_max":1650,"o":"m 1582 -28 q 1376 -4 1480 -28 q 1192 56 1272 19 l 1173 17 q 1098 -16 1160 -3 q 957 -28 1036 -28 q 900 -24 929 -28 l 903 -72 q 838 -273 903 -180 q 660 -419 772 -366 q 411 -472 547 -472 q 188 -386 264 -472 q 111 -136 111 -300 q 151 100 111 -52 l 224 82 q 201 -47 201 7 q 254 -221 201 -165 q 415 -278 306 -278 q 640 -243 549 -278 q 811 -134 730 -209 q 765 -41 789 -86 q 720 42 741 3 q 687 112 700 81 q 673 165 673 144 q 839 380 673 302 q 872 176 848 306 q 975 167 916 167 q 1036 170 1015 167 q 1092 184 1057 173 q 1160 350 1113 220 q 1193 424 1182 410 q 1219 444 1204 437 q 1257 452 1235 452 q 1320 435 1289 452 q 1251 225 1301 389 q 1390 177 1314 193 q 1556 151 1466 161 q 1512 241 1534 199 q 1473 318 1490 283 q 1444 381 1455 353 q 1434 432 1434 410 q 1478 520 1434 472 q 1582 597 1523 569 l 1603 489 q 1640 293 1630 353 q 1650 204 1650 233 q 1628 93 1650 165 q 1582 -28 1606 20 m 1250 690 q 1115 537 1200 617 q 966 675 1013 621 q 1112 827 1065 773 q 1250 690 1168 764 m 1350 -248 q 1215 -400 1297 -323 q 1067 -262 1114 -316 q 1213 -110 1165 -164 q 1350 -248 1260 -165 z "},"ڛ":{"ha":1733,"x_min":111,"x_max":1650,"o":"m 1582 -28 q 1376 -4 1480 -28 q 1192 56 1272 19 l 1173 17 q 1098 -16 1160 -3 q 957 -28 1036 -28 q 900 -24 929 -28 l 903 -72 q 838 -273 903 -180 q 660 -419 772 -366 q 411 -472 547 -472 q 188 -386 264 -472 q 111 -136 111 -300 q 151 100 111 -52 l 224 82 q 201 -47 201 7 q 254 -221 201 -165 q 415 -278 306 -278 q 640 -243 549 -278 q 811 -134 730 -209 q 765 -41 789 -86 q 720 42 741 3 q 687 112 700 81 q 673 165 673 144 q 839 380 673 302 q 872 176 848 306 q 975 167 916 167 q 1036 170 1015 167 q 1092 184 1057 173 q 1160 350 1113 220 q 1193 424 1182 410 q 1219 444 1204 437 q 1257 452 1235 452 q 1320 435 1289 452 q 1251 225 1301 389 q 1390 177 1314 193 q 1556 151 1466 161 q 1512 241 1534 199 q 1473 318 1490 283 q 1444 381 1455 353 q 1434 432 1434 410 q 1478 520 1434 472 q 1582 597 1523 569 l 1603 489 q 1640 293 1630 353 q 1650 204 1650 233 q 1628 93 1650 165 q 1582 -28 1606 20 m 1173 -281 q 1048 -422 1130 -345 q 909 -295 960 -353 q 1015 -186 958 -250 l 1044 -155 q 1173 -281 1093 -208 m 1472 -250 q 1349 -393 1428 -317 q 1210 -264 1259 -323 q 1345 -124 1259 -219 q 1472 -250 1380 -162 m 1337 -488 q 1215 -604 1251 -580 q 1084 -488 1143 -557 q 1208 -359 1153 -423 q 1269 -427 1232 -391 q 1337 -488 1305 -464 z "},"ڜ":{"ha":1733,"x_min":111,"x_max":1650,"o":"m 1582 -28 q 1376 -4 1480 -28 q 1192 56 1272 19 l 1173 17 q 1098 -16 1160 -3 q 957 -28 1036 -28 q 900 -24 929 -28 l 903 -72 q 838 -273 903 -180 q 660 -419 772 -366 q 411 -472 547 -472 q 188 -386 264 -472 q 111 -136 111 -300 q 151 100 111 -52 l 224 82 q 201 -47 201 7 q 254 -221 201 -165 q 415 -278 306 -278 q 640 -243 549 -278 q 811 -134 730 -209 q 765 -41 789 -86 q 720 42 741 3 q 687 112 700 81 q 673 165 673 144 q 839 380 673 302 q 872 176 848 306 q 975 167 916 167 q 1036 170 1015 167 q 1092 184 1057 173 q 1160 350 1113 220 q 1193 424 1182 410 q 1219 444 1204 437 q 1257 452 1235 452 q 1320 435 1289 452 q 1251 225 1301 389 q 1390 177 1314 193 q 1556 151 1466 161 q 1512 241 1534 199 q 1473 318 1490 283 q 1444 381 1455 353 q 1434 432 1434 410 q 1478 520 1434 472 q 1582 597 1523 569 l 1603 489 q 1640 293 1630 353 q 1650 204 1650 233 q 1628 93 1650 165 q 1582 -28 1606 20 m 1226 886 q 1105 771 1147 798 q 1038 822 1076 789 q 973 886 1000 854 q 1099 1014 1040 946 q 1226 886 1146 952 m 1087 688 q 962 546 1040 619 q 823 673 874 616 q 930 782 877 723 l 960 814 q 1087 688 1002 767 m 1388 718 q 1263 576 1340 648 q 1125 704 1174 646 q 1259 844 1170 745 q 1388 718 1295 806 m 1177 -281 q 1052 -422 1134 -345 q 913 -295 964 -353 q 1019 -186 962 -250 l 1048 -155 q 1177 -281 1097 -208 m 1476 -250 q 1353 -393 1432 -317 q 1214 -264 1263 -323 q 1349 -124 1263 -219 q 1476 -250 1384 -162 m 1341 -488 q 1219 -604 1255 -580 q 1088 -488 1147 -557 q 1213 -359 1157 -423 q 1273 -427 1236 -391 q 1341 -488 1309 -464 z "},"ڝ":{"ha":1849,"x_min":111,"x_max":1765,"o":"m 411 -472 q 188 -386 264 -472 q 111 -136 111 -300 q 151 100 111 -52 l 224 82 q 201 -47 201 7 q 254 -221 201 -165 q 415 -278 306 -278 q 640 -243 549 -278 q 811 -134 730 -209 q 765 -41 789 -86 q 720 42 741 3 q 687 112 700 81 q 673 165 673 144 q 839 380 673 302 q 865 208 848 313 l 916 193 q 1214 521 1086 417 q 1435 625 1342 625 q 1568 578 1492 625 q 1705 460 1645 531 q 1765 340 1765 389 q 1698 153 1765 235 q 1494 22 1631 71 q 1211 -28 1356 -28 q 1053 -18 1137 -28 q 897 11 968 -8 q 903 -72 903 -47 q 838 -273 903 -180 q 660 -419 772 -366 q 411 -472 547 -472 m 1394 433 q 1025 168 1253 433 q 1227 153 1125 153 q 1435 176 1337 153 q 1671 265 1534 200 q 1394 433 1525 433 m 1299 -279 q 1174 -422 1257 -343 q 1035 -293 1085 -352 q 1056 -273 1046 -283 q 1171 -153 1067 -263 q 1299 -279 1219 -205 m 1571 -249 q 1447 -392 1527 -316 q 1308 -264 1361 -325 q 1381 -192 1342 -234 q 1443 -122 1420 -150 q 1571 -249 1470 -151 z "},"ڞ":{"ha":1849,"x_min":111,"x_max":1765,"o":"m 411 -472 q 188 -386 264 -472 q 111 -136 111 -300 q 151 100 111 -52 l 224 82 q 201 -47 201 7 q 254 -221 201 -165 q 415 -278 306 -278 q 640 -243 549 -278 q 811 -134 730 -209 q 765 -41 789 -86 q 720 42 741 3 q 687 112 700 81 q 673 165 673 144 q 839 380 673 302 q 865 208 848 313 l 916 193 q 1214 521 1086 417 q 1435 625 1342 625 q 1568 578 1492 625 q 1705 460 1645 531 q 1765 340 1765 389 q 1698 153 1765 235 q 1494 22 1631 71 q 1211 -28 1356 -28 q 1053 -18 1137 -28 q 897 11 968 -8 q 903 -72 903 -47 q 838 -273 903 -180 q 660 -419 772 -366 q 411 -472 547 -472 m 1394 433 q 1025 168 1253 433 q 1227 153 1125 153 q 1435 176 1337 153 q 1671 265 1534 200 q 1394 433 1525 433 m 1301 975 q 1181 860 1223 887 q 1114 910 1152 878 q 1048 975 1076 943 q 1174 1103 1116 1035 q 1301 975 1221 1041 m 1162 777 q 1038 635 1116 708 q 899 762 949 705 q 1006 871 952 812 l 1035 903 q 1162 777 1078 856 m 1463 807 q 1339 665 1415 736 q 1200 793 1249 735 q 1335 933 1245 834 q 1463 807 1371 895 z "},"ڟ":{"ha":1295,"x_min":56,"x_max":1211,"o":"m 657 -28 q 445 -21 564 -28 q 286 -1 326 -14 q 178 59 251 9 q 56 157 105 110 l 81 227 q 347 174 256 185 q 412 257 378 217 q 285 885 359 486 q 281 922 281 904 q 329 1037 281 991 q 447 1083 377 1083 q 513 882 475 980 l 461 842 l 497 359 q 712 561 619 497 q 880 625 806 625 q 1013 578 937 625 q 1151 460 1090 532 q 1211 340 1211 389 q 1144 153 1211 235 q 940 22 1077 71 q 657 -28 802 -28 m 840 433 q 464 160 700 433 q 673 153 537 153 q 881 176 783 153 q 1117 265 980 200 q 840 433 971 433 m 941 975 q 821 860 863 887 q 753 910 791 878 q 688 975 715 943 q 814 1103 755 1035 q 941 975 861 1041 m 802 777 q 677 635 755 708 q 538 762 589 705 q 646 871 592 812 l 675 903 q 802 777 718 856 m 1103 807 q 979 665 1055 736 q 840 793 889 735 q 975 933 885 834 q 1103 807 1010 895 z "},"ڠ":{"ha":1054,"x_min":111,"x_max":1109,"o":"m 690 -472 q 364 -365 475 -472 q 252 -46 252 -257 q 400 301 252 144 q 284 356 334 319 q 205 444 233 393 q 178 542 178 494 q 221 706 178 618 q 326 843 264 793 q 451 892 387 892 q 700 741 566 892 l 665 675 q 493 713 567 713 q 393 701 437 713 q 294 660 349 689 q 367 505 300 564 q 558 433 434 447 q 850 568 689 517 q 869 486 869 545 q 844 407 869 439 q 762 350 818 374 q 505 218 592 278 q 377 95 418 157 q 336 -28 336 33 q 437 -216 336 -146 q 694 -285 538 -285 q 870 -274 781 -285 q 1087 -233 959 -262 l 1109 -302 q 876 -419 1001 -366 q 690 -472 750 -472 m 514 1303 q 393 1187 435 1215 q 326 1238 364 1206 q 261 1303 288 1270 q 387 1430 328 1362 q 514 1303 434 1369 m 375 1104 q 250 962 328 1036 q 111 1090 162 1032 q 218 1198 165 1139 l 248 1230 q 375 1104 290 1183 m 675 1135 q 551 993 628 1064 q 413 1120 462 1063 q 547 1261 458 1162 q 675 1135 583 1223 z "},"ڡ":{"ha":1409,"x_min":111,"x_max":1325,"o":"m 509 -28 q 213 61 315 -28 q 111 321 111 149 q 121 408 111 355 q 143 500 131 461 l 216 500 l 214 482 l 211 419 q 249 270 211 323 q 367 191 287 216 q 569 165 447 165 q 962 191 785 165 q 1240 262 1139 217 q 1210 368 1228 314 q 1105 313 1163 334 q 986 292 1048 292 q 885 316 927 292 q 821 383 843 340 q 798 482 798 426 q 830 648 798 567 q 914 777 862 729 q 1022 825 966 825 q 1172 753 1101 825 q 1284 555 1242 682 q 1325 271 1325 429 q 1268 104 1325 218 q 916 7 1113 43 q 509 -28 718 -28 m 1018 429 q 1173 460 1083 429 q 989 631 1091 631 q 915 600 946 631 q 883 524 883 569 q 923 457 883 484 q 1018 429 962 429 z "},"ڢ":{"ha":1409,"x_min":111,"x_max":1325,"o":"m 509 -28 q 213 61 315 -28 q 111 321 111 149 q 121 408 111 355 q 143 500 131 461 l 216 500 l 214 482 l 211 419 q 249 270 211 323 q 367 191 287 216 q 569 165 447 165 q 962 191 785 165 q 1240 262 1139 217 q 1210 368 1228 314 q 1105 313 1163 334 q 986 292 1048 292 q 885 316 927 292 q 821 383 843 340 q 798 482 798 426 q 830 648 798 567 q 914 777 862 729 q 1022 825 966 825 q 1172 753 1101 825 q 1284 555 1242 682 q 1325 271 1325 429 q 1268 104 1325 218 q 916 7 1113 43 q 509 -28 718 -28 m 1018 429 q 1173 460 1083 429 q 989 631 1091 631 q 915 600 946 631 q 883 524 883 569 q 923 457 883 484 q 1018 429 962 429 m 1261 -228 q 1126 -380 1208 -303 q 978 -243 1025 -296 q 1124 -90 1076 -144 q 1261 -228 1171 -145 z "},"ڣ":{"ha":1409,"x_min":111,"x_max":1325,"o":"m 509 -28 q 213 61 315 -28 q 111 321 111 149 q 121 408 111 355 q 143 500 131 461 l 216 500 l 214 482 l 211 419 q 249 270 211 323 q 367 191 287 216 q 569 165 447 165 q 962 191 785 165 q 1240 262 1139 217 q 1210 368 1228 314 q 1105 313 1163 334 q 986 292 1048 292 q 885 316 927 292 q 821 383 843 340 q 798 482 798 426 q 830 648 798 567 q 914 777 862 729 q 1022 825 966 825 q 1172 753 1101 825 q 1284 555 1242 682 q 1325 271 1325 429 q 1268 104 1325 218 q 916 7 1113 43 q 509 -28 718 -28 m 1018 429 q 1173 460 1083 429 q 989 631 1091 631 q 915 600 946 631 q 883 524 883 569 q 923 457 883 484 q 1018 429 962 429 m 1126 1034 q 991 880 1077 960 q 843 1018 890 964 q 989 1171 941 1116 q 1126 1034 1045 1107 m 1261 -228 q 1126 -380 1208 -303 q 978 -243 1025 -296 q 1124 -90 1076 -144 q 1261 -228 1171 -145 z "},"ڥ":{"ha":1428,"x_min":111,"x_max":1344,"o":"m 509 -28 q 213 61 315 -28 q 111 321 111 149 q 121 408 111 355 q 143 500 131 461 l 216 500 l 214 482 l 211 419 q 249 270 211 323 q 367 191 287 216 q 569 165 447 165 q 962 191 785 165 q 1240 262 1139 217 q 1210 368 1228 314 q 1105 313 1163 334 q 986 292 1048 292 q 885 316 927 292 q 821 383 843 340 q 798 482 798 426 q 830 648 798 567 q 914 777 862 729 q 1022 825 966 825 q 1172 753 1101 825 q 1284 555 1242 682 q 1325 271 1325 429 q 1268 104 1325 218 q 916 7 1113 43 q 509 -28 718 -28 m 1018 429 q 1173 460 1083 429 q 989 631 1091 631 q 915 600 946 631 q 883 524 883 569 q 923 457 883 484 q 1018 429 962 429 m 1044 -257 q 920 -399 1002 -321 q 781 -271 831 -329 q 887 -163 830 -226 l 916 -131 q 1044 -257 964 -184 m 1344 -227 q 1221 -370 1300 -294 q 1082 -241 1131 -299 q 1217 -100 1131 -195 q 1344 -227 1252 -138 m 1208 -465 q 1087 -580 1122 -556 q 956 -465 1015 -533 q 1080 -335 1025 -399 q 1140 -404 1104 -367 q 1208 -465 1177 -440 z "},"ڦ":{"ha":1409,"x_min":111,"x_max":1325,"o":"m 509 -28 q 213 61 315 -28 q 111 321 111 149 q 121 408 111 355 q 143 500 131 461 l 216 500 l 214 482 l 211 419 q 249 270 211 323 q 367 191 287 216 q 569 165 447 165 q 962 191 785 165 q 1240 262 1139 217 q 1210 368 1228 314 q 1105 313 1163 334 q 986 292 1048 292 q 885 316 927 292 q 821 383 843 340 q 798 482 798 426 q 830 648 798 567 q 914 777 862 729 q 1022 825 966 825 q 1172 753 1101 825 q 1284 555 1242 682 q 1325 271 1325 429 q 1268 104 1325 218 q 916 7 1113 43 q 509 -28 718 -28 m 1018 429 q 1173 460 1083 429 q 989 631 1091 631 q 915 600 946 631 q 883 524 883 569 q 923 457 883 484 q 1018 429 962 429 m 970 998 q 846 854 929 934 q 707 983 758 924 q 814 1092 760 1033 l 843 1124 q 970 998 891 1072 m 1243 1028 q 1119 885 1200 963 q 981 1013 1029 955 q 1115 1154 1040 1067 q 1243 1028 1160 1108 m 903 1257 q 778 1114 861 1194 q 639 1243 690 1183 q 711 1316 675 1277 q 775 1383 747 1354 q 903 1257 823 1331 m 1175 1288 q 1051 1145 1131 1221 q 912 1272 963 1213 q 1047 1414 975 1331 q 1175 1288 1099 1360 z "},"ڧ":{"ha":1065,"x_min":111,"x_max":982,"o":"m 873 -111 q 851 72 869 -9 q 644 -28 751 -28 q 488 31 544 -28 q 432 197 432 90 q 466 376 432 290 q 555 516 499 463 q 671 570 610 570 q 830 501 758 570 q 942 308 902 433 q 982 22 982 183 q 939 -170 982 -81 q 814 -324 895 -258 q 623 -431 734 -391 q 411 -472 511 -472 q 188 -386 264 -472 q 111 -136 111 -300 q 151 100 111 -52 l 224 82 q 201 -47 201 7 q 258 -219 201 -161 q 429 -278 315 -278 q 648 -237 534 -278 q 873 -111 762 -196 m 676 151 q 822 176 747 151 q 744 320 790 267 q 642 374 697 374 q 554 337 589 374 q 519 252 519 300 q 560 177 519 203 q 676 151 600 151 m 736 803 q 601 650 686 730 q 452 787 499 734 q 598 940 551 886 q 736 803 654 876 z "},"ڨ":{"ha":1065,"x_min":111,"x_max":982,"o":"m 873 -111 q 851 72 869 -9 q 644 -28 751 -28 q 488 31 544 -28 q 432 197 432 90 q 466 376 432 290 q 555 516 499 463 q 671 570 610 570 q 830 501 758 570 q 942 308 902 433 q 982 22 982 183 q 939 -170 982 -81 q 814 -324 895 -258 q 623 -431 734 -391 q 411 -472 511 -472 q 188 -386 264 -472 q 111 -136 111 -300 q 151 100 111 -52 l 224 82 q 201 -47 201 7 q 258 -219 201 -161 q 429 -278 315 -278 q 648 -237 534 -278 q 873 -111 762 -196 m 676 151 q 822 176 747 151 q 744 320 790 267 q 642 374 697 374 q 554 337 589 374 q 519 252 519 300 q 560 177 519 203 q 676 151 600 151 m 717 975 q 596 860 638 887 q 529 910 567 878 q 464 975 491 943 q 589 1103 531 1035 q 717 975 637 1041 m 578 777 q 453 635 531 708 q 314 762 365 705 q 421 871 368 812 l 450 903 q 578 777 493 856 m 878 807 q 754 665 831 736 q 616 793 665 735 q 750 933 661 834 q 878 807 786 895 z "},"ڪ":{"ha":1658,"x_min":15,"x_max":1596,"o":"m 468 -14 l 427 -14 q 157 -1 220 -14 q 55 62 93 11 q 15 190 16 114 l 17 220 q 443 180 201 180 q 1028 193 737 180 q 1508 229 1318 206 q 1432 303 1480 284 q 1292 322 1384 322 q 956 309 1192 322 q 606 296 720 296 q 437 346 490 296 q 385 503 385 395 q 457 684 385 592 q 650 842 529 776 q 872 933 770 909 q 881 854 881 892 q 857 755 880 797 q 790 697 833 714 l 740 677 q 533 589 597 623 q 469 532 469 555 q 523 494 469 511 q 635 478 577 478 q 958 489 726 478 q 1291 501 1220 501 q 1451 463 1381 501 q 1558 355 1521 425 q 1596 191 1596 285 q 1561 58 1596 137 q 1035 6 1339 26 q 468 -14 732 -14 z "},"ګ":{"ha":1122,"x_min":119,"x_max":1190,"o":"m 500 -28 q 269 -2 346 -28 q 156 80 193 23 q 119 235 119 136 q 127 324 119 268 q 142 407 135 380 l 215 404 q 210 343 210 368 q 242 237 210 274 q 347 183 275 199 q 559 167 419 167 q 820 180 722 167 q 996 233 918 194 q 882 367 964 295 q 679 507 800 439 q 637 501 658 501 q 559 532 593 501 q 525 607 525 564 q 542 724 525 640 q 568 812 559 807 q 868 959 800 928 q 1023 1027 937 990 q 1158 1083 1109 1063 q 1190 1002 1190 1053 q 1167 924 1190 961 q 1105 866 1145 887 q 981 808 1065 845 q 816 743 898 772 q 619 682 734 714 q 847 581 741 650 q 1015 422 952 511 q 1078 254 1078 333 q 1012 105 1078 168 q 811 7 947 43 q 500 -28 676 -28 m 917 637 q 839 672 869 637 q 808 762 808 708 q 825 836 808 804 q 867 885 841 867 q 920 903 893 903 q 974 885 947 903 q 1017 836 1000 867 q 1034 760 1034 804 q 997 672 1034 708 q 917 637 961 637 m 978 762 q 969 784 978 770 q 945 808 960 798 q 910 817 930 817 q 878 804 892 817 q 863 772 863 790 q 878 738 863 751 q 921 724 893 724 q 960 737 943 724 q 978 762 978 749 z "},"ڬ":{"ha":1010,"x_min":56,"x_max":913,"o":"m 432 -28 q 184 -18 313 -28 q 56 4 56 -7 q 68 107 56 48 q 97 200 80 166 q 273 176 165 184 q 463 167 380 167 q 829 199 648 167 l 767 451 q 693 772 715 653 q 671 916 671 890 q 722 1034 671 985 q 847 1083 774 1083 q 913 882 876 980 l 861 843 l 876 680 q 913 184 913 312 q 894 87 913 140 q 850 0 876 34 q 650 -20 770 -12 q 432 -28 530 -28 m 485 893 q 350 740 435 820 q 201 878 248 824 q 347 1030 300 976 q 485 893 404 966 m 470 575 l 471 582 q 465 598 471 591 q 448 606 459 606 q 368 541 402 606 q 465 508 405 508 q 560 521 505 508 l 552 418 q 394 368 448 389 q 288 318 340 347 l 283 411 q 355 454 323 439 q 305 491 319 471 q 291 538 291 511 q 314 619 291 581 q 375 681 337 657 q 448 705 412 705 q 505 682 484 705 q 526 625 526 659 q 520 592 526 609 q 509 566 514 575 l 470 575 z "},"ڭ":{"ha":1010,"x_min":24,"x_max":913,"o":"m 432 -28 q 184 -18 313 -28 q 56 4 56 -7 q 68 107 56 48 q 97 200 80 166 q 273 176 165 184 q 463 167 380 167 q 829 199 648 167 l 767 451 q 693 772 715 653 q 671 916 671 890 q 722 1034 671 985 q 847 1083 774 1083 q 913 882 876 980 l 861 843 l 876 680 q 913 184 913 312 q 894 87 913 140 q 850 0 876 34 q 650 -20 770 -12 q 432 -28 530 -28 m 427 1089 q 306 974 348 1001 q 239 1024 277 992 q 174 1089 201 1057 q 299 1217 241 1149 q 427 1089 347 1155 m 288 890 q 163 749 241 822 q 24 876 75 819 q 131 985 77 926 l 160 1017 q 288 890 203 970 m 588 921 q 464 779 541 850 q 326 907 374 849 q 460 1047 370 948 q 588 921 496 1009 m 470 575 l 471 582 q 465 598 471 591 q 448 606 459 606 q 368 541 402 606 q 465 508 405 508 q 560 521 505 508 l 552 418 q 394 368 448 389 q 288 318 340 347 l 283 411 q 355 454 323 439 q 305 491 319 471 q 291 538 291 511 q 314 619 291 581 q 375 681 337 657 q 448 705 412 705 q 505 682 484 705 q 526 625 526 659 q 520 592 526 609 q 509 566 514 575 l 470 575 z "},"ڮ":{"ha":1010,"x_min":56,"x_max":913,"o":"m 432 -28 q 184 -18 313 -28 q 56 4 56 -7 q 68 107 56 48 q 97 200 80 166 q 273 176 165 184 q 463 167 380 167 q 829 199 648 167 l 767 451 q 693 772 715 653 q 671 916 671 890 q 722 1034 671 985 q 847 1083 774 1083 q 913 882 876 980 l 861 843 l 876 680 q 913 184 913 312 q 894 87 913 140 q 850 0 876 34 q 650 -20 770 -12 q 432 -28 530 -28 m 470 575 l 471 582 q 465 598 471 591 q 448 606 459 606 q 368 541 402 606 q 465 508 405 508 q 560 521 505 508 l 552 418 q 394 368 448 389 q 288 318 340 347 l 283 411 q 355 454 323 439 q 305 491 319 471 q 291 538 291 511 q 314 619 291 581 q 375 681 337 657 q 448 705 412 705 q 505 682 484 705 q 526 625 526 659 q 520 592 526 609 q 509 566 514 575 l 470 575 m 379 -257 q 254 -399 336 -321 q 115 -271 166 -329 q 222 -163 165 -226 l 251 -131 q 379 -257 299 -184 m 679 -227 q 555 -370 635 -294 q 416 -241 465 -299 q 551 -100 465 -195 q 679 -227 587 -138 m 543 -465 q 422 -580 457 -556 q 290 -465 350 -533 q 415 -335 359 -399 q 475 -404 439 -367 q 543 -465 511 -440 z "},"ڰ":{"ha":1211,"x_min":111,"x_max":1182,"o":"m 492 -28 q 261 -2 338 -28 q 148 80 184 23 q 111 235 111 136 q 119 324 111 268 q 134 407 127 380 l 207 404 q 201 343 201 368 q 234 237 201 274 q 339 183 267 199 q 551 167 411 167 q 811 180 713 167 q 987 233 909 194 q 873 367 956 295 q 671 507 791 439 q 629 501 650 501 q 551 532 585 501 q 517 607 517 564 q 534 724 517 640 q 559 812 551 807 q 860 959 792 928 q 1015 1027 928 990 q 1150 1083 1101 1063 q 1182 1002 1182 1053 q 1159 924 1182 961 q 1097 866 1137 887 q 973 808 1057 845 q 808 743 890 772 q 611 682 726 714 q 839 581 733 650 q 1007 422 944 511 q 1069 254 1069 333 q 1004 105 1069 168 q 803 7 939 43 q 492 -28 668 -28 m 503 861 q 492 925 492 907 q 494 935 492 933 l 657 1015 l 1067 1210 q 1089 1168 1089 1193 l 1088 1158 q 1048 1114 1082 1128 q 503 861 725 968 m 908 637 q 830 672 861 637 q 800 762 800 708 q 816 836 800 804 q 858 885 832 867 q 911 903 884 903 q 965 885 938 903 q 1008 836 991 867 q 1025 760 1025 804 q 988 672 1025 708 q 908 637 952 637 m 969 762 q 960 784 969 770 q 936 808 951 798 q 901 817 922 817 q 869 804 884 817 q 854 772 854 790 q 869 738 854 751 q 912 724 884 724 q 951 737 934 724 q 969 762 969 749 z "},"ڱ":{"ha":1211,"x_min":111,"x_max":1182,"o":"m 492 -28 q 261 -2 338 -28 q 148 80 184 23 q 111 235 111 136 q 119 324 111 268 q 134 407 127 380 l 207 404 q 201 343 201 368 q 234 237 201 274 q 339 183 267 199 q 551 167 411 167 q 811 180 713 167 q 987 233 909 194 q 873 367 956 295 q 671 507 791 439 q 629 501 650 501 q 551 532 585 501 q 517 607 517 564 q 534 724 517 640 q 559 812 551 807 q 860 959 792 928 q 1015 1027 928 990 q 1150 1083 1101 1063 q 1182 1002 1182 1053 q 1159 924 1182 961 q 1097 866 1137 887 q 973 808 1057 845 q 808 743 890 772 q 611 682 726 714 q 839 581 733 650 q 1007 422 944 511 q 1069 254 1069 333 q 1004 105 1069 168 q 803 7 939 43 q 492 -28 668 -28 m 503 861 q 492 925 492 907 q 494 935 492 933 l 657 1015 l 1067 1210 q 1089 1168 1089 1193 l 1088 1158 q 1048 1114 1082 1128 q 503 861 725 968 m 705 1260 q 618 1160 665 1206 q 521 1251 564 1202 l 571 1302 l 615 1349 l 705 1260 m 896 1282 q 810 1182 861 1232 q 712 1271 747 1229 q 807 1371 753 1310 q 896 1282 835 1339 z "},"ڲ":{"ha":1211,"x_min":111,"x_max":1182,"o":"m 492 -28 q 261 -2 338 -28 q 148 80 184 23 q 111 235 111 136 q 119 324 111 268 q 134 407 127 380 l 207 404 q 201 343 201 368 q 234 237 201 274 q 339 183 267 199 q 551 167 411 167 q 811 180 713 167 q 987 233 909 194 q 873 367 956 295 q 671 507 791 439 q 629 501 650 501 q 551 532 585 501 q 517 607 517 564 q 534 724 517 640 q 559 812 551 807 q 860 959 792 928 q 1015 1027 928 990 q 1150 1083 1101 1063 q 1182 1002 1182 1053 q 1159 924 1182 961 q 1097 866 1137 887 q 973 808 1057 845 q 808 743 890 772 q 611 682 726 714 q 839 581 733 650 q 1007 422 944 511 q 1069 254 1069 333 q 1004 105 1069 168 q 803 7 939 43 q 492 -28 668 -28 m 503 861 q 492 925 492 907 q 494 935 492 933 l 657 1015 l 1067 1210 q 1089 1168 1089 1193 l 1088 1158 q 1048 1114 1082 1128 q 503 861 725 968 m 572 -286 q 448 -429 531 -350 q 309 -300 359 -359 q 330 -280 319 -290 q 445 -160 340 -270 q 572 -286 493 -212 m 844 -256 q 721 -399 800 -323 q 582 -271 635 -332 q 655 -199 616 -241 q 717 -129 694 -157 q 844 -256 744 -158 z "},"ڳ":{"ha":1211,"x_min":111,"x_max":1182,"o":"m 492 -28 q 261 -2 338 -28 q 148 80 184 23 q 111 235 111 136 q 119 324 111 268 q 134 407 127 380 l 207 404 q 201 343 201 368 q 234 237 201 274 q 339 183 267 199 q 551 167 411 167 q 811 180 713 167 q 987 233 909 194 q 873 367 956 295 q 671 507 791 439 q 629 501 650 501 q 551 532 585 501 q 517 607 517 564 q 534 724 517 640 q 559 812 551 807 q 860 959 792 928 q 1015 1027 928 990 q 1150 1083 1101 1063 q 1182 1002 1182 1053 q 1159 924 1182 961 q 1097 866 1137 887 q 973 808 1057 845 q 808 743 890 772 q 611 682 726 714 q 839 581 733 650 q 1007 422 944 511 q 1069 254 1069 333 q 1004 105 1069 168 q 803 7 939 43 q 492 -28 668 -28 m 503 861 q 492 925 492 907 q 494 935 492 933 l 657 1015 l 1067 1210 q 1089 1168 1089 1193 l 1088 1158 q 1048 1114 1082 1128 q 503 861 725 968 m 724 -550 q 599 -693 682 -614 q 460 -564 510 -623 q 567 -456 507 -522 l 596 -424 q 724 -550 644 -476 m 684 -271 q 560 -414 640 -338 q 421 -286 469 -342 q 555 -144 480 -231 q 684 -271 591 -182 z "},"ڴ":{"ha":1211,"x_min":111,"x_max":1182,"o":"m 492 -28 q 261 -2 338 -28 q 148 80 184 23 q 111 235 111 136 q 119 324 111 268 q 134 407 127 380 l 207 404 q 201 343 201 368 q 234 237 201 274 q 339 183 267 199 q 551 167 411 167 q 811 180 713 167 q 987 233 909 194 q 873 367 956 295 q 671 507 791 439 q 629 501 650 501 q 551 532 585 501 q 517 607 517 564 q 534 724 517 640 q 559 812 551 807 q 860 959 792 928 q 1015 1027 928 990 q 1150 1083 1101 1063 q 1182 1002 1182 1053 q 1159 924 1182 961 q 1097 866 1137 887 q 973 808 1057 845 q 808 743 890 772 q 611 682 726 714 q 839 581 733 650 q 1007 422 944 511 q 1069 254 1069 333 q 1004 105 1069 168 q 803 7 939 43 q 492 -28 668 -28 m 503 861 q 492 925 492 907 q 494 935 492 933 l 657 1015 l 1067 1210 q 1089 1168 1089 1193 l 1088 1158 q 1048 1114 1082 1128 q 503 861 725 968 m 790 1399 q 705 1318 731 1335 q 612 1399 652 1353 q 700 1488 659 1440 q 790 1399 734 1446 m 693 1260 q 606 1161 659 1211 q 508 1250 551 1201 q 602 1349 548 1286 q 693 1260 612 1339 m 903 1280 q 817 1182 873 1236 q 719 1271 751 1232 q 814 1370 751 1301 l 860 1322 l 903 1280 z "},"ڵ":{"ha":1000,"x_min":111,"x_max":903,"o":"m 811 -134 l 773 73 l 729 314 l 696 505 l 633 885 l 631 917 q 683 1035 631 986 q 807 1083 734 1083 q 838 976 827 1008 q 872 882 848 945 l 821 842 q 869 334 840 581 q 892 112 882 214 q 903 -72 903 9 q 838 -273 903 -180 q 660 -419 772 -366 q 411 -472 547 -472 q 188 -386 264 -472 q 111 -136 111 -300 q 151 100 111 -52 l 224 82 q 201 -47 201 7 q 254 -221 201 -165 q 415 -278 306 -278 q 640 -243 549 -278 q 811 -134 730 -209 m 689 1249 q 719 1370 697 1303 q 774 1488 741 1436 q 818 1468 803 1488 q 833 1418 833 1449 q 826 1390 833 1408 q 805 1344 818 1373 q 773 1276 791 1316 q 735 1178 755 1235 q 621 1135 677 1144 q 528 1315 578 1230 q 441 1449 479 1401 q 518 1462 498 1461 l 522 1462 q 582 1446 559 1462 q 634 1374 604 1430 q 689 1249 664 1318 z "},"ڶ":{"ha":1000,"x_min":111,"x_max":903,"o":"m 811 -134 l 773 73 l 729 314 l 696 505 l 633 885 l 631 917 q 683 1035 631 986 q 807 1083 734 1083 q 838 976 827 1008 q 872 882 848 945 l 821 842 q 869 334 840 581 q 892 112 882 214 q 903 -72 903 9 q 838 -273 903 -180 q 660 -419 772 -366 q 411 -472 547 -472 q 188 -386 264 -472 q 111 -136 111 -300 q 151 100 111 -52 l 224 82 q 201 -47 201 7 q 254 -221 201 -165 q 415 -278 306 -278 q 640 -243 549 -278 q 811 -134 730 -209 m 822 1335 q 687 1181 772 1261 q 538 1319 585 1265 q 684 1472 637 1417 q 822 1335 741 1408 z "},"ڷ":{"ha":1000,"x_min":111,"x_max":903,"o":"m 811 -134 l 773 73 l 729 314 l 696 505 l 633 885 l 631 917 q 683 1035 631 986 q 807 1083 734 1083 q 838 976 827 1008 q 872 882 848 945 l 821 842 q 869 334 840 581 q 892 112 882 214 q 903 -72 903 9 q 838 -273 903 -180 q 660 -419 772 -366 q 411 -472 547 -472 q 188 -386 264 -472 q 111 -136 111 -300 q 151 100 111 -52 l 224 82 q 201 -47 201 7 q 254 -221 201 -165 q 415 -278 306 -278 q 640 -243 549 -278 q 811 -134 730 -209 m 750 1431 q 665 1350 691 1367 q 572 1431 612 1385 q 660 1520 619 1472 q 750 1431 694 1478 m 653 1292 q 566 1193 618 1242 q 468 1282 511 1233 q 562 1381 508 1318 q 653 1292 572 1371 m 863 1312 q 777 1214 833 1267 q 679 1303 711 1264 q 774 1402 711 1333 l 820 1354 l 863 1312 z "},"ڸ":{"ha":1000,"x_min":111,"x_max":903,"o":"m 811 -134 l 773 73 l 729 314 l 696 505 l 633 885 l 631 917 q 683 1035 631 986 q 807 1083 734 1083 q 838 976 827 1008 q 872 882 848 945 l 821 842 q 869 334 840 581 q 892 112 882 214 q 903 -72 903 9 q 838 -273 903 -180 q 660 -419 772 -366 q 411 -472 547 -472 q 188 -386 264 -472 q 111 -136 111 -300 q 151 100 111 -52 l 224 82 q 201 -47 201 7 q 254 -221 201 -165 q 415 -278 306 -278 q 640 -243 549 -278 q 811 -134 730 -209 m 586 -701 q 498 -800 551 -750 q 401 -711 439 -753 q 496 -612 435 -680 l 586 -701 m 795 -679 q 709 -780 764 -726 q 612 -688 646 -732 q 663 -638 637 -665 q 707 -591 688 -611 q 795 -679 736 -623 m 700 -845 q 616 -926 639 -911 q 524 -845 563 -892 q 611 -755 566 -808 q 700 -845 642 -798 z "},"ڹ":{"ha":986,"x_min":111,"x_max":903,"o":"m 411 -472 q 188 -386 264 -472 q 111 -136 111 -300 q 151 100 111 -52 l 224 82 q 201 -47 201 7 q 254 -221 201 -165 q 415 -278 306 -278 q 640 -243 549 -278 q 811 -134 730 -209 q 765 -41 789 -86 q 720 42 741 3 q 687 112 700 81 q 673 165 673 144 q 839 380 673 302 q 857 262 846 323 q 878 141 868 201 q 896 27 888 82 q 903 -72 903 -27 q 838 -273 903 -180 q 660 -419 772 -366 q 411 -472 547 -472 m 786 -659 q 651 -812 733 -734 q 503 -674 549 -728 q 648 -522 601 -576 q 786 -659 696 -576 m 578 377 q 443 224 528 304 q 294 361 341 308 q 440 514 393 460 q 578 377 496 450 z "},"ڻ":{"ha":986,"x_min":111,"x_max":903,"o":"m 411 -472 q 188 -386 264 -472 q 111 -136 111 -300 q 151 100 111 -52 l 224 82 q 201 -47 201 7 q 254 -221 201 -165 q 415 -278 306 -278 q 640 -243 549 -278 q 811 -134 730 -209 q 765 -41 789 -86 q 720 42 741 3 q 687 112 700 81 q 673 165 673 144 q 839 380 673 302 q 857 262 846 323 q 878 141 868 201 q 896 27 888 82 q 903 -72 903 -27 q 838 -273 903 -180 q 660 -419 772 -366 q 411 -472 547 -472 m 191 370 q 275 356 237 359 l 318 413 l 296 503 q 262 661 262 642 q 288 714 262 692 q 361 743 314 736 q 395 646 381 680 l 376 632 l 378 554 l 376 475 q 515 553 462 553 q 576 529 541 553 q 643 464 612 505 q 673 399 673 423 q 637 309 673 351 q 544 242 600 267 q 437 217 488 217 q 356 225 395 217 q 281 249 317 234 q 174 304 245 264 l 191 370 m 504 431 q 431 409 471 431 q 353 348 391 387 q 441 343 400 343 q 604 374 523 343 q 559 415 588 399 q 504 431 531 431 z "},"ڼ":{"ha":986,"x_min":111,"x_max":903,"o":"m 656 -604 q 578 -568 608 -604 q 547 -479 547 -532 q 564 -405 547 -437 q 606 -355 580 -373 q 659 -337 632 -337 q 712 -355 686 -337 q 756 -405 739 -373 q 772 -480 772 -437 q 736 -568 772 -532 q 656 -604 700 -604 m 717 -479 q 708 -456 717 -470 q 684 -433 699 -442 q 649 -423 669 -423 q 616 -437 631 -423 q 602 -468 602 -450 q 617 -503 602 -489 q 660 -516 632 -516 q 699 -504 682 -516 q 717 -479 717 -491 m 411 -472 q 188 -386 264 -472 q 111 -136 111 -300 q 151 100 111 -52 l 224 82 q 201 -47 201 7 q 254 -221 201 -165 q 415 -278 306 -278 q 640 -243 549 -278 q 811 -134 730 -209 q 765 -41 789 -86 q 720 42 741 3 q 687 112 700 81 q 673 165 673 144 q 839 380 673 302 q 857 262 846 323 q 878 141 868 201 q 896 27 888 82 q 903 -72 903 -27 q 838 -273 903 -180 q 660 -419 772 -366 q 411 -472 547 -472 m 586 377 q 451 224 536 304 q 302 361 349 308 q 448 514 401 460 q 586 377 505 450 z "},"ڽ":{"ha":986,"x_min":111,"x_max":903,"o":"m 411 -472 q 188 -386 264 -472 q 111 -136 111 -300 q 151 100 111 -52 l 224 82 q 201 -47 201 7 q 254 -221 201 -165 q 415 -278 306 -278 q 640 -243 549 -278 q 811 -134 730 -209 q 765 -41 789 -86 q 720 42 741 3 q 687 112 700 81 q 673 165 673 144 q 839 380 673 302 q 857 262 846 323 q 878 141 868 201 q 896 27 888 82 q 903 -72 903 -27 q 838 -273 903 -180 q 660 -419 772 -366 q 411 -472 547 -472 m 579 589 q 458 473 500 500 q 391 524 429 492 q 326 589 353 556 q 452 716 393 648 q 579 589 499 654 m 440 390 q 315 248 393 321 q 176 376 227 318 q 283 484 230 425 l 313 516 q 440 390 355 469 m 741 420 q 616 279 693 350 q 478 406 527 349 q 612 547 523 448 q 741 420 648 509 z "},"ڿ":{"ha":1181,"x_min":111,"x_max":1139,"o":"m 1055 167 q 838 195 931 176 q 550 104 684 174 q 347 -57 416 35 q 278 -253 278 -149 q 285 -331 278 -296 q 314 -425 292 -365 l 215 -471 q 178 -351 193 -415 q 164 -241 164 -286 q 269 80 164 -54 q 579 289 373 214 l 519 325 q 425 370 467 356 q 342 385 383 385 q 253 372 294 385 q 149 321 212 360 q 123 365 134 335 q 111 419 111 394 q 141 503 111 467 q 223 559 170 538 q 336 579 275 579 q 458 561 400 579 q 581 503 517 542 q 771 400 701 428 q 937 357 841 373 q 1139 340 1033 340 l 1055 167 m 886 690 q 751 537 837 617 q 603 675 650 621 q 749 827 701 773 q 886 690 805 764 m 661 -179 q 536 -321 618 -243 q 397 -193 448 -251 q 504 -85 447 -148 l 533 -53 q 661 -179 581 -106 m 961 -149 q 838 -292 917 -216 q 699 -163 747 -221 q 833 -22 747 -117 q 961 -149 869 -60 m 825 -387 q 704 -502 739 -478 q 572 -387 632 -455 q 697 -257 642 -321 q 757 -326 721 -289 q 825 -387 793 -362 z "},"ۄ":{"ha":811,"x_min":83,"x_max":728,"o":"m 728 118 q 673 -113 728 -5 q 524 -284 619 -222 q 319 -347 429 -347 q 214 -305 287 -347 q 83 -214 141 -263 l 110 -146 q 289 -168 197 -168 q 511 -105 416 -168 q 642 66 606 -41 l 640 73 l 640 79 q 531 -3 583 22 q 425 -28 479 -28 q 269 31 326 -28 q 212 197 212 90 q 246 376 212 290 q 335 516 279 463 q 452 570 391 570 q 583 507 522 570 q 686 332 645 444 q 728 118 728 221 m 457 151 q 612 180 529 151 q 528 323 578 273 q 422 374 479 374 q 334 337 369 374 q 300 252 300 300 q 340 177 300 203 q 457 151 381 151 m 321 -294 q 243 -258 273 -294 q 212 -169 212 -222 q 229 -95 212 -127 q 271 -45 245 -63 q 323 -27 297 -27 q 377 -45 351 -27 q 421 -95 404 -63 q 437 -170 437 -127 q 401 -258 437 -222 q 321 -294 365 -294 m 382 -169 q 373 -146 382 -160 q 349 -123 363 -132 q 314 -113 334 -113 q 281 -127 296 -113 q 267 -158 267 -140 q 282 -193 267 -179 q 325 -206 297 -206 q 364 -194 347 -206 q 382 -169 382 -181 z "}}}
